%TF.GenerationSoftware,KiCad,Pcbnew,9.0.6*%
%TF.CreationDate,2026-01-31T02:41:39+05:30*%
%TF.ProjectId,BYH_devboard,4259485f-6465-4766-926f-6172642e6b69,rev?*%
%TF.SameCoordinates,Original*%
%TF.FileFunction,Paste,Top*%
%TF.FilePolarity,Positive*%
%FSLAX46Y46*%
G04 Gerber Fmt 4.6, Leading zero omitted, Abs format (unit mm)*
G04 Created by KiCad (PCBNEW 9.0.6) date 2026-01-31 02:41:39*
%MOMM*%
%LPD*%
G01*
G04 APERTURE LIST*
G04 Aperture macros list*
%AMRoundRect*
0 Rectangle with rounded corners*
0 $1 Rounding radius*
0 $2 $3 $4 $5 $6 $7 $8 $9 X,Y pos of 4 corners*
0 Add a 4 corners polygon primitive as box body*
4,1,4,$2,$3,$4,$5,$6,$7,$8,$9,$2,$3,0*
0 Add four circle primitives for the rounded corners*
1,1,$1+$1,$2,$3*
1,1,$1+$1,$4,$5*
1,1,$1+$1,$6,$7*
1,1,$1+$1,$8,$9*
0 Add four rect primitives between the rounded corners*
20,1,$1+$1,$2,$3,$4,$5,0*
20,1,$1+$1,$4,$5,$6,$7,0*
20,1,$1+$1,$6,$7,$8,$9,0*
20,1,$1+$1,$8,$9,$2,$3,0*%
G04 Aperture macros list end*
%ADD10RoundRect,0.140000X-0.170000X0.140000X-0.170000X-0.140000X0.170000X-0.140000X0.170000X0.140000X0*%
%ADD11RoundRect,0.249999X-0.395001X-0.395001X0.395001X-0.395001X0.395001X0.395001X-0.395001X0.395001X0*%
%ADD12RoundRect,0.050000X-0.387500X-0.050000X0.387500X-0.050000X0.387500X0.050000X-0.387500X0.050000X0*%
%ADD13RoundRect,0.050000X-0.050000X-0.387500X0.050000X-0.387500X0.050000X0.387500X-0.050000X0.387500X0*%
%ADD14RoundRect,0.135000X0.135000X0.185000X-0.135000X0.185000X-0.135000X-0.185000X0.135000X-0.185000X0*%
%ADD15RoundRect,0.140000X0.040237X-0.216520X0.220218X-0.002028X-0.040237X0.216520X-0.220218X0.002028X0*%
%ADD16RoundRect,0.135000X0.185000X-0.135000X0.185000X0.135000X-0.185000X0.135000X-0.185000X-0.135000X0*%
%ADD17RoundRect,0.140000X0.140000X0.170000X-0.140000X0.170000X-0.140000X-0.170000X0.140000X-0.170000X0*%
%ADD18RoundRect,0.135000X-0.135000X-0.185000X0.135000X-0.185000X0.135000X0.185000X-0.135000X0.185000X0*%
%ADD19RoundRect,0.135000X-0.185000X0.135000X-0.185000X-0.135000X0.185000X-0.135000X0.185000X0.135000X0*%
%ADD20RoundRect,0.140000X0.170000X-0.140000X0.170000X0.140000X-0.170000X0.140000X-0.170000X-0.140000X0*%
%ADD21RoundRect,0.040000X-0.040000X-0.605000X0.040000X-0.605000X0.040000X0.605000X-0.040000X0.605000X0*%
%ADD22RoundRect,0.062500X-0.387500X-0.062500X0.387500X-0.062500X0.387500X0.062500X-0.387500X0.062500X0*%
%ADD23RoundRect,0.140000X-0.219203X-0.021213X-0.021213X-0.219203X0.219203X0.021213X0.021213X0.219203X0*%
%ADD24RoundRect,0.200000X-0.800000X0.200000X-0.800000X-0.200000X0.800000X-0.200000X0.800000X0.200000X0*%
%ADD25RoundRect,0.250000X0.450000X0.350000X-0.450000X0.350000X-0.450000X-0.350000X0.450000X-0.350000X0*%
%ADD26R,0.600000X1.450000*%
%ADD27R,0.300000X1.450000*%
%ADD28RoundRect,0.140000X-0.021213X0.219203X-0.219203X0.021213X0.021213X-0.219203X0.219203X-0.021213X0*%
%ADD29RoundRect,0.150000X0.150000X-0.587500X0.150000X0.587500X-0.150000X0.587500X-0.150000X-0.587500X0*%
%ADD30RoundRect,0.140000X-0.140000X-0.170000X0.140000X-0.170000X0.140000X0.170000X-0.140000X0.170000X0*%
G04 APERTURE END LIST*
D10*
%TO.C,C16*%
X153570002Y-111430001D03*
X153569998Y-112389999D03*
%TD*%
%TO.C,C9*%
X153590000Y-109590000D03*
X153589996Y-110549998D03*
%TD*%
D11*
%TO.C,U1*%
X149200000Y-103200000D03*
X149200000Y-104800000D03*
X150800000Y-103200000D03*
X150800000Y-104800000D03*
D12*
X146562500Y-101400000D03*
X146562500Y-101800000D03*
X146562500Y-102200000D03*
X146562500Y-102600000D03*
X146562500Y-103000000D03*
X146562500Y-103400000D03*
X146562500Y-103800000D03*
X146562500Y-104200000D03*
X146562500Y-104600000D03*
X146562500Y-105000000D03*
X146562500Y-105400000D03*
X146562500Y-105800000D03*
X146562500Y-106200000D03*
X146562500Y-106600000D03*
D13*
X147400000Y-107437500D03*
X147800000Y-107437500D03*
X148200000Y-107437500D03*
X148600000Y-107437500D03*
X149000000Y-107437500D03*
X149400000Y-107437500D03*
X149800000Y-107437500D03*
X150200000Y-107437500D03*
X150600000Y-107437500D03*
X151000000Y-107437500D03*
X151400000Y-107437500D03*
X151800000Y-107437500D03*
X152200000Y-107437500D03*
X152600000Y-107437500D03*
D12*
X153437500Y-106600000D03*
X153437500Y-106200000D03*
X153437500Y-105800000D03*
X153437500Y-105400000D03*
X153437500Y-105000000D03*
X153437500Y-104600000D03*
X153437500Y-104200000D03*
X153437500Y-103800000D03*
X153437500Y-103400000D03*
X153437500Y-103000000D03*
X153437500Y-102600000D03*
X153437500Y-102200000D03*
X153437500Y-101800000D03*
X153437500Y-101400000D03*
D13*
X152600000Y-100562500D03*
X152200000Y-100562500D03*
X151800000Y-100562500D03*
X151400000Y-100562500D03*
X151000000Y-100562500D03*
X150600000Y-100562500D03*
X150200000Y-100562500D03*
X149800000Y-100562500D03*
X149400000Y-100562500D03*
X149000000Y-100562500D03*
X148600000Y-100562500D03*
X148200000Y-100562500D03*
X147800000Y-100562500D03*
X147400000Y-100562500D03*
%TD*%
D14*
%TO.C,R5*%
X151280000Y-109250000D03*
X150260000Y-109250000D03*
%TD*%
D15*
%TO.C,C17*%
X154802925Y-99255398D03*
X155420001Y-98520000D03*
%TD*%
D14*
%TO.C,R6*%
X154530000Y-89270000D03*
X153510000Y-89270000D03*
%TD*%
D16*
%TO.C,R4*%
X151400000Y-99260000D03*
X151400000Y-98240000D03*
%TD*%
D17*
%TO.C,C12*%
X145810000Y-100590002D03*
X144850000Y-100589998D03*
%TD*%
D18*
%TO.C,R7*%
X145350000Y-93960000D03*
X146370000Y-93960000D03*
%TD*%
D19*
%TO.C,R1*%
X151540000Y-82760000D03*
X151540000Y-83780000D03*
%TD*%
D20*
%TO.C,C10*%
X150309999Y-97010000D03*
X150310001Y-96050000D03*
%TD*%
D17*
%TO.C,C14*%
X148280000Y-88270002D03*
X147320000Y-88269998D03*
%TD*%
D21*
%TO.C,U3*%
X146725000Y-95680000D03*
D22*
X145300000Y-94930000D03*
X145300000Y-95430000D03*
X145300000Y-95930000D03*
X145300000Y-96430000D03*
X148150000Y-96430000D03*
X148150000Y-95930000D03*
X148150000Y-95430000D03*
X148150000Y-94930000D03*
%TD*%
D23*
%TO.C,C3*%
X155271178Y-105311180D03*
X155950000Y-105990000D03*
%TD*%
D17*
%TO.C,C5*%
X148460000Y-93969996D03*
X147500000Y-93970000D03*
%TD*%
D24*
%TO.C,SW1*%
X154049999Y-83940001D03*
X154050001Y-88139999D03*
%TD*%
D10*
%TO.C,C15*%
X147060002Y-110990001D03*
X147059998Y-111949999D03*
%TD*%
D25*
%TO.C,Y1*%
X151100002Y-110649997D03*
X148899999Y-110650002D03*
X148899998Y-112350003D03*
X151100001Y-112349998D03*
%TD*%
D17*
%TO.C,C13*%
X147360000Y-83190002D03*
X146400000Y-83189998D03*
%TD*%
D26*
%TO.C,J1*%
X153249999Y-81045002D03*
X152450001Y-81045002D03*
D27*
X151250000Y-81045000D03*
X150250002Y-81045001D03*
X149750003Y-81044998D03*
X148750000Y-81045000D03*
D26*
X147550002Y-81044999D03*
X146749995Y-81045000D03*
X146749995Y-81045000D03*
X147550002Y-81044999D03*
D27*
X148249998Y-81045002D03*
X149250001Y-81044999D03*
X150750001Y-81044999D03*
X151749997Y-81045001D03*
D26*
X152450001Y-81045002D03*
X153249999Y-81045002D03*
%TD*%
D20*
%TO.C,C11*%
X152420000Y-99310000D03*
X152420002Y-98350000D03*
%TD*%
D16*
%TO.C,R3*%
X150460000Y-99260000D03*
X150460000Y-98240000D03*
%TD*%
D20*
%TO.C,C1*%
X153530000Y-99610000D03*
X153529998Y-98650006D03*
%TD*%
%TO.C,C8*%
X151330001Y-95700000D03*
X151330003Y-94740000D03*
%TD*%
D10*
%TO.C,C4*%
X152609998Y-109610000D03*
X152610000Y-110570000D03*
%TD*%
D28*
%TO.C,C6*%
X144669412Y-105700591D03*
X143990588Y-106379409D03*
%TD*%
D20*
%TO.C,C7*%
X152370000Y-94680000D03*
X152370002Y-93720000D03*
%TD*%
D29*
%TO.C,U2*%
X146259998Y-86804990D03*
X148159999Y-86804999D03*
X147210000Y-84930000D03*
%TD*%
D30*
%TO.C,C2*%
X154510000Y-100490000D03*
X155470000Y-100490000D03*
%TD*%
D19*
%TO.C,R2*%
X148350000Y-82770000D03*
X148350000Y-83790000D03*
%TD*%
M02*
