%TF.GenerationSoftware,KiCad,Pcbnew,9.0.6*%
%TF.CreationDate,2026-01-31T02:41:39+05:30*%
%TF.ProjectId,BYH_devboard,4259485f-6465-4766-926f-6172642e6b69,rev?*%
%TF.SameCoordinates,Original*%
%TF.FileFunction,Copper,L2,Bot*%
%TF.FilePolarity,Positive*%
%FSLAX46Y46*%
G04 Gerber Fmt 4.6, Leading zero omitted, Abs format (unit mm)*
G04 Created by KiCad (PCBNEW 9.0.6) date 2026-01-31 02:41:39*
%MOMM*%
%LPD*%
G01*
G04 APERTURE LIST*
%TA.AperFunction,ComponentPad*%
%ADD10R,1.700000X1.700000*%
%TD*%
%TA.AperFunction,ComponentPad*%
%ADD11C,1.700000*%
%TD*%
%TA.AperFunction,HeatsinkPad*%
%ADD12O,1.000000X2.100000*%
%TD*%
%TA.AperFunction,HeatsinkPad*%
%ADD13O,1.000000X1.600000*%
%TD*%
%TA.AperFunction,ViaPad*%
%ADD14C,0.600000*%
%TD*%
%TA.AperFunction,Conductor*%
%ADD15C,0.200000*%
%TD*%
G04 APERTURE END LIST*
D10*
%TO.P,J2,1,Pin_1*%
%TO.N,/0*%
X141110000Y-75870000D03*
D11*
%TO.P,J2,2,Pin_2*%
%TO.N,/1*%
X141110000Y-78410000D03*
%TO.P,J2,3,Pin_3*%
%TO.N,GND*%
X141110000Y-80950000D03*
%TO.P,J2,4,Pin_4*%
%TO.N,/2*%
X141110000Y-83490000D03*
%TO.P,J2,5,Pin_5*%
%TO.N,/3*%
X141110000Y-86030000D03*
%TO.P,J2,6,Pin_6*%
%TO.N,/4*%
X141110000Y-88570000D03*
%TO.P,J2,7,Pin_7*%
%TO.N,/5*%
X141110000Y-91110000D03*
%TO.P,J2,8,Pin_8*%
%TO.N,GND*%
X141110000Y-93650000D03*
%TO.P,J2,9,Pin_9*%
%TO.N,/6*%
X141110000Y-96190000D03*
%TO.P,J2,10,Pin_10*%
%TO.N,/7*%
X141110000Y-98730000D03*
%TO.P,J2,11,Pin_11*%
%TO.N,/8*%
X141110000Y-101270000D03*
%TO.P,J2,12,Pin_12*%
%TO.N,/9*%
X141110000Y-103810000D03*
%TO.P,J2,13,Pin_13*%
%TO.N,GND*%
X141110000Y-106350000D03*
%TO.P,J2,14,Pin_14*%
%TO.N,/10*%
X141110000Y-108890000D03*
%TO.P,J2,15,Pin_15*%
%TO.N,/11*%
X141110000Y-111430000D03*
%TO.P,J2,16,Pin_16*%
%TO.N,/12*%
X141110000Y-113970000D03*
%TO.P,J2,17,Pin_17*%
%TO.N,/13*%
X141110000Y-116510000D03*
%TO.P,J2,18,Pin_18*%
%TO.N,GND*%
X141110000Y-119050000D03*
%TO.P,J2,19,Pin_19*%
%TO.N,/14*%
X141110000Y-121590000D03*
%TO.P,J2,20,Pin_20*%
%TO.N,/15*%
X141110000Y-124130000D03*
%TD*%
D10*
%TO.P,J3,1,Pin_1*%
%TO.N,VBUS*%
X158890000Y-75870000D03*
D11*
%TO.P,J3,2,Pin_2*%
%TO.N,/29*%
X158890000Y-78410000D03*
%TO.P,J3,3,Pin_3*%
%TO.N,GND*%
X158890000Y-80950000D03*
%TO.P,J3,4,Pin_4*%
%TO.N,/28*%
X158890000Y-83490000D03*
%TO.P,J3,5,Pin_5*%
%TO.N,+3V3*%
X158890000Y-86030000D03*
%TO.P,J3,6,Pin_6*%
%TO.N,/27*%
X158890000Y-88570000D03*
%TO.P,J3,7,Pin_7*%
%TO.N,/26*%
X158890000Y-91110000D03*
%TO.P,J3,8,Pin_8*%
%TO.N,GND*%
X158890000Y-93650000D03*
%TO.P,J3,9,Pin_9*%
%TO.N,/24*%
X158890000Y-96190000D03*
%TO.P,J3,10,Pin_10*%
%TO.N,/23*%
X158890000Y-98730000D03*
%TO.P,J3,11,Pin_11*%
%TO.N,/RUN*%
X158890000Y-101270000D03*
%TO.P,J3,12,Pin_12*%
%TO.N,/22*%
X158890000Y-103810000D03*
%TO.P,J3,13,Pin_13*%
%TO.N,GND*%
X158890000Y-106350000D03*
%TO.P,J3,14,Pin_14*%
%TO.N,/21*%
X158890000Y-108890000D03*
%TO.P,J3,15,Pin_15*%
%TO.N,/20*%
X158890000Y-111430000D03*
%TO.P,J3,16,Pin_16*%
%TO.N,/19*%
X158890000Y-113970000D03*
%TO.P,J3,17,Pin_17*%
%TO.N,/18*%
X158890000Y-116510000D03*
%TO.P,J3,18,Pin_18*%
%TO.N,GND*%
X158890000Y-119050000D03*
%TO.P,J3,19,Pin_19*%
%TO.N,/17*%
X158890000Y-121590000D03*
%TO.P,J3,20,Pin_20*%
%TO.N,/16*%
X158890000Y-124130000D03*
%TD*%
D10*
%TO.P,J4,1,Pin_1*%
%TO.N,/SWCLK*%
X147460000Y-123890000D03*
D11*
%TO.P,J4,2,Pin_2*%
%TO.N,GND*%
X150000001Y-123890000D03*
%TO.P,J4,3,Pin_3*%
%TO.N,/SWD*%
X152540002Y-123889999D03*
%TD*%
D12*
%TO.P,J1,S1,SHIELD*%
%TO.N,GND*%
X154320002Y-80130001D03*
D13*
X154320000Y-75950000D03*
D12*
X145680002Y-80130001D03*
D13*
X145680000Y-75950000D03*
%TD*%
D14*
%TO.N,GND*%
X154950000Y-112190000D03*
X157210000Y-106710000D03*
%TO.N,+1V1*%
X154393957Y-110318738D03*
%TO.N,/RUN*%
X152340000Y-106370000D03*
%TO.N,GND*%
X155610000Y-91390000D03*
X156470000Y-105280000D03*
%TO.N,+1V1*%
X150362785Y-97470000D03*
%TO.N,GND*%
X148240000Y-117240000D03*
X145610000Y-116160000D03*
X148630000Y-109350000D03*
X147230000Y-86370000D03*
X148320000Y-85350000D03*
X152060000Y-104970000D03*
X152040000Y-103650000D03*
X152080000Y-102630000D03*
X150230000Y-102070000D03*
X148060000Y-102430000D03*
X148050000Y-104540000D03*
X150000000Y-104000000D03*
X150000000Y-104000000D03*
X143410000Y-105490000D03*
%TO.N,+1V1*%
X151410000Y-101750000D03*
%TO.N,GND*%
X155510000Y-99760000D03*
X149670000Y-95560000D03*
X151100000Y-93730000D03*
X153105735Y-97494265D03*
X154210000Y-82630000D03*
X145420000Y-99420000D03*
%TO.N,+3V3*%
X150400000Y-100048527D03*
X154500000Y-98040000D03*
X156110000Y-88270000D03*
X152970000Y-92430000D03*
X151225735Y-96625735D03*
%TO.N,GND*%
X147254329Y-94623725D03*
X145460000Y-96812472D03*
%TO.N,/0*%
X145463897Y-101596103D03*
%TO.N,/8*%
X147497838Y-106498624D03*
%TO.N,/2*%
X144500000Y-102400000D03*
%TO.N,/1*%
X144510000Y-101490735D03*
%TO.N,/29*%
X155460000Y-101560000D03*
X156089265Y-89809265D03*
%TO.N,/SWD*%
X151097058Y-106099999D03*
%TO.N,/SWCLK*%
X150248529Y-106100000D03*
%TO.N,/SS*%
X153355984Y-90064018D03*
X145710000Y-93000000D03*
%TO.N,GND*%
X148761865Y-106511476D03*
%TD*%
D15*
%TO.N,GND*%
X157210000Y-109930000D02*
X154950000Y-112190000D01*
X157210000Y-106710000D02*
X157210000Y-109930000D01*
%TO.N,+1V1*%
X154393957Y-110318738D02*
X154393957Y-109273900D01*
X154393957Y-109273900D02*
X151739000Y-106618943D01*
X151739000Y-106618943D02*
X151739000Y-105498943D01*
X151739000Y-105498943D02*
X151410000Y-105169943D01*
X151410000Y-105169943D02*
X151410000Y-101750000D01*
%TO.N,/SWD*%
X151097058Y-106099999D02*
X149480000Y-107717057D01*
X149480000Y-120829997D02*
X152540002Y-123889999D01*
X149480000Y-107717057D02*
X149480000Y-120829997D01*
%TO.N,/SWCLK*%
X147460000Y-109090000D02*
X147460000Y-123890000D01*
X150248529Y-106100000D02*
X150248529Y-106301471D01*
X150248529Y-106301471D02*
X147460000Y-109090000D01*
%TO.N,/29*%
X156089265Y-89809265D02*
X156260000Y-89980000D01*
X156260000Y-89980000D02*
X156260000Y-100760000D01*
X156260000Y-100760000D02*
X155460000Y-101560000D01*
%TO.N,+3V3*%
X156278000Y-88270000D02*
X156489000Y-88059000D01*
X156110000Y-88270000D02*
X156278000Y-88270000D01*
X156489000Y-88059000D02*
X156489000Y-86381057D01*
X156489000Y-86381057D02*
X156840057Y-86030000D01*
X156840057Y-86030000D02*
X158890000Y-86030000D01*
%TO.N,+1V1*%
X151251530Y-101750000D02*
X151410000Y-101750000D01*
X150362785Y-97470000D02*
X149799000Y-98033785D01*
X149799000Y-98033785D02*
X149799000Y-100297470D01*
X149799000Y-100297470D02*
X151251530Y-101750000D01*
%TO.N,GND*%
X148630000Y-116850000D02*
X148240000Y-117240000D01*
X148630000Y-109350000D02*
X148630000Y-116850000D01*
%TO.N,+3V3*%
X152970000Y-92650000D02*
X152970000Y-92430000D01*
X151225735Y-96625735D02*
X151225735Y-99222793D01*
X154500000Y-98040000D02*
X152970000Y-96510000D01*
X152970000Y-96510000D02*
X152970000Y-92650000D01*
X151225735Y-99222793D02*
X150400000Y-100048527D01*
%TO.N,/0*%
X144380000Y-80710000D02*
X142261000Y-78591000D01*
X144911000Y-100453957D02*
X144380000Y-99922957D01*
X145463897Y-101596103D02*
X145111000Y-101243206D01*
X144380000Y-99922957D02*
X144380000Y-80710000D01*
X145111000Y-101241792D02*
X144911000Y-101041792D01*
X142261000Y-77021000D02*
X141110000Y-75870000D01*
X144911000Y-101041792D02*
X144911000Y-100453957D01*
X145111000Y-101243206D02*
X145111000Y-101241792D01*
X142261000Y-78591000D02*
X142261000Y-77021000D01*
%TO.N,/8*%
X147100000Y-105400000D02*
X144480000Y-105400000D01*
X147497838Y-106498624D02*
X147497838Y-105797838D01*
X141110000Y-102030000D02*
X141110000Y-101270000D01*
X144480000Y-105400000D02*
X141110000Y-102030000D01*
X147497838Y-105797838D02*
X147100000Y-105400000D01*
%TO.N,/2*%
X143909000Y-101241792D02*
X143910000Y-101240792D01*
X143910000Y-100664770D02*
X143578000Y-100332770D01*
X143910000Y-101810000D02*
X143910000Y-101740678D01*
X143909000Y-101739678D02*
X143909000Y-101241792D01*
X143910000Y-101740678D02*
X143909000Y-101739678D01*
X143578000Y-100332770D02*
X143578000Y-85958000D01*
X143910000Y-101240792D02*
X143910000Y-100664770D01*
X143578000Y-85958000D02*
X141110000Y-83490000D01*
X144500000Y-102400000D02*
X143910000Y-101810000D01*
%TO.N,/1*%
X143979000Y-81279000D02*
X141110000Y-78410000D01*
X144510000Y-100620057D02*
X143979000Y-100089057D01*
X143979000Y-100089057D02*
X143979000Y-81279000D01*
X144510000Y-101490735D02*
X144510000Y-100620057D01*
%TO.N,/SS*%
X148645982Y-90064018D02*
X145710000Y-93000000D01*
X153355984Y-90064018D02*
X148645982Y-90064018D01*
%TO.N,/RUN*%
X158890000Y-101270000D02*
X153790000Y-106370000D01*
X153790000Y-106370000D02*
X152340000Y-106370000D01*
%TD*%
%TA.AperFunction,Conductor*%
%TO.N,GND*%
G36*
X144986881Y-75020185D02*
G01*
X145032636Y-75072989D01*
X145042580Y-75142147D01*
X145022944Y-75193391D01*
X144971052Y-75271051D01*
X144971047Y-75271060D01*
X144910743Y-75416648D01*
X144910741Y-75416656D01*
X144880000Y-75571202D01*
X144880000Y-75700000D01*
X145380000Y-75700000D01*
X145380000Y-76200000D01*
X144880000Y-76200000D01*
X144880000Y-76328797D01*
X144910741Y-76483343D01*
X144910743Y-76483351D01*
X144971047Y-76628939D01*
X144971052Y-76628948D01*
X145058598Y-76759969D01*
X145058601Y-76759973D01*
X145170026Y-76871398D01*
X145170034Y-76871404D01*
X145301047Y-76958944D01*
X145301065Y-76958954D01*
X145429999Y-77012360D01*
X145430000Y-77012360D01*
X145430000Y-76416988D01*
X145439940Y-76434205D01*
X145495795Y-76490060D01*
X145564204Y-76529556D01*
X145640504Y-76550000D01*
X145719496Y-76550000D01*
X145795796Y-76529556D01*
X145864205Y-76490060D01*
X145920060Y-76434205D01*
X145930000Y-76416988D01*
X145930000Y-77012360D01*
X146058934Y-76958954D01*
X146058952Y-76958944D01*
X146189965Y-76871404D01*
X146189973Y-76871398D01*
X146301398Y-76759973D01*
X146301401Y-76759969D01*
X146388947Y-76628948D01*
X146388952Y-76628939D01*
X146449256Y-76483351D01*
X146449258Y-76483343D01*
X146479999Y-76328797D01*
X146480000Y-76328794D01*
X146480000Y-76200000D01*
X145980000Y-76200000D01*
X145980000Y-75700000D01*
X146480000Y-75700000D01*
X146480000Y-75571206D01*
X146479999Y-75571202D01*
X146449258Y-75416656D01*
X146449256Y-75416648D01*
X146388952Y-75271060D01*
X146388947Y-75271051D01*
X146337056Y-75193391D01*
X146316178Y-75126714D01*
X146334662Y-75059333D01*
X146386641Y-75012643D01*
X146440158Y-75000500D01*
X153559842Y-75000500D01*
X153626881Y-75020185D01*
X153672636Y-75072989D01*
X153682580Y-75142147D01*
X153662944Y-75193391D01*
X153611052Y-75271051D01*
X153611047Y-75271060D01*
X153550743Y-75416648D01*
X153550741Y-75416656D01*
X153520000Y-75571202D01*
X153520000Y-75700000D01*
X154020000Y-75700000D01*
X154020000Y-76200000D01*
X153520000Y-76200000D01*
X153520000Y-76328797D01*
X153550741Y-76483343D01*
X153550743Y-76483351D01*
X153611047Y-76628939D01*
X153611052Y-76628948D01*
X153698598Y-76759969D01*
X153698601Y-76759973D01*
X153810026Y-76871398D01*
X153810034Y-76871404D01*
X153941047Y-76958944D01*
X153941065Y-76958954D01*
X154069999Y-77012360D01*
X154070000Y-77012360D01*
X154070000Y-76416988D01*
X154079940Y-76434205D01*
X154135795Y-76490060D01*
X154204204Y-76529556D01*
X154280504Y-76550000D01*
X154359496Y-76550000D01*
X154435796Y-76529556D01*
X154504205Y-76490060D01*
X154560060Y-76434205D01*
X154570000Y-76416988D01*
X154570000Y-77012360D01*
X154698934Y-76958954D01*
X154698952Y-76958944D01*
X154829965Y-76871404D01*
X154829973Y-76871398D01*
X154941398Y-76759973D01*
X154941401Y-76759969D01*
X155028947Y-76628948D01*
X155028952Y-76628939D01*
X155089256Y-76483351D01*
X155089258Y-76483343D01*
X155119999Y-76328797D01*
X155120000Y-76328794D01*
X155120000Y-76200000D01*
X154620000Y-76200000D01*
X154620000Y-75700000D01*
X155120000Y-75700000D01*
X155120000Y-75571206D01*
X155119999Y-75571202D01*
X155089258Y-75416656D01*
X155089256Y-75416648D01*
X155028952Y-75271060D01*
X155028947Y-75271051D01*
X154977056Y-75193391D01*
X154956178Y-75126714D01*
X154974662Y-75059333D01*
X155026641Y-75012643D01*
X155080158Y-75000500D01*
X157615500Y-75000500D01*
X157682539Y-75020185D01*
X157728294Y-75072989D01*
X157739500Y-75124500D01*
X157739500Y-76764856D01*
X157739502Y-76764882D01*
X157742413Y-76789987D01*
X157742415Y-76789991D01*
X157787793Y-76892764D01*
X157787794Y-76892765D01*
X157867235Y-76972206D01*
X157970009Y-77017585D01*
X157995135Y-77020500D01*
X158732873Y-77020499D01*
X158799910Y-77040183D01*
X158845665Y-77092987D01*
X158855609Y-77162146D01*
X158826584Y-77225702D01*
X158767806Y-77263476D01*
X158752270Y-77266972D01*
X158620589Y-77287829D01*
X158448363Y-77343787D01*
X158448360Y-77343788D01*
X158287002Y-77426006D01*
X158140505Y-77532441D01*
X158140500Y-77532445D01*
X158012445Y-77660500D01*
X158012441Y-77660505D01*
X157906006Y-77807002D01*
X157823788Y-77968360D01*
X157823787Y-77968363D01*
X157767829Y-78140589D01*
X157739500Y-78319448D01*
X157739500Y-78500551D01*
X157767829Y-78679410D01*
X157823787Y-78851636D01*
X157823788Y-78851639D01*
X157906006Y-79012997D01*
X158012441Y-79159494D01*
X158012445Y-79159499D01*
X158140500Y-79287554D01*
X158140505Y-79287558D01*
X158212605Y-79339941D01*
X158287006Y-79393996D01*
X158392484Y-79447740D01*
X158448360Y-79476211D01*
X158448363Y-79476212D01*
X158525280Y-79501203D01*
X158620591Y-79532171D01*
X158740038Y-79551089D01*
X158782279Y-79557780D01*
X158845414Y-79587709D01*
X158882345Y-79647021D01*
X158881347Y-79716883D01*
X158842737Y-79775116D01*
X158782279Y-79802726D01*
X158620706Y-79828317D01*
X158448555Y-79884251D01*
X158448547Y-79884254D01*
X158287269Y-79966432D01*
X158271466Y-79977912D01*
X158271466Y-79977913D01*
X158760591Y-80467037D01*
X158697007Y-80484075D01*
X158582993Y-80549901D01*
X158489901Y-80642993D01*
X158424075Y-80757007D01*
X158407037Y-80820590D01*
X157917913Y-80331466D01*
X157917912Y-80331466D01*
X157906432Y-80347269D01*
X157824254Y-80508547D01*
X157824251Y-80508555D01*
X157768317Y-80680706D01*
X157740000Y-80859493D01*
X157740000Y-81040506D01*
X157768317Y-81219293D01*
X157824251Y-81391444D01*
X157824252Y-81391447D01*
X157906431Y-81552730D01*
X157917913Y-81568532D01*
X157917913Y-81568533D01*
X158407037Y-81079409D01*
X158424075Y-81142993D01*
X158489901Y-81257007D01*
X158582993Y-81350099D01*
X158697007Y-81415925D01*
X158760590Y-81432962D01*
X158271466Y-81922085D01*
X158271466Y-81922086D01*
X158287267Y-81933566D01*
X158287275Y-81933571D01*
X158448552Y-82015747D01*
X158448555Y-82015748D01*
X158620706Y-82071682D01*
X158782279Y-82097273D01*
X158845413Y-82127202D01*
X158882345Y-82186513D01*
X158881347Y-82256376D01*
X158842738Y-82314609D01*
X158782280Y-82342219D01*
X158620589Y-82367829D01*
X158448363Y-82423787D01*
X158448360Y-82423788D01*
X158287002Y-82506006D01*
X158140505Y-82612441D01*
X158140500Y-82612445D01*
X158012445Y-82740500D01*
X158012441Y-82740505D01*
X157906006Y-82887002D01*
X157823788Y-83048360D01*
X157823787Y-83048363D01*
X157767829Y-83220589D01*
X157739500Y-83399448D01*
X157739500Y-83580551D01*
X157767829Y-83759410D01*
X157823787Y-83931636D01*
X157823788Y-83931639D01*
X157906006Y-84092997D01*
X158012441Y-84239494D01*
X158012445Y-84239499D01*
X158140500Y-84367554D01*
X158140505Y-84367558D01*
X158268287Y-84460396D01*
X158287006Y-84473996D01*
X158392484Y-84527740D01*
X158448360Y-84556211D01*
X158448363Y-84556212D01*
X158534476Y-84584191D01*
X158620591Y-84612171D01*
X158693639Y-84623740D01*
X158780678Y-84637527D01*
X158843813Y-84667456D01*
X158880744Y-84726768D01*
X158879746Y-84796631D01*
X158841136Y-84854863D01*
X158780678Y-84882473D01*
X158620589Y-84907829D01*
X158448363Y-84963787D01*
X158448360Y-84963788D01*
X158287002Y-85046006D01*
X158140505Y-85152441D01*
X158140500Y-85152445D01*
X158012445Y-85280500D01*
X158012441Y-85280505D01*
X157906006Y-85427002D01*
X157837325Y-85561795D01*
X157789350Y-85612591D01*
X157726840Y-85629500D01*
X156900396Y-85629500D01*
X156900380Y-85629499D01*
X156892784Y-85629499D01*
X156787330Y-85629499D01*
X156719423Y-85647695D01*
X156685469Y-85656793D01*
X156632742Y-85687235D01*
X156594144Y-85709520D01*
X156526646Y-85777018D01*
X156526645Y-85777017D01*
X156526643Y-85777020D01*
X156168522Y-86135141D01*
X156168518Y-86135147D01*
X156115792Y-86226469D01*
X156115793Y-86226470D01*
X156088500Y-86328330D01*
X156088500Y-87558929D01*
X156068815Y-87625968D01*
X156016011Y-87671723D01*
X155996596Y-87678703D01*
X155961006Y-87688239D01*
X155878214Y-87710423D01*
X155878209Y-87710426D01*
X155741290Y-87789475D01*
X155741282Y-87789481D01*
X155629481Y-87901282D01*
X155629475Y-87901290D01*
X155550426Y-88038209D01*
X155550423Y-88038216D01*
X155509500Y-88190943D01*
X155509500Y-88349057D01*
X155529572Y-88423964D01*
X155550423Y-88501783D01*
X155550426Y-88501790D01*
X155629475Y-88638709D01*
X155629479Y-88638714D01*
X155629480Y-88638716D01*
X155741284Y-88750520D01*
X155741286Y-88750521D01*
X155741290Y-88750524D01*
X155878209Y-88829573D01*
X155878216Y-88829577D01*
X156030943Y-88870500D01*
X156030945Y-88870500D01*
X156189055Y-88870500D01*
X156189057Y-88870500D01*
X156341784Y-88829577D01*
X156478716Y-88750520D01*
X156590520Y-88638716D01*
X156669577Y-88501784D01*
X156681828Y-88456057D01*
X156713923Y-88400469D01*
X156809477Y-88304916D01*
X156809477Y-88304915D01*
X156809480Y-88304913D01*
X156862207Y-88213588D01*
X156889500Y-88111727D01*
X156889500Y-88006273D01*
X156889500Y-86598311D01*
X156898144Y-86568870D01*
X156904668Y-86538884D01*
X156908422Y-86533868D01*
X156909185Y-86531272D01*
X156925819Y-86510630D01*
X156969630Y-86466819D01*
X157030953Y-86433334D01*
X157057311Y-86430500D01*
X157726840Y-86430500D01*
X157793879Y-86450185D01*
X157837325Y-86498205D01*
X157906006Y-86632997D01*
X158012441Y-86779494D01*
X158012445Y-86779499D01*
X158140500Y-86907554D01*
X158140505Y-86907558D01*
X158268287Y-87000396D01*
X158287006Y-87013996D01*
X158392484Y-87067740D01*
X158448360Y-87096211D01*
X158448363Y-87096212D01*
X158534476Y-87124191D01*
X158620591Y-87152171D01*
X158693639Y-87163740D01*
X158780678Y-87177527D01*
X158843813Y-87207456D01*
X158880744Y-87266768D01*
X158879746Y-87336631D01*
X158841136Y-87394863D01*
X158780678Y-87422473D01*
X158620589Y-87447829D01*
X158448363Y-87503787D01*
X158448360Y-87503788D01*
X158287002Y-87586006D01*
X158140505Y-87692441D01*
X158140500Y-87692445D01*
X158012445Y-87820500D01*
X158012441Y-87820505D01*
X157906006Y-87967002D01*
X157823788Y-88128360D01*
X157823787Y-88128363D01*
X157767829Y-88300589D01*
X157739500Y-88479448D01*
X157739500Y-88660551D01*
X157767829Y-88839410D01*
X157823787Y-89011636D01*
X157823788Y-89011639D01*
X157906006Y-89172997D01*
X158012441Y-89319494D01*
X158012445Y-89319499D01*
X158140500Y-89447554D01*
X158140505Y-89447558D01*
X158218799Y-89504441D01*
X158287006Y-89553996D01*
X158344907Y-89583498D01*
X158448360Y-89636211D01*
X158448363Y-89636212D01*
X158523682Y-89660684D01*
X158620591Y-89692171D01*
X158693639Y-89703740D01*
X158780678Y-89717527D01*
X158843813Y-89747456D01*
X158880744Y-89806768D01*
X158879746Y-89876631D01*
X158841136Y-89934863D01*
X158780678Y-89962473D01*
X158620589Y-89987829D01*
X158448363Y-90043787D01*
X158448360Y-90043788D01*
X158287002Y-90126006D01*
X158140505Y-90232441D01*
X158140500Y-90232445D01*
X158012445Y-90360500D01*
X158012441Y-90360505D01*
X157906006Y-90507002D01*
X157823788Y-90668360D01*
X157823787Y-90668363D01*
X157767829Y-90840589D01*
X157739500Y-91019448D01*
X157739500Y-91200551D01*
X157767829Y-91379410D01*
X157823787Y-91551636D01*
X157823788Y-91551639D01*
X157906006Y-91712997D01*
X158012441Y-91859494D01*
X158012445Y-91859499D01*
X158140500Y-91987554D01*
X158140505Y-91987558D01*
X158241990Y-92061290D01*
X158287006Y-92093996D01*
X158392484Y-92147740D01*
X158448360Y-92176211D01*
X158448363Y-92176212D01*
X158534476Y-92204191D01*
X158620591Y-92232171D01*
X158740038Y-92251089D01*
X158782279Y-92257780D01*
X158845414Y-92287709D01*
X158882345Y-92347021D01*
X158881347Y-92416883D01*
X158842737Y-92475116D01*
X158782279Y-92502726D01*
X158620706Y-92528317D01*
X158448555Y-92584251D01*
X158448547Y-92584254D01*
X158287269Y-92666432D01*
X158271466Y-92677912D01*
X158271466Y-92677913D01*
X158760591Y-93167037D01*
X158697007Y-93184075D01*
X158582993Y-93249901D01*
X158489901Y-93342993D01*
X158424075Y-93457007D01*
X158407037Y-93520590D01*
X157917913Y-93031466D01*
X157917912Y-93031466D01*
X157906432Y-93047269D01*
X157824254Y-93208547D01*
X157824251Y-93208555D01*
X157768317Y-93380706D01*
X157740000Y-93559493D01*
X157740000Y-93740506D01*
X157768317Y-93919293D01*
X157824251Y-94091444D01*
X157824252Y-94091447D01*
X157906431Y-94252730D01*
X157917913Y-94268532D01*
X157917913Y-94268533D01*
X158407037Y-93779409D01*
X158424075Y-93842993D01*
X158489901Y-93957007D01*
X158582993Y-94050099D01*
X158697007Y-94115925D01*
X158760590Y-94132962D01*
X158271466Y-94622085D01*
X158271466Y-94622086D01*
X158287267Y-94633566D01*
X158287275Y-94633571D01*
X158448552Y-94715747D01*
X158448555Y-94715748D01*
X158620706Y-94771682D01*
X158782279Y-94797273D01*
X158845413Y-94827202D01*
X158882345Y-94886513D01*
X158881347Y-94956376D01*
X158842738Y-95014609D01*
X158782280Y-95042219D01*
X158620589Y-95067829D01*
X158448363Y-95123787D01*
X158448360Y-95123788D01*
X158287002Y-95206006D01*
X158140505Y-95312441D01*
X158140500Y-95312445D01*
X158012445Y-95440500D01*
X158012441Y-95440505D01*
X157906006Y-95587002D01*
X157823788Y-95748360D01*
X157823787Y-95748363D01*
X157767829Y-95920589D01*
X157739500Y-96099448D01*
X157739500Y-96280551D01*
X157767829Y-96459410D01*
X157823787Y-96631636D01*
X157823788Y-96631639D01*
X157906006Y-96792997D01*
X158012441Y-96939494D01*
X158012445Y-96939499D01*
X158140500Y-97067554D01*
X158140505Y-97067558D01*
X158186934Y-97101290D01*
X158287006Y-97173996D01*
X158392484Y-97227740D01*
X158448360Y-97256211D01*
X158448363Y-97256212D01*
X158534476Y-97284191D01*
X158620591Y-97312171D01*
X158693639Y-97323740D01*
X158780678Y-97337527D01*
X158843813Y-97367456D01*
X158880744Y-97426768D01*
X158879746Y-97496631D01*
X158841136Y-97554863D01*
X158780678Y-97582473D01*
X158620589Y-97607829D01*
X158448363Y-97663787D01*
X158448360Y-97663788D01*
X158287002Y-97746006D01*
X158140505Y-97852441D01*
X158140500Y-97852445D01*
X158012445Y-97980500D01*
X158012441Y-97980505D01*
X157906006Y-98127002D01*
X157823788Y-98288360D01*
X157823787Y-98288363D01*
X157767829Y-98460589D01*
X157739500Y-98639448D01*
X157739500Y-98820551D01*
X157767829Y-98999410D01*
X157823787Y-99171636D01*
X157823788Y-99171639D01*
X157906006Y-99332997D01*
X158012441Y-99479494D01*
X158012445Y-99479499D01*
X158140500Y-99607554D01*
X158140505Y-99607558D01*
X158268287Y-99700396D01*
X158287006Y-99713996D01*
X158392484Y-99767740D01*
X158448360Y-99796211D01*
X158448363Y-99796212D01*
X158534476Y-99824191D01*
X158620591Y-99852171D01*
X158693639Y-99863740D01*
X158780678Y-99877527D01*
X158843813Y-99907456D01*
X158880744Y-99966768D01*
X158879746Y-100036631D01*
X158841136Y-100094863D01*
X158780678Y-100122473D01*
X158620589Y-100147829D01*
X158448363Y-100203787D01*
X158448360Y-100203788D01*
X158287002Y-100286006D01*
X158140505Y-100392441D01*
X158140500Y-100392445D01*
X158012445Y-100520500D01*
X158012441Y-100520505D01*
X157906006Y-100667002D01*
X157823788Y-100828360D01*
X157823787Y-100828363D01*
X157767829Y-101000589D01*
X157739500Y-101179448D01*
X157739500Y-101360551D01*
X157767829Y-101539410D01*
X157814575Y-101683281D01*
X157816570Y-101753122D01*
X157784325Y-101809280D01*
X153660426Y-105933181D01*
X153599103Y-105966666D01*
X153572745Y-105969500D01*
X152840098Y-105969500D01*
X152773059Y-105949815D01*
X152752417Y-105933181D01*
X152708717Y-105889481D01*
X152708709Y-105889475D01*
X152571790Y-105810426D01*
X152571786Y-105810424D01*
X152571784Y-105810423D01*
X152419057Y-105769500D01*
X152263500Y-105769500D01*
X152196461Y-105749815D01*
X152150706Y-105697011D01*
X152139500Y-105645500D01*
X152139500Y-105446218D01*
X152139500Y-105446216D01*
X152112207Y-105344356D01*
X152112207Y-105344355D01*
X152059480Y-105253030D01*
X151846819Y-105040369D01*
X151813334Y-104979046D01*
X151810500Y-104952688D01*
X151810500Y-102250098D01*
X151830185Y-102183059D01*
X151846819Y-102162417D01*
X151861683Y-102147553D01*
X151890520Y-102118716D01*
X151969577Y-101981784D01*
X152010500Y-101829057D01*
X152010500Y-101670943D01*
X151969577Y-101518216D01*
X151969576Y-101518214D01*
X151969575Y-101518211D01*
X151948058Y-101480943D01*
X154859500Y-101480943D01*
X154859500Y-101639057D01*
X154889276Y-101750180D01*
X154900423Y-101791783D01*
X154900426Y-101791790D01*
X154979475Y-101928709D01*
X154979479Y-101928714D01*
X154979480Y-101928716D01*
X155091284Y-102040520D01*
X155091286Y-102040521D01*
X155091290Y-102040524D01*
X155226725Y-102118716D01*
X155228216Y-102119577D01*
X155380943Y-102160500D01*
X155380945Y-102160500D01*
X155539055Y-102160500D01*
X155539057Y-102160500D01*
X155691784Y-102119577D01*
X155828716Y-102040520D01*
X155940520Y-101928716D01*
X156019577Y-101791784D01*
X156060500Y-101639057D01*
X156060500Y-101577255D01*
X156080185Y-101510216D01*
X156096819Y-101489574D01*
X156316918Y-101269475D01*
X156580480Y-101005913D01*
X156633207Y-100914588D01*
X156660500Y-100812727D01*
X156660500Y-100707273D01*
X156660500Y-90032730D01*
X156660501Y-90032727D01*
X156660501Y-90013853D01*
X156664726Y-89981768D01*
X156669896Y-89962473D01*
X156689765Y-89888322D01*
X156689765Y-89730208D01*
X156648842Y-89577481D01*
X156635281Y-89553993D01*
X156569789Y-89440555D01*
X156569783Y-89440547D01*
X156457982Y-89328746D01*
X156457974Y-89328740D01*
X156321055Y-89249691D01*
X156321051Y-89249689D01*
X156321049Y-89249688D01*
X156168322Y-89208765D01*
X156010208Y-89208765D01*
X155857481Y-89249688D01*
X155857474Y-89249691D01*
X155720555Y-89328740D01*
X155720547Y-89328746D01*
X155608746Y-89440547D01*
X155608740Y-89440555D01*
X155529691Y-89577474D01*
X155529688Y-89577481D01*
X155488765Y-89730208D01*
X155488765Y-89888322D01*
X155514660Y-89984961D01*
X155529688Y-90041048D01*
X155529691Y-90041055D01*
X155608740Y-90177974D01*
X155608744Y-90177979D01*
X155608745Y-90177981D01*
X155720549Y-90289785D01*
X155797500Y-90334212D01*
X155845715Y-90384778D01*
X155859500Y-90441599D01*
X155859500Y-100542745D01*
X155839815Y-100609784D01*
X155823181Y-100630426D01*
X155530426Y-100923181D01*
X155469103Y-100956666D01*
X155442745Y-100959500D01*
X155380943Y-100959500D01*
X155228216Y-101000423D01*
X155228209Y-101000426D01*
X155091290Y-101079475D01*
X155091282Y-101079481D01*
X154979481Y-101191282D01*
X154979475Y-101191290D01*
X154900426Y-101328209D01*
X154900423Y-101328216D01*
X154859500Y-101480943D01*
X151948058Y-101480943D01*
X151890524Y-101381290D01*
X151890518Y-101381282D01*
X151778717Y-101269481D01*
X151778709Y-101269475D01*
X151641790Y-101190426D01*
X151641786Y-101190424D01*
X151641784Y-101190423D01*
X151489057Y-101149500D01*
X151330943Y-101149500D01*
X151330941Y-101149500D01*
X151316772Y-101153297D01*
X151310561Y-101154960D01*
X151240712Y-101153297D01*
X151190789Y-101122867D01*
X150770523Y-100702601D01*
X150737038Y-100641278D01*
X150742022Y-100571586D01*
X150770519Y-100527243D01*
X150880520Y-100417243D01*
X150959577Y-100280311D01*
X151000500Y-100127584D01*
X151000500Y-100065781D01*
X151020185Y-99998742D01*
X151036819Y-99978100D01*
X151137393Y-99877527D01*
X151546215Y-99468706D01*
X151598942Y-99377381D01*
X151626235Y-99275520D01*
X151626235Y-99170066D01*
X151626235Y-97125833D01*
X151645920Y-97058794D01*
X151662554Y-97038152D01*
X151706255Y-96994451D01*
X151785312Y-96857519D01*
X151826235Y-96704792D01*
X151826235Y-96546678D01*
X151785312Y-96393951D01*
X151742099Y-96319103D01*
X151706259Y-96257025D01*
X151706253Y-96257017D01*
X151594452Y-96145216D01*
X151594444Y-96145210D01*
X151457525Y-96066161D01*
X151457521Y-96066159D01*
X151457519Y-96066158D01*
X151304792Y-96025235D01*
X151146678Y-96025235D01*
X150993951Y-96066158D01*
X150993944Y-96066161D01*
X150857025Y-96145210D01*
X150857017Y-96145216D01*
X150745216Y-96257017D01*
X150745210Y-96257025D01*
X150666161Y-96393944D01*
X150666158Y-96393951D01*
X150625235Y-96546678D01*
X150625235Y-96704793D01*
X150631380Y-96727727D01*
X150629716Y-96797577D01*
X150590553Y-96855439D01*
X150526324Y-96882942D01*
X150479513Y-96879594D01*
X150441842Y-96869500D01*
X150283728Y-96869500D01*
X150131001Y-96910423D01*
X150130994Y-96910426D01*
X149994075Y-96989475D01*
X149994067Y-96989481D01*
X149882266Y-97101282D01*
X149882260Y-97101290D01*
X149803211Y-97238209D01*
X149803208Y-97238216D01*
X149762285Y-97390943D01*
X149762285Y-97452745D01*
X149742600Y-97519784D01*
X149725966Y-97540426D01*
X149478522Y-97787869D01*
X149478520Y-97787872D01*
X149425794Y-97879195D01*
X149404072Y-97960259D01*
X149404072Y-97960263D01*
X149398500Y-97981058D01*
X149398500Y-97981060D01*
X149398500Y-100350196D01*
X149425793Y-100452059D01*
X149445504Y-100486199D01*
X149478520Y-100543383D01*
X149478521Y-100543384D01*
X149478522Y-100543385D01*
X150802587Y-101867449D01*
X150834680Y-101923035D01*
X150850421Y-101981779D01*
X150850426Y-101981790D01*
X150929475Y-102118709D01*
X150929481Y-102118717D01*
X150973181Y-102162417D01*
X151006666Y-102223740D01*
X151009500Y-102250098D01*
X151009500Y-105117216D01*
X151009500Y-105222670D01*
X151036793Y-105324531D01*
X151040958Y-105331745D01*
X151057432Y-105399644D01*
X151034581Y-105465672D01*
X150979661Y-105508864D01*
X150965666Y-105513522D01*
X150865273Y-105540422D01*
X150734791Y-105615755D01*
X150666891Y-105632226D01*
X150610793Y-105615755D01*
X150480313Y-105540423D01*
X150480309Y-105540422D01*
X150327586Y-105499500D01*
X150169472Y-105499500D01*
X150016745Y-105540423D01*
X150016738Y-105540426D01*
X149879819Y-105619475D01*
X149879811Y-105619481D01*
X149768010Y-105731282D01*
X149768004Y-105731290D01*
X149688955Y-105868209D01*
X149688952Y-105868216D01*
X149648029Y-106020943D01*
X149648029Y-106179058D01*
X149662576Y-106233350D01*
X149660913Y-106303200D01*
X149630482Y-106353123D01*
X147139522Y-108844084D01*
X147139518Y-108844090D01*
X147086792Y-108935412D01*
X147086793Y-108935413D01*
X147059500Y-109037273D01*
X147059500Y-122615500D01*
X147039815Y-122682539D01*
X146987011Y-122728294D01*
X146935500Y-122739500D01*
X146565143Y-122739500D01*
X146565117Y-122739502D01*
X146540012Y-122742413D01*
X146540008Y-122742415D01*
X146437235Y-122787793D01*
X146357794Y-122867234D01*
X146312415Y-122970006D01*
X146312415Y-122970008D01*
X146309500Y-122995131D01*
X146309500Y-124784856D01*
X146309502Y-124784882D01*
X146312413Y-124809986D01*
X146312414Y-124809990D01*
X146312415Y-124809991D01*
X146319225Y-124825414D01*
X146328297Y-124894690D01*
X146298475Y-124957876D01*
X146239226Y-124994907D01*
X146205791Y-124999500D01*
X142143733Y-124999500D01*
X142076694Y-124979815D01*
X142030939Y-124927011D01*
X142020995Y-124857853D01*
X142043414Y-124802615D01*
X142068888Y-124767552D01*
X142093996Y-124732994D01*
X142176211Y-124571639D01*
X142232171Y-124399409D01*
X142249484Y-124290099D01*
X142260500Y-124220551D01*
X142260500Y-124039448D01*
X142241768Y-123921183D01*
X142232171Y-123860591D01*
X142191716Y-123736080D01*
X142176212Y-123688363D01*
X142176211Y-123688360D01*
X142122523Y-123582993D01*
X142093996Y-123527006D01*
X142057458Y-123476715D01*
X141987558Y-123380505D01*
X141987554Y-123380500D01*
X141859499Y-123252445D01*
X141859494Y-123252441D01*
X141712997Y-123146006D01*
X141712996Y-123146005D01*
X141712994Y-123146004D01*
X141661300Y-123119664D01*
X141551639Y-123063788D01*
X141551636Y-123063787D01*
X141379410Y-123007829D01*
X141219321Y-122982473D01*
X141156186Y-122952544D01*
X141119255Y-122893232D01*
X141120253Y-122823370D01*
X141158863Y-122765137D01*
X141219321Y-122737527D01*
X141289425Y-122726422D01*
X141379409Y-122712171D01*
X141551639Y-122656211D01*
X141712994Y-122573996D01*
X141859501Y-122467553D01*
X141987553Y-122339501D01*
X142093996Y-122192994D01*
X142176211Y-122031639D01*
X142232171Y-121859409D01*
X142246765Y-121767259D01*
X142260500Y-121680551D01*
X142260500Y-121499448D01*
X142244019Y-121395397D01*
X142232171Y-121320591D01*
X142176211Y-121148361D01*
X142176211Y-121148360D01*
X142139295Y-121075910D01*
X142093996Y-120987006D01*
X142031401Y-120900851D01*
X141987558Y-120840505D01*
X141987554Y-120840500D01*
X141859499Y-120712445D01*
X141859494Y-120712441D01*
X141712997Y-120606006D01*
X141712996Y-120606005D01*
X141712994Y-120606004D01*
X141661300Y-120579664D01*
X141551639Y-120523788D01*
X141551636Y-120523787D01*
X141379410Y-120467828D01*
X141217720Y-120442219D01*
X141154585Y-120412289D01*
X141117654Y-120352978D01*
X141118652Y-120283115D01*
X141157262Y-120224883D01*
X141217721Y-120197273D01*
X141379292Y-120171683D01*
X141551444Y-120115748D01*
X141551452Y-120115745D01*
X141712730Y-120033568D01*
X141728532Y-120022085D01*
X141728533Y-120022085D01*
X141239410Y-119532962D01*
X141302993Y-119515925D01*
X141417007Y-119450099D01*
X141510099Y-119357007D01*
X141575925Y-119242993D01*
X141592962Y-119179410D01*
X142082085Y-119668533D01*
X142082085Y-119668532D01*
X142093568Y-119652730D01*
X142175745Y-119491452D01*
X142175748Y-119491444D01*
X142231682Y-119319293D01*
X142260000Y-119140506D01*
X142260000Y-118959493D01*
X142231682Y-118780706D01*
X142175748Y-118608555D01*
X142175747Y-118608552D01*
X142093571Y-118447275D01*
X142093566Y-118447267D01*
X142082085Y-118431466D01*
X141592962Y-118920589D01*
X141575925Y-118857007D01*
X141510099Y-118742993D01*
X141417007Y-118649901D01*
X141302993Y-118584075D01*
X141239409Y-118567037D01*
X141728533Y-118077913D01*
X141712730Y-118066431D01*
X141551447Y-117984252D01*
X141551444Y-117984251D01*
X141379293Y-117928317D01*
X141217720Y-117902726D01*
X141154585Y-117872797D01*
X141117654Y-117813485D01*
X141118652Y-117743623D01*
X141157262Y-117685390D01*
X141217720Y-117657780D01*
X141232270Y-117655475D01*
X141379409Y-117632171D01*
X141551639Y-117576211D01*
X141712994Y-117493996D01*
X141859501Y-117387553D01*
X141987553Y-117259501D01*
X142093996Y-117112994D01*
X142176211Y-116951639D01*
X142232171Y-116779409D01*
X142246765Y-116687259D01*
X142260500Y-116600551D01*
X142260500Y-116419448D01*
X142244019Y-116315397D01*
X142232171Y-116240591D01*
X142176211Y-116068361D01*
X142176211Y-116068360D01*
X142147740Y-116012484D01*
X142093996Y-115907006D01*
X142031401Y-115820851D01*
X141987558Y-115760505D01*
X141987554Y-115760500D01*
X141859499Y-115632445D01*
X141859494Y-115632441D01*
X141712997Y-115526006D01*
X141712996Y-115526005D01*
X141712994Y-115526004D01*
X141661300Y-115499664D01*
X141551639Y-115443788D01*
X141551636Y-115443787D01*
X141379410Y-115387829D01*
X141219321Y-115362473D01*
X141156186Y-115332544D01*
X141119255Y-115273232D01*
X141120253Y-115203370D01*
X141158863Y-115145137D01*
X141219321Y-115117527D01*
X141289425Y-115106422D01*
X141379409Y-115092171D01*
X141551639Y-115036211D01*
X141712994Y-114953996D01*
X141859501Y-114847553D01*
X141987553Y-114719501D01*
X142093996Y-114572994D01*
X142176211Y-114411639D01*
X142232171Y-114239409D01*
X142246765Y-114147259D01*
X142260500Y-114060551D01*
X142260500Y-113879448D01*
X142244019Y-113775397D01*
X142232171Y-113700591D01*
X142176211Y-113528361D01*
X142176211Y-113528360D01*
X142147740Y-113472484D01*
X142093996Y-113367006D01*
X142031401Y-113280851D01*
X141987558Y-113220505D01*
X141987554Y-113220500D01*
X141859499Y-113092445D01*
X141859494Y-113092441D01*
X141712997Y-112986006D01*
X141712996Y-112986005D01*
X141712994Y-112986004D01*
X141661300Y-112959664D01*
X141551639Y-112903788D01*
X141551636Y-112903787D01*
X141379410Y-112847829D01*
X141219321Y-112822473D01*
X141156186Y-112792544D01*
X141119255Y-112733232D01*
X141120253Y-112663370D01*
X141158863Y-112605137D01*
X141219321Y-112577527D01*
X141289425Y-112566422D01*
X141379409Y-112552171D01*
X141551639Y-112496211D01*
X141712994Y-112413996D01*
X141859501Y-112307553D01*
X141987553Y-112179501D01*
X142093996Y-112032994D01*
X142176211Y-111871639D01*
X142232171Y-111699409D01*
X142246765Y-111607259D01*
X142260500Y-111520551D01*
X142260500Y-111339448D01*
X142244019Y-111235397D01*
X142232171Y-111160591D01*
X142176211Y-110988361D01*
X142176211Y-110988360D01*
X142120139Y-110878315D01*
X142093996Y-110827006D01*
X142031401Y-110740851D01*
X141987558Y-110680505D01*
X141987554Y-110680500D01*
X141859499Y-110552445D01*
X141859494Y-110552441D01*
X141712997Y-110446006D01*
X141712996Y-110446005D01*
X141712994Y-110446004D01*
X141661300Y-110419664D01*
X141551639Y-110363788D01*
X141551636Y-110363787D01*
X141379410Y-110307829D01*
X141219321Y-110282473D01*
X141156186Y-110252544D01*
X141119255Y-110193232D01*
X141120253Y-110123370D01*
X141158863Y-110065137D01*
X141219321Y-110037527D01*
X141289425Y-110026422D01*
X141379409Y-110012171D01*
X141551639Y-109956211D01*
X141712994Y-109873996D01*
X141859501Y-109767553D01*
X141987553Y-109639501D01*
X142093996Y-109492994D01*
X142176211Y-109331639D01*
X142232171Y-109159409D01*
X142246765Y-109067259D01*
X142260500Y-108980551D01*
X142260500Y-108799448D01*
X142244019Y-108695397D01*
X142232171Y-108620591D01*
X142176211Y-108448361D01*
X142176211Y-108448360D01*
X142119089Y-108336254D01*
X142093996Y-108287006D01*
X142080396Y-108268287D01*
X141987558Y-108140505D01*
X141987554Y-108140500D01*
X141859499Y-108012445D01*
X141859494Y-108012441D01*
X141712997Y-107906006D01*
X141712996Y-107906005D01*
X141712994Y-107906004D01*
X141636981Y-107867273D01*
X141551639Y-107823788D01*
X141551636Y-107823787D01*
X141379410Y-107767828D01*
X141217720Y-107742219D01*
X141154585Y-107712289D01*
X141117654Y-107652978D01*
X141118652Y-107583115D01*
X141157262Y-107524883D01*
X141217721Y-107497273D01*
X141379292Y-107471683D01*
X141551444Y-107415748D01*
X141551452Y-107415745D01*
X141712730Y-107333568D01*
X141728532Y-107322085D01*
X141728533Y-107322085D01*
X141239410Y-106832962D01*
X141302993Y-106815925D01*
X141417007Y-106750099D01*
X141510099Y-106657007D01*
X141575925Y-106542993D01*
X141592962Y-106479410D01*
X142082085Y-106968533D01*
X142082085Y-106968532D01*
X142093568Y-106952730D01*
X142175745Y-106791452D01*
X142175748Y-106791444D01*
X142231682Y-106619293D01*
X142260000Y-106440506D01*
X142260000Y-106259493D01*
X142231682Y-106080706D01*
X142175748Y-105908555D01*
X142175747Y-105908552D01*
X142093571Y-105747275D01*
X142093566Y-105747267D01*
X142082085Y-105731466D01*
X141592962Y-106220589D01*
X141575925Y-106157007D01*
X141510099Y-106042993D01*
X141417007Y-105949901D01*
X141302993Y-105884075D01*
X141239409Y-105867037D01*
X141728533Y-105377913D01*
X141712730Y-105366431D01*
X141551447Y-105284252D01*
X141551444Y-105284251D01*
X141379293Y-105228317D01*
X141217720Y-105202726D01*
X141154585Y-105172797D01*
X141117654Y-105113485D01*
X141118652Y-105043623D01*
X141157262Y-104985390D01*
X141217720Y-104957780D01*
X141249869Y-104952688D01*
X141379409Y-104932171D01*
X141551639Y-104876211D01*
X141712994Y-104793996D01*
X141859501Y-104687553D01*
X141987553Y-104559501D01*
X142093996Y-104412994D01*
X142176211Y-104251639D01*
X142232171Y-104079409D01*
X142243439Y-104008268D01*
X142273368Y-103945133D01*
X142332680Y-103908202D01*
X142402543Y-103909200D01*
X142453593Y-103939985D01*
X144155179Y-105641571D01*
X144155189Y-105641582D01*
X144159519Y-105645912D01*
X144159520Y-105645913D01*
X144234087Y-105720480D01*
X144234089Y-105720481D01*
X144234090Y-105720482D01*
X144318991Y-105769500D01*
X144318992Y-105769500D01*
X144325413Y-105773207D01*
X144427273Y-105800501D01*
X144427275Y-105800501D01*
X144540323Y-105800501D01*
X144540339Y-105800500D01*
X146882745Y-105800500D01*
X146912185Y-105809144D01*
X146942172Y-105815668D01*
X146947187Y-105819422D01*
X146949784Y-105820185D01*
X146970426Y-105836819D01*
X147052735Y-105919128D01*
X147086220Y-105980451D01*
X147081236Y-106050143D01*
X147052736Y-106094489D01*
X147017319Y-106129906D01*
X147017313Y-106129914D01*
X146938264Y-106266833D01*
X146938261Y-106266840D01*
X146897338Y-106419567D01*
X146897338Y-106577681D01*
X146936882Y-106725259D01*
X146938261Y-106730407D01*
X146938264Y-106730414D01*
X147017313Y-106867333D01*
X147017317Y-106867338D01*
X147017318Y-106867340D01*
X147129122Y-106979144D01*
X147129124Y-106979145D01*
X147129128Y-106979148D01*
X147266047Y-107058197D01*
X147266054Y-107058201D01*
X147418781Y-107099124D01*
X147418783Y-107099124D01*
X147576893Y-107099124D01*
X147576895Y-107099124D01*
X147729622Y-107058201D01*
X147866554Y-106979144D01*
X147978358Y-106867340D01*
X148057415Y-106730408D01*
X148098338Y-106577681D01*
X148098338Y-106419567D01*
X148057415Y-106266840D01*
X148006734Y-106179057D01*
X147978362Y-106129914D01*
X147978356Y-106129906D01*
X147934657Y-106086207D01*
X147901172Y-106024884D01*
X147898338Y-105998526D01*
X147898338Y-105745114D01*
X147898337Y-105745107D01*
X147886117Y-105699500D01*
X147871045Y-105643250D01*
X147818318Y-105551925D01*
X147345913Y-105079520D01*
X147289624Y-105047021D01*
X147254589Y-105026793D01*
X147169708Y-105004050D01*
X147152727Y-104999500D01*
X147152726Y-104999500D01*
X144697254Y-104999500D01*
X144630215Y-104979815D01*
X144609573Y-104963181D01*
X141914404Y-102268012D01*
X141880919Y-102206689D01*
X141885903Y-102136997D01*
X141914404Y-102092650D01*
X141930433Y-102076621D01*
X141987553Y-102019501D01*
X142093996Y-101872994D01*
X142176211Y-101711639D01*
X142232171Y-101539409D01*
X142246765Y-101447259D01*
X142260500Y-101360551D01*
X142260500Y-101179448D01*
X142237863Y-101036529D01*
X142232171Y-101000591D01*
X142176211Y-100828361D01*
X142176211Y-100828360D01*
X142114513Y-100707273D01*
X142093996Y-100667006D01*
X142031401Y-100580851D01*
X141987558Y-100520505D01*
X141987554Y-100520500D01*
X141859499Y-100392445D01*
X141859494Y-100392441D01*
X141712997Y-100286006D01*
X141712996Y-100286005D01*
X141712994Y-100286004D01*
X141661300Y-100259664D01*
X141551639Y-100203788D01*
X141551636Y-100203787D01*
X141379410Y-100147829D01*
X141219321Y-100122473D01*
X141156186Y-100092544D01*
X141119255Y-100033232D01*
X141120253Y-99963370D01*
X141158863Y-99905137D01*
X141219321Y-99877527D01*
X141289425Y-99866422D01*
X141379409Y-99852171D01*
X141551639Y-99796211D01*
X141712994Y-99713996D01*
X141859501Y-99607553D01*
X141987553Y-99479501D01*
X142093996Y-99332994D01*
X142176211Y-99171639D01*
X142232171Y-98999409D01*
X142246765Y-98907259D01*
X142260500Y-98820551D01*
X142260500Y-98639448D01*
X142241662Y-98520518D01*
X142232171Y-98460591D01*
X142176211Y-98288361D01*
X142176211Y-98288360D01*
X142131024Y-98199678D01*
X142093996Y-98127006D01*
X142052942Y-98070500D01*
X141987558Y-97980505D01*
X141987554Y-97980500D01*
X141859499Y-97852445D01*
X141859494Y-97852441D01*
X141712997Y-97746006D01*
X141712996Y-97746005D01*
X141712994Y-97746004D01*
X141661300Y-97719664D01*
X141551639Y-97663788D01*
X141551636Y-97663787D01*
X141379410Y-97607829D01*
X141219321Y-97582473D01*
X141156186Y-97552544D01*
X141119255Y-97493232D01*
X141120253Y-97423370D01*
X141158863Y-97365137D01*
X141219321Y-97337527D01*
X141289425Y-97326422D01*
X141379409Y-97312171D01*
X141551639Y-97256211D01*
X141712994Y-97173996D01*
X141859501Y-97067553D01*
X141987553Y-96939501D01*
X142093996Y-96792994D01*
X142176211Y-96631639D01*
X142232171Y-96459409D01*
X142250433Y-96344107D01*
X142260500Y-96280551D01*
X142260500Y-96099448D01*
X142244019Y-95995397D01*
X142232171Y-95920591D01*
X142176211Y-95748361D01*
X142176211Y-95748360D01*
X142147740Y-95692484D01*
X142093996Y-95587006D01*
X142031401Y-95500851D01*
X141987558Y-95440505D01*
X141987554Y-95440500D01*
X141859499Y-95312445D01*
X141859494Y-95312441D01*
X141712997Y-95206006D01*
X141712996Y-95206005D01*
X141712994Y-95206004D01*
X141661300Y-95179664D01*
X141551639Y-95123788D01*
X141551636Y-95123787D01*
X141379410Y-95067828D01*
X141217720Y-95042219D01*
X141154585Y-95012289D01*
X141117654Y-94952978D01*
X141118652Y-94883115D01*
X141157262Y-94824883D01*
X141217721Y-94797273D01*
X141379292Y-94771683D01*
X141551444Y-94715748D01*
X141551452Y-94715745D01*
X141712730Y-94633568D01*
X141728532Y-94622085D01*
X141728533Y-94622085D01*
X141239410Y-94132962D01*
X141302993Y-94115925D01*
X141417007Y-94050099D01*
X141510099Y-93957007D01*
X141575925Y-93842993D01*
X141592962Y-93779410D01*
X142082085Y-94268533D01*
X142082085Y-94268532D01*
X142093568Y-94252730D01*
X142175745Y-94091452D01*
X142175748Y-94091444D01*
X142231682Y-93919293D01*
X142260000Y-93740506D01*
X142260000Y-93559493D01*
X142231682Y-93380706D01*
X142175748Y-93208555D01*
X142175747Y-93208552D01*
X142093571Y-93047275D01*
X142093566Y-93047267D01*
X142082085Y-93031466D01*
X141592962Y-93520589D01*
X141575925Y-93457007D01*
X141510099Y-93342993D01*
X141417007Y-93249901D01*
X141302993Y-93184075D01*
X141239409Y-93167037D01*
X141728533Y-92677913D01*
X141712730Y-92666431D01*
X141551447Y-92584252D01*
X141551444Y-92584251D01*
X141379293Y-92528317D01*
X141217720Y-92502726D01*
X141154585Y-92472797D01*
X141117654Y-92413485D01*
X141118652Y-92343623D01*
X141157262Y-92285390D01*
X141217720Y-92257780D01*
X141232270Y-92255475D01*
X141379409Y-92232171D01*
X141551639Y-92176211D01*
X141712994Y-92093996D01*
X141859501Y-91987553D01*
X141987553Y-91859501D01*
X142093996Y-91712994D01*
X142176211Y-91551639D01*
X142232171Y-91379409D01*
X142246765Y-91287259D01*
X142260500Y-91200551D01*
X142260500Y-91019448D01*
X142244019Y-90915397D01*
X142232171Y-90840591D01*
X142176211Y-90668361D01*
X142176211Y-90668360D01*
X142147740Y-90612484D01*
X142093996Y-90507006D01*
X142063127Y-90464518D01*
X141987558Y-90360505D01*
X141987554Y-90360500D01*
X141859499Y-90232445D01*
X141859494Y-90232441D01*
X141712997Y-90126006D01*
X141712996Y-90126005D01*
X141712994Y-90126004D01*
X141661300Y-90099664D01*
X141551639Y-90043788D01*
X141551636Y-90043787D01*
X141379410Y-89987829D01*
X141219321Y-89962473D01*
X141156186Y-89932544D01*
X141119255Y-89873232D01*
X141120253Y-89803370D01*
X141158863Y-89745137D01*
X141219321Y-89717527D01*
X141289425Y-89706422D01*
X141379409Y-89692171D01*
X141551639Y-89636211D01*
X141712994Y-89553996D01*
X141859501Y-89447553D01*
X141987553Y-89319501D01*
X142093996Y-89172994D01*
X142176211Y-89011639D01*
X142232171Y-88839409D01*
X142246765Y-88747259D01*
X142260500Y-88660551D01*
X142260500Y-88479448D01*
X142239847Y-88349056D01*
X142232171Y-88300591D01*
X142176211Y-88128361D01*
X142176211Y-88128360D01*
X142147740Y-88072484D01*
X142093996Y-87967006D01*
X142046251Y-87901290D01*
X141987558Y-87820505D01*
X141987554Y-87820500D01*
X141859499Y-87692445D01*
X141859494Y-87692441D01*
X141712997Y-87586006D01*
X141712996Y-87586005D01*
X141712994Y-87586004D01*
X141659857Y-87558929D01*
X141551639Y-87503788D01*
X141551636Y-87503787D01*
X141379410Y-87447829D01*
X141219321Y-87422473D01*
X141156186Y-87392544D01*
X141119255Y-87333232D01*
X141120253Y-87263370D01*
X141158863Y-87205137D01*
X141219321Y-87177527D01*
X141289425Y-87166422D01*
X141379409Y-87152171D01*
X141551639Y-87096211D01*
X141712994Y-87013996D01*
X141859501Y-86907553D01*
X141987553Y-86779501D01*
X142093996Y-86632994D01*
X142176211Y-86471639D01*
X142232171Y-86299409D01*
X142256010Y-86148897D01*
X142260500Y-86120551D01*
X142260500Y-85939448D01*
X142244019Y-85835397D01*
X142232171Y-85760591D01*
X142189578Y-85629500D01*
X142176212Y-85588363D01*
X142176211Y-85588360D01*
X142147740Y-85532484D01*
X142093996Y-85427006D01*
X142068641Y-85392107D01*
X141998638Y-85295755D01*
X141998634Y-85295751D01*
X141987553Y-85280499D01*
X141859501Y-85152447D01*
X141844248Y-85141365D01*
X141844244Y-85141361D01*
X141712997Y-85046006D01*
X141712996Y-85046005D01*
X141712994Y-85046004D01*
X141661300Y-85019664D01*
X141551639Y-84963788D01*
X141551636Y-84963787D01*
X141379410Y-84907829D01*
X141219321Y-84882473D01*
X141156186Y-84852544D01*
X141119255Y-84793232D01*
X141120253Y-84723370D01*
X141158863Y-84665137D01*
X141219321Y-84637527D01*
X141379409Y-84612171D01*
X141430182Y-84595674D01*
X141523284Y-84565423D01*
X141593123Y-84563429D01*
X141649281Y-84595674D01*
X143141181Y-86087574D01*
X143174666Y-86148897D01*
X143177500Y-86175255D01*
X143177500Y-100385496D01*
X143204793Y-100487359D01*
X143227818Y-100527238D01*
X143257520Y-100578683D01*
X143257522Y-100578685D01*
X143473181Y-100794344D01*
X143506666Y-100855667D01*
X143509500Y-100882025D01*
X143509500Y-101173343D01*
X143508500Y-101188609D01*
X143508500Y-101792867D01*
X143509500Y-101808126D01*
X143509500Y-101862726D01*
X143536793Y-101964589D01*
X143550410Y-101988173D01*
X143589520Y-102055913D01*
X143589522Y-102055915D01*
X143863181Y-102329574D01*
X143896666Y-102390897D01*
X143899500Y-102417255D01*
X143899500Y-102479056D01*
X143940423Y-102631783D01*
X143940426Y-102631790D01*
X144019475Y-102768709D01*
X144019479Y-102768714D01*
X144019480Y-102768716D01*
X144131284Y-102880520D01*
X144131286Y-102880521D01*
X144131290Y-102880524D01*
X144268209Y-102959573D01*
X144268216Y-102959577D01*
X144420943Y-103000500D01*
X144420945Y-103000500D01*
X144579055Y-103000500D01*
X144579057Y-103000500D01*
X144731784Y-102959577D01*
X144868716Y-102880520D01*
X144980520Y-102768716D01*
X145059577Y-102631784D01*
X145100500Y-102479057D01*
X145100500Y-102320943D01*
X145098200Y-102312359D01*
X145099861Y-102242510D01*
X145139023Y-102184647D01*
X145203251Y-102157142D01*
X145250062Y-102160489D01*
X145384840Y-102196603D01*
X145384843Y-102196603D01*
X145542952Y-102196603D01*
X145542954Y-102196603D01*
X145695681Y-102155680D01*
X145832613Y-102076623D01*
X145944417Y-101964819D01*
X146023474Y-101827887D01*
X146064397Y-101675160D01*
X146064397Y-101517046D01*
X146023474Y-101364319D01*
X145968720Y-101269481D01*
X145944421Y-101227393D01*
X145944415Y-101227385D01*
X145832614Y-101115584D01*
X145832606Y-101115578D01*
X145695687Y-101036529D01*
X145695683Y-101036527D01*
X145695681Y-101036526D01*
X145542954Y-100995603D01*
X145542953Y-100995603D01*
X145482566Y-100995603D01*
X145453129Y-100986959D01*
X145423140Y-100980436D01*
X145418123Y-100976680D01*
X145415527Y-100975918D01*
X145394886Y-100959285D01*
X145392267Y-100956666D01*
X145356913Y-100921312D01*
X145356911Y-100921311D01*
X145349841Y-100914241D01*
X145349839Y-100914238D01*
X145349830Y-100914230D01*
X145347796Y-100912196D01*
X145314327Y-100850865D01*
X145311500Y-100824537D01*
X145311500Y-100401232D01*
X145311500Y-100401230D01*
X145284207Y-100299370D01*
X145231480Y-100208044D01*
X145156913Y-100133477D01*
X144816819Y-99793383D01*
X144783334Y-99732060D01*
X144780500Y-99705702D01*
X144780500Y-92920943D01*
X145109500Y-92920943D01*
X145109500Y-93079057D01*
X145137640Y-93184075D01*
X145150423Y-93231783D01*
X145150426Y-93231790D01*
X145229475Y-93368709D01*
X145229479Y-93368714D01*
X145229480Y-93368716D01*
X145341284Y-93480520D01*
X145341286Y-93480521D01*
X145341290Y-93480524D01*
X145478209Y-93559573D01*
X145478216Y-93559577D01*
X145630943Y-93600500D01*
X145630945Y-93600500D01*
X145789055Y-93600500D01*
X145789057Y-93600500D01*
X145941784Y-93559577D01*
X146078716Y-93480520D01*
X146190520Y-93368716D01*
X146269577Y-93231784D01*
X146310500Y-93079057D01*
X146310500Y-93017254D01*
X146330185Y-92950215D01*
X146346819Y-92929573D01*
X146925449Y-92350943D01*
X152369500Y-92350943D01*
X152369500Y-92509057D01*
X152389649Y-92584252D01*
X152410423Y-92661783D01*
X152410426Y-92661790D01*
X152489475Y-92798709D01*
X152489481Y-92798717D01*
X152533181Y-92842417D01*
X152566666Y-92903740D01*
X152569500Y-92930098D01*
X152569500Y-96562726D01*
X152596793Y-96664589D01*
X152620004Y-96704790D01*
X152649520Y-96755913D01*
X153261063Y-97367456D01*
X153863181Y-97969573D01*
X153896666Y-98030896D01*
X153899500Y-98057254D01*
X153899500Y-98119057D01*
X153921103Y-98199678D01*
X153940423Y-98271783D01*
X153940426Y-98271790D01*
X154019475Y-98408709D01*
X154019479Y-98408714D01*
X154019480Y-98408716D01*
X154131284Y-98520520D01*
X154131286Y-98520521D01*
X154131290Y-98520524D01*
X154268209Y-98599573D01*
X154268216Y-98599577D01*
X154420943Y-98640500D01*
X154420945Y-98640500D01*
X154579055Y-98640500D01*
X154579057Y-98640500D01*
X154731784Y-98599577D01*
X154868716Y-98520520D01*
X154980520Y-98408716D01*
X155059577Y-98271784D01*
X155100500Y-98119057D01*
X155100500Y-97960943D01*
X155059577Y-97808216D01*
X155059573Y-97808209D01*
X154980524Y-97671290D01*
X154980518Y-97671282D01*
X154868717Y-97559481D01*
X154868709Y-97559475D01*
X154731790Y-97480426D01*
X154731786Y-97480424D01*
X154731784Y-97480423D01*
X154579057Y-97439500D01*
X154579056Y-97439500D01*
X154517254Y-97439500D01*
X154450215Y-97419815D01*
X154429573Y-97403181D01*
X153406819Y-96380426D01*
X153373334Y-96319103D01*
X153370500Y-96292745D01*
X153370500Y-92930098D01*
X153390185Y-92863059D01*
X153406819Y-92842417D01*
X153450520Y-92798716D01*
X153529577Y-92661784D01*
X153570500Y-92509057D01*
X153570500Y-92350943D01*
X153529577Y-92198216D01*
X153516873Y-92176211D01*
X153450524Y-92061290D01*
X153450518Y-92061282D01*
X153338717Y-91949481D01*
X153338709Y-91949475D01*
X153201790Y-91870426D01*
X153201786Y-91870424D01*
X153201784Y-91870423D01*
X153049057Y-91829500D01*
X152890943Y-91829500D01*
X152738216Y-91870423D01*
X152738209Y-91870426D01*
X152601290Y-91949475D01*
X152601282Y-91949481D01*
X152489481Y-92061282D01*
X152489475Y-92061290D01*
X152410426Y-92198209D01*
X152410423Y-92198216D01*
X152369500Y-92350943D01*
X146925449Y-92350943D01*
X148775555Y-90500837D01*
X148836878Y-90467352D01*
X148863236Y-90464518D01*
X152855886Y-90464518D01*
X152922925Y-90484203D01*
X152943567Y-90500837D01*
X152987268Y-90544538D01*
X152987270Y-90544539D01*
X152987274Y-90544542D01*
X153124193Y-90623591D01*
X153124200Y-90623595D01*
X153276927Y-90664518D01*
X153276929Y-90664518D01*
X153435039Y-90664518D01*
X153435041Y-90664518D01*
X153587768Y-90623595D01*
X153724700Y-90544538D01*
X153836504Y-90432734D01*
X153915561Y-90295802D01*
X153956484Y-90143075D01*
X153956484Y-89984961D01*
X153915561Y-89832234D01*
X153851052Y-89720500D01*
X153836508Y-89695308D01*
X153836502Y-89695300D01*
X153724701Y-89583499D01*
X153724693Y-89583493D01*
X153587774Y-89504444D01*
X153587770Y-89504442D01*
X153587768Y-89504441D01*
X153435041Y-89463518D01*
X153276927Y-89463518D01*
X153124200Y-89504441D01*
X153124193Y-89504444D01*
X152987274Y-89583493D01*
X152987266Y-89583499D01*
X152943567Y-89627199D01*
X152882244Y-89660684D01*
X152855886Y-89663518D01*
X148706321Y-89663518D01*
X148706305Y-89663517D01*
X148698709Y-89663517D01*
X148593255Y-89663517D01*
X148525348Y-89681713D01*
X148491394Y-89690811D01*
X148400066Y-89743540D01*
X145780426Y-92363181D01*
X145719103Y-92396666D01*
X145692745Y-92399500D01*
X145630943Y-92399500D01*
X145478216Y-92440423D01*
X145478209Y-92440426D01*
X145341290Y-92519475D01*
X145341282Y-92519481D01*
X145229481Y-92631282D01*
X145229475Y-92631290D01*
X145150426Y-92768209D01*
X145150423Y-92768216D01*
X145109500Y-92920943D01*
X144780500Y-92920943D01*
X144780500Y-81182537D01*
X144800185Y-81115498D01*
X144852989Y-81069743D01*
X144922147Y-81059799D01*
X144985703Y-81088824D01*
X145007602Y-81113646D01*
X145058600Y-81189970D01*
X145058603Y-81189974D01*
X145170028Y-81301399D01*
X145170036Y-81301405D01*
X145301049Y-81388945D01*
X145301067Y-81388955D01*
X145430001Y-81442361D01*
X145430002Y-81442361D01*
X145430002Y-80846989D01*
X145439942Y-80864206D01*
X145495797Y-80920061D01*
X145564206Y-80959557D01*
X145640506Y-80980001D01*
X145719498Y-80980001D01*
X145795798Y-80959557D01*
X145864207Y-80920061D01*
X145920062Y-80864206D01*
X145930002Y-80846989D01*
X145930002Y-81442361D01*
X146058936Y-81388955D01*
X146058954Y-81388945D01*
X146189967Y-81301405D01*
X146189975Y-81301399D01*
X146301400Y-81189974D01*
X146301403Y-81189970D01*
X146388949Y-81058949D01*
X146388954Y-81058940D01*
X146449258Y-80913352D01*
X146449260Y-80913344D01*
X146480001Y-80758798D01*
X146480002Y-80758795D01*
X146480002Y-80380001D01*
X145980002Y-80380001D01*
X145980002Y-79880001D01*
X146531364Y-79880001D01*
X146531364Y-79881885D01*
X146577322Y-79885164D01*
X146633263Y-79927025D01*
X146641396Y-79939352D01*
X146649485Y-79953363D01*
X146649487Y-79953365D01*
X146649488Y-79953367D01*
X146756638Y-80060517D01*
X146870284Y-80126131D01*
X146887864Y-80136281D01*
X146887868Y-80136283D01*
X147034237Y-80175502D01*
X147034239Y-80175502D01*
X147185767Y-80175502D01*
X147185769Y-80175502D01*
X147332138Y-80136283D01*
X147463368Y-80060517D01*
X147570518Y-79953367D01*
X147646284Y-79822137D01*
X147685503Y-79675768D01*
X147685503Y-79524236D01*
X147685503Y-79524235D01*
X152314501Y-79524235D01*
X152314501Y-79675767D01*
X152325518Y-79716883D01*
X152353720Y-79822137D01*
X152388216Y-79881885D01*
X152429486Y-79953366D01*
X152536636Y-80060516D01*
X152667866Y-80136282D01*
X152814235Y-80175501D01*
X152814237Y-80175501D01*
X152965765Y-80175501D01*
X152965767Y-80175501D01*
X153112136Y-80136282D01*
X153243366Y-80060516D01*
X153350516Y-79953366D01*
X153358605Y-79939354D01*
X153409167Y-79891140D01*
X153477773Y-79877914D01*
X153482987Y-79880001D01*
X154020002Y-79880001D01*
X154020002Y-80380001D01*
X153520002Y-80380001D01*
X153520002Y-80758798D01*
X153550743Y-80913344D01*
X153550745Y-80913352D01*
X153611049Y-81058940D01*
X153611054Y-81058949D01*
X153698600Y-81189970D01*
X153698603Y-81189974D01*
X153810028Y-81301399D01*
X153810036Y-81301405D01*
X153941049Y-81388945D01*
X153941067Y-81388955D01*
X154070001Y-81442361D01*
X154070002Y-81442361D01*
X154070002Y-80846989D01*
X154079942Y-80864206D01*
X154135797Y-80920061D01*
X154204206Y-80959557D01*
X154280506Y-80980001D01*
X154359498Y-80980001D01*
X154435798Y-80959557D01*
X154504207Y-80920061D01*
X154560062Y-80864206D01*
X154570002Y-80846989D01*
X154570002Y-81442361D01*
X154698936Y-81388955D01*
X154698954Y-81388945D01*
X154829967Y-81301405D01*
X154829975Y-81301399D01*
X154941400Y-81189974D01*
X154941403Y-81189970D01*
X155028949Y-81058949D01*
X155028954Y-81058940D01*
X155089258Y-80913352D01*
X155105752Y-80830431D01*
X155105752Y-80830429D01*
X155120001Y-80758795D01*
X155120002Y-80758795D01*
X155120002Y-80380001D01*
X154620002Y-80380001D01*
X154620002Y-79880001D01*
X155120002Y-79880001D01*
X155120002Y-79501207D01*
X155120001Y-79501203D01*
X155089260Y-79346657D01*
X155089258Y-79346649D01*
X155028954Y-79201061D01*
X155028949Y-79201052D01*
X154941403Y-79070031D01*
X154941400Y-79070027D01*
X154829975Y-78958602D01*
X154829971Y-78958599D01*
X154698950Y-78871053D01*
X154698940Y-78871048D01*
X154570002Y-78817640D01*
X154570002Y-79413012D01*
X154560062Y-79395796D01*
X154504207Y-79339941D01*
X154435798Y-79300445D01*
X154359498Y-79280001D01*
X154280506Y-79280001D01*
X154204206Y-79300445D01*
X154135797Y-79339941D01*
X154079942Y-79395796D01*
X154070002Y-79413012D01*
X154070002Y-78817640D01*
X154070001Y-78817640D01*
X153941063Y-78871048D01*
X153941053Y-78871053D01*
X153810032Y-78958599D01*
X153810028Y-78958602D01*
X153698603Y-79070027D01*
X153698600Y-79070031D01*
X153611054Y-79201052D01*
X153611046Y-79201067D01*
X153587446Y-79258042D01*
X153543604Y-79312445D01*
X153477310Y-79334509D01*
X153409611Y-79317229D01*
X153365500Y-79272589D01*
X153350516Y-79246636D01*
X153243366Y-79139486D01*
X153173499Y-79099148D01*
X153112137Y-79063720D01*
X153038951Y-79044110D01*
X152965767Y-79024501D01*
X152814235Y-79024501D01*
X152667864Y-79063720D01*
X152536636Y-79139486D01*
X152536633Y-79139488D01*
X152429488Y-79246633D01*
X152429486Y-79246636D01*
X152353720Y-79377864D01*
X152325435Y-79483429D01*
X152314501Y-79524235D01*
X147685503Y-79524235D01*
X147646284Y-79377867D01*
X147570518Y-79246637D01*
X147463368Y-79139487D01*
X147393499Y-79099148D01*
X147332139Y-79063721D01*
X147258953Y-79044111D01*
X147185769Y-79024502D01*
X147034237Y-79024502D01*
X146887866Y-79063721D01*
X146756638Y-79139487D01*
X146756635Y-79139489D01*
X146649490Y-79246634D01*
X146649486Y-79246640D01*
X146634503Y-79272591D01*
X146583935Y-79320805D01*
X146515328Y-79334027D01*
X146450464Y-79308058D01*
X146412556Y-79258041D01*
X146388956Y-79201065D01*
X146388949Y-79201052D01*
X146301403Y-79070031D01*
X146301400Y-79070027D01*
X146189975Y-78958602D01*
X146189971Y-78958599D01*
X146058950Y-78871053D01*
X146058940Y-78871048D01*
X145930002Y-78817640D01*
X145930002Y-79413012D01*
X145920062Y-79395796D01*
X145864207Y-79339941D01*
X145795798Y-79300445D01*
X145719498Y-79280001D01*
X145640506Y-79280001D01*
X145564206Y-79300445D01*
X145495797Y-79339941D01*
X145439942Y-79395796D01*
X145430002Y-79413012D01*
X145430002Y-78817640D01*
X145430001Y-78817640D01*
X145301063Y-78871048D01*
X145301053Y-78871053D01*
X145170032Y-78958599D01*
X145170028Y-78958602D01*
X145058603Y-79070027D01*
X145058600Y-79070031D01*
X144971054Y-79201052D01*
X144971049Y-79201061D01*
X144910745Y-79346649D01*
X144910743Y-79346657D01*
X144880002Y-79501203D01*
X144880002Y-79880001D01*
X145380002Y-79880001D01*
X145380002Y-80380001D01*
X144880002Y-80380001D01*
X144871467Y-80388535D01*
X144864111Y-80398362D01*
X144860317Y-80411285D01*
X144843587Y-80425781D01*
X144830315Y-80443512D01*
X144817690Y-80448220D01*
X144807513Y-80457040D01*
X144785599Y-80460190D01*
X144764851Y-80467930D01*
X144751688Y-80465066D01*
X144738355Y-80466984D01*
X144718212Y-80457785D01*
X144696577Y-80453079D01*
X144678850Y-80439809D01*
X144674799Y-80437959D01*
X144668323Y-80431929D01*
X144634755Y-80398362D01*
X144625913Y-80389520D01*
X144625910Y-80389518D01*
X142697819Y-78461426D01*
X142664334Y-78400103D01*
X142661500Y-78373745D01*
X142661500Y-76968275D01*
X142661500Y-76968273D01*
X142634207Y-76866413D01*
X142634207Y-76866412D01*
X142581480Y-76775087D01*
X142296818Y-76490425D01*
X142263333Y-76429102D01*
X142260499Y-76402744D01*
X142260499Y-75124500D01*
X142280184Y-75057461D01*
X142332988Y-75011706D01*
X142384499Y-75000500D01*
X144919842Y-75000500D01*
X144986881Y-75020185D01*
G37*
%TD.AperFunction*%
%TA.AperFunction,Conductor*%
G36*
X148815702Y-123950208D02*
G01*
X148853476Y-124008986D01*
X148856972Y-124024523D01*
X148878317Y-124159293D01*
X148934252Y-124331444D01*
X148934253Y-124331447D01*
X149016432Y-124492730D01*
X149027914Y-124508532D01*
X149027914Y-124508533D01*
X149517038Y-124019408D01*
X149534076Y-124082993D01*
X149599902Y-124197007D01*
X149692994Y-124290099D01*
X149807008Y-124355925D01*
X149870591Y-124372962D01*
X149381467Y-124862085D01*
X149381758Y-124865771D01*
X149367394Y-124934149D01*
X149318342Y-124983905D01*
X149258140Y-124999500D01*
X148714210Y-124999500D01*
X148647171Y-124979815D01*
X148601416Y-124927011D01*
X148591472Y-124857853D01*
X148600775Y-124825414D01*
X148600776Y-124825412D01*
X148607585Y-124809991D01*
X148610500Y-124784865D01*
X148610499Y-124043919D01*
X148630183Y-123976882D01*
X148682987Y-123931127D01*
X148752146Y-123921183D01*
X148815702Y-123950208D01*
G37*
%TD.AperFunction*%
%TA.AperFunction,Conductor*%
G36*
X151306378Y-123898649D02*
G01*
X151364611Y-123937259D01*
X151392221Y-123997717D01*
X151417831Y-124159409D01*
X151473789Y-124331635D01*
X151473790Y-124331638D01*
X151556008Y-124492996D01*
X151662443Y-124639493D01*
X151662447Y-124639498D01*
X151790504Y-124767555D01*
X151801003Y-124775183D01*
X151843668Y-124830513D01*
X151849646Y-124900127D01*
X151817039Y-124961921D01*
X151756200Y-124996278D01*
X151728116Y-124999500D01*
X150741862Y-124999500D01*
X150674823Y-124979815D01*
X150629068Y-124927011D01*
X150618244Y-124865774D01*
X150618534Y-124862085D01*
X150129411Y-124372962D01*
X150192994Y-124355925D01*
X150307008Y-124290099D01*
X150400100Y-124197007D01*
X150465926Y-124082993D01*
X150482963Y-124019410D01*
X150972086Y-124508533D01*
X150972086Y-124508532D01*
X150983569Y-124492730D01*
X151065746Y-124331452D01*
X151065749Y-124331444D01*
X151121683Y-124159293D01*
X151147275Y-123997717D01*
X151177204Y-123934582D01*
X151236516Y-123897651D01*
X151306378Y-123898649D01*
G37*
%TD.AperFunction*%
%TA.AperFunction,Conductor*%
G36*
X158476716Y-102345424D02*
G01*
X158620591Y-102392171D01*
X158693639Y-102403740D01*
X158780678Y-102417527D01*
X158843813Y-102447456D01*
X158880744Y-102506768D01*
X158879746Y-102576631D01*
X158841136Y-102634863D01*
X158780678Y-102662473D01*
X158620589Y-102687829D01*
X158448363Y-102743787D01*
X158448360Y-102743788D01*
X158287006Y-102826003D01*
X158147856Y-102927101D01*
X158082049Y-102950580D01*
X158013995Y-102934754D01*
X158009630Y-102930262D01*
X158014984Y-102944617D01*
X158027559Y-102966884D01*
X158026991Y-102976809D01*
X158030466Y-102986125D01*
X158025030Y-103011111D01*
X158023571Y-103036640D01*
X158016604Y-103049843D01*
X158015614Y-103054398D01*
X158007101Y-103067856D01*
X157906003Y-103207006D01*
X157823788Y-103368360D01*
X157823787Y-103368363D01*
X157767829Y-103540589D01*
X157739500Y-103719448D01*
X157739500Y-103900551D01*
X157767829Y-104079410D01*
X157823787Y-104251636D01*
X157823788Y-104251639D01*
X157906006Y-104412997D01*
X158012441Y-104559494D01*
X158012445Y-104559499D01*
X158140500Y-104687554D01*
X158140505Y-104687558D01*
X158268287Y-104780396D01*
X158287006Y-104793996D01*
X158392484Y-104847740D01*
X158448360Y-104876211D01*
X158448363Y-104876212D01*
X158534476Y-104904191D01*
X158620591Y-104932171D01*
X158740038Y-104951089D01*
X158782279Y-104957780D01*
X158845414Y-104987709D01*
X158882345Y-105047021D01*
X158881347Y-105116883D01*
X158842737Y-105175116D01*
X158782279Y-105202726D01*
X158620706Y-105228317D01*
X158448555Y-105284251D01*
X158448547Y-105284254D01*
X158287269Y-105366432D01*
X158271466Y-105377912D01*
X158271466Y-105377913D01*
X158760591Y-105867037D01*
X158697007Y-105884075D01*
X158582993Y-105949901D01*
X158489901Y-106042993D01*
X158424075Y-106157007D01*
X158407037Y-106220590D01*
X157917913Y-105731466D01*
X157917912Y-105731466D01*
X157906432Y-105747269D01*
X157824254Y-105908547D01*
X157824251Y-105908555D01*
X157768317Y-106080706D01*
X157740000Y-106259493D01*
X157740000Y-106440506D01*
X157768317Y-106619293D01*
X157824251Y-106791444D01*
X157824252Y-106791447D01*
X157906431Y-106952730D01*
X157917913Y-106968532D01*
X157917913Y-106968533D01*
X158407037Y-106479409D01*
X158424075Y-106542993D01*
X158489901Y-106657007D01*
X158582993Y-106750099D01*
X158697007Y-106815925D01*
X158760590Y-106832962D01*
X158271466Y-107322085D01*
X158271466Y-107322086D01*
X158287267Y-107333566D01*
X158287275Y-107333571D01*
X158448552Y-107415747D01*
X158448555Y-107415748D01*
X158620706Y-107471682D01*
X158782279Y-107497273D01*
X158845413Y-107527202D01*
X158882345Y-107586513D01*
X158881347Y-107656376D01*
X158842738Y-107714609D01*
X158782280Y-107742219D01*
X158620589Y-107767829D01*
X158448363Y-107823787D01*
X158448360Y-107823788D01*
X158287002Y-107906006D01*
X158140505Y-108012441D01*
X158140500Y-108012445D01*
X158012445Y-108140500D01*
X158012441Y-108140505D01*
X157906006Y-108287002D01*
X157823788Y-108448360D01*
X157823787Y-108448363D01*
X157767829Y-108620589D01*
X157739500Y-108799448D01*
X157739500Y-108980551D01*
X157767829Y-109159410D01*
X157823787Y-109331636D01*
X157823788Y-109331639D01*
X157906006Y-109492997D01*
X158012441Y-109639494D01*
X158012445Y-109639499D01*
X158140500Y-109767554D01*
X158140505Y-109767558D01*
X158247093Y-109844998D01*
X158287006Y-109873996D01*
X158392484Y-109927740D01*
X158448360Y-109956211D01*
X158448363Y-109956212D01*
X158534476Y-109984191D01*
X158620591Y-110012171D01*
X158693639Y-110023740D01*
X158780678Y-110037527D01*
X158843813Y-110067456D01*
X158880744Y-110126768D01*
X158879746Y-110196631D01*
X158841136Y-110254863D01*
X158780678Y-110282473D01*
X158620589Y-110307829D01*
X158448363Y-110363787D01*
X158448360Y-110363788D01*
X158287002Y-110446006D01*
X158140505Y-110552441D01*
X158140500Y-110552445D01*
X158012445Y-110680500D01*
X158012441Y-110680505D01*
X157906006Y-110827002D01*
X157823788Y-110988360D01*
X157823787Y-110988363D01*
X157767829Y-111160589D01*
X157739500Y-111339448D01*
X157739500Y-111520551D01*
X157767829Y-111699410D01*
X157823787Y-111871636D01*
X157823788Y-111871639D01*
X157906006Y-112032997D01*
X158012441Y-112179494D01*
X158012445Y-112179499D01*
X158140500Y-112307554D01*
X158140505Y-112307558D01*
X158268287Y-112400396D01*
X158287006Y-112413996D01*
X158392484Y-112467740D01*
X158448360Y-112496211D01*
X158448363Y-112496212D01*
X158534476Y-112524191D01*
X158620591Y-112552171D01*
X158693639Y-112563740D01*
X158780678Y-112577527D01*
X158843813Y-112607456D01*
X158880744Y-112666768D01*
X158879746Y-112736631D01*
X158841136Y-112794863D01*
X158780678Y-112822473D01*
X158620589Y-112847829D01*
X158448363Y-112903787D01*
X158448360Y-112903788D01*
X158287002Y-112986006D01*
X158140505Y-113092441D01*
X158140500Y-113092445D01*
X158012445Y-113220500D01*
X158012441Y-113220505D01*
X157906006Y-113367002D01*
X157823788Y-113528360D01*
X157823787Y-113528363D01*
X157767829Y-113700589D01*
X157739500Y-113879448D01*
X157739500Y-114060551D01*
X157767829Y-114239410D01*
X157823787Y-114411636D01*
X157823788Y-114411639D01*
X157906006Y-114572997D01*
X158012441Y-114719494D01*
X158012445Y-114719499D01*
X158140500Y-114847554D01*
X158140505Y-114847558D01*
X158268287Y-114940396D01*
X158287006Y-114953996D01*
X158392484Y-115007740D01*
X158448360Y-115036211D01*
X158448363Y-115036212D01*
X158534476Y-115064191D01*
X158620591Y-115092171D01*
X158693639Y-115103740D01*
X158780678Y-115117527D01*
X158843813Y-115147456D01*
X158880744Y-115206768D01*
X158879746Y-115276631D01*
X158841136Y-115334863D01*
X158780678Y-115362473D01*
X158620589Y-115387829D01*
X158448363Y-115443787D01*
X158448360Y-115443788D01*
X158287002Y-115526006D01*
X158140505Y-115632441D01*
X158140500Y-115632445D01*
X158012445Y-115760500D01*
X158012441Y-115760505D01*
X157906006Y-115907002D01*
X157823788Y-116068360D01*
X157823787Y-116068363D01*
X157767829Y-116240589D01*
X157739500Y-116419448D01*
X157739500Y-116600551D01*
X157767829Y-116779410D01*
X157823787Y-116951636D01*
X157823788Y-116951639D01*
X157906006Y-117112997D01*
X158012441Y-117259494D01*
X158012445Y-117259499D01*
X158140500Y-117387554D01*
X158140505Y-117387558D01*
X158268287Y-117480396D01*
X158287006Y-117493996D01*
X158392484Y-117547740D01*
X158448360Y-117576211D01*
X158448363Y-117576212D01*
X158534476Y-117604191D01*
X158620591Y-117632171D01*
X158740038Y-117651089D01*
X158782279Y-117657780D01*
X158845414Y-117687709D01*
X158882345Y-117747021D01*
X158881347Y-117816883D01*
X158842737Y-117875116D01*
X158782279Y-117902726D01*
X158620706Y-117928317D01*
X158448555Y-117984251D01*
X158448547Y-117984254D01*
X158287269Y-118066432D01*
X158271466Y-118077912D01*
X158271466Y-118077913D01*
X158760591Y-118567037D01*
X158697007Y-118584075D01*
X158582993Y-118649901D01*
X158489901Y-118742993D01*
X158424075Y-118857007D01*
X158407037Y-118920590D01*
X157917913Y-118431466D01*
X157917912Y-118431466D01*
X157906432Y-118447269D01*
X157824254Y-118608547D01*
X157824251Y-118608555D01*
X157768317Y-118780706D01*
X157740000Y-118959493D01*
X157740000Y-119140506D01*
X157768317Y-119319293D01*
X157824251Y-119491444D01*
X157824252Y-119491447D01*
X157906431Y-119652730D01*
X157917913Y-119668532D01*
X157917913Y-119668533D01*
X158407037Y-119179409D01*
X158424075Y-119242993D01*
X158489901Y-119357007D01*
X158582993Y-119450099D01*
X158697007Y-119515925D01*
X158760590Y-119532962D01*
X158271466Y-120022085D01*
X158271466Y-120022086D01*
X158287267Y-120033566D01*
X158287275Y-120033571D01*
X158448552Y-120115747D01*
X158448555Y-120115748D01*
X158620706Y-120171682D01*
X158782279Y-120197273D01*
X158845413Y-120227202D01*
X158882345Y-120286513D01*
X158881347Y-120356376D01*
X158842738Y-120414609D01*
X158782280Y-120442219D01*
X158620589Y-120467829D01*
X158448363Y-120523787D01*
X158448360Y-120523788D01*
X158287002Y-120606006D01*
X158140505Y-120712441D01*
X158140500Y-120712445D01*
X158012445Y-120840500D01*
X158012441Y-120840505D01*
X157906006Y-120987002D01*
X157823788Y-121148360D01*
X157823787Y-121148363D01*
X157767829Y-121320589D01*
X157739500Y-121499448D01*
X157739500Y-121680551D01*
X157767829Y-121859410D01*
X157823787Y-122031636D01*
X157823788Y-122031639D01*
X157906006Y-122192997D01*
X158012441Y-122339494D01*
X158012445Y-122339499D01*
X158140500Y-122467554D01*
X158140505Y-122467558D01*
X158268287Y-122560396D01*
X158287006Y-122573996D01*
X158368462Y-122615500D01*
X158448360Y-122656211D01*
X158448363Y-122656212D01*
X158529392Y-122682539D01*
X158620591Y-122712171D01*
X158693639Y-122723740D01*
X158780678Y-122737527D01*
X158843813Y-122767456D01*
X158880744Y-122826768D01*
X158879746Y-122896631D01*
X158841136Y-122954863D01*
X158780678Y-122982473D01*
X158620589Y-123007829D01*
X158448363Y-123063787D01*
X158448360Y-123063788D01*
X158287002Y-123146006D01*
X158140505Y-123252441D01*
X158140500Y-123252445D01*
X158012445Y-123380500D01*
X158012441Y-123380505D01*
X157906006Y-123527002D01*
X157823788Y-123688360D01*
X157823787Y-123688363D01*
X157767829Y-123860589D01*
X157739500Y-124039448D01*
X157739500Y-124220551D01*
X157767829Y-124399410D01*
X157823787Y-124571636D01*
X157823788Y-124571639D01*
X157906003Y-124732993D01*
X157956586Y-124802615D01*
X157980065Y-124868422D01*
X157964239Y-124936476D01*
X157914133Y-124985170D01*
X157856267Y-124999500D01*
X153351888Y-124999500D01*
X153284849Y-124979815D01*
X153239094Y-124927011D01*
X153229150Y-124857853D01*
X153258175Y-124794297D01*
X153279001Y-124775183D01*
X153289499Y-124767555D01*
X153289499Y-124767554D01*
X153289503Y-124767552D01*
X153417555Y-124639500D01*
X153523998Y-124492993D01*
X153606213Y-124331638D01*
X153662173Y-124159408D01*
X153683537Y-124024523D01*
X153690502Y-123980550D01*
X153690502Y-123799447D01*
X153672907Y-123688360D01*
X153662173Y-123620590D01*
X153615426Y-123476715D01*
X153606214Y-123448362D01*
X153606213Y-123448359D01*
X153539848Y-123318113D01*
X153523998Y-123287005D01*
X153421557Y-123146006D01*
X153417560Y-123140504D01*
X153417556Y-123140499D01*
X153289501Y-123012444D01*
X153289496Y-123012440D01*
X153142999Y-122906005D01*
X153142998Y-122906004D01*
X153142996Y-122906003D01*
X153066908Y-122867234D01*
X152981641Y-122823787D01*
X152981638Y-122823786D01*
X152809412Y-122767828D01*
X152630553Y-122739499D01*
X152630548Y-122739499D01*
X152449456Y-122739499D01*
X152449451Y-122739499D01*
X152270589Y-122767828D01*
X152126718Y-122814574D01*
X152056877Y-122816569D01*
X152000720Y-122784324D01*
X149916819Y-120700423D01*
X149883334Y-120639100D01*
X149880500Y-120612742D01*
X149880500Y-107934312D01*
X149900185Y-107867273D01*
X149916819Y-107846631D01*
X151026632Y-106736818D01*
X151047799Y-106725259D01*
X151066538Y-106710072D01*
X151080874Y-106707199D01*
X151087955Y-106703333D01*
X151100711Y-106701247D01*
X151107489Y-106700499D01*
X151176115Y-106700499D01*
X151224176Y-106687620D01*
X151233545Y-106686587D01*
X151259028Y-106691110D01*
X151284901Y-106691726D01*
X151292867Y-106697117D01*
X151302339Y-106698799D01*
X151321332Y-106716383D01*
X151342764Y-106730888D01*
X151348029Y-106741098D01*
X151353610Y-106746265D01*
X151356535Y-106757593D01*
X151361201Y-106766641D01*
X151362685Y-106766027D01*
X151365792Y-106773530D01*
X151365793Y-106773531D01*
X151418520Y-106864856D01*
X151418522Y-106864858D01*
X153957138Y-109403474D01*
X153990623Y-109464797D01*
X153993457Y-109491155D01*
X153993457Y-109818640D01*
X153973772Y-109885679D01*
X153957138Y-109906321D01*
X153913438Y-109950020D01*
X153913432Y-109950028D01*
X153834383Y-110086947D01*
X153834380Y-110086954D01*
X153793457Y-110239681D01*
X153793457Y-110397794D01*
X153834380Y-110550521D01*
X153834383Y-110550528D01*
X153913432Y-110687447D01*
X153913436Y-110687452D01*
X153913437Y-110687454D01*
X154025241Y-110799258D01*
X154025243Y-110799259D01*
X154025247Y-110799262D01*
X154073295Y-110827002D01*
X154162173Y-110878315D01*
X154314900Y-110919238D01*
X154314902Y-110919238D01*
X154473012Y-110919238D01*
X154473014Y-110919238D01*
X154625741Y-110878315D01*
X154762673Y-110799258D01*
X154874477Y-110687454D01*
X154953534Y-110550522D01*
X154994457Y-110397795D01*
X154994457Y-110239681D01*
X154953534Y-110086954D01*
X154924998Y-110037527D01*
X154874481Y-109950028D01*
X154874475Y-109950020D01*
X154830776Y-109906321D01*
X154797291Y-109844998D01*
X154794457Y-109818640D01*
X154794457Y-109221175D01*
X154794457Y-109221173D01*
X154767164Y-109119313D01*
X154767164Y-109119312D01*
X154714437Y-109027987D01*
X152710524Y-107024074D01*
X152706185Y-107016128D01*
X152698938Y-107010703D01*
X152689703Y-106985943D01*
X152677039Y-106962751D01*
X152677684Y-106953721D01*
X152674521Y-106945239D01*
X152680137Y-106919418D01*
X152682023Y-106893059D01*
X152687841Y-106884005D01*
X152689373Y-106876966D01*
X152710524Y-106848712D01*
X152752417Y-106806819D01*
X152813740Y-106773334D01*
X152840098Y-106770500D01*
X153842725Y-106770500D01*
X153842727Y-106770500D01*
X153944588Y-106743207D01*
X154035913Y-106690480D01*
X157819103Y-102907288D01*
X157841540Y-102895037D01*
X157861793Y-102879420D01*
X157871699Y-102878569D01*
X157880424Y-102873805D01*
X157905930Y-102875629D01*
X157931406Y-102873441D01*
X157940197Y-102878079D01*
X157950116Y-102878789D01*
X157970587Y-102894113D01*
X157978617Y-102898351D01*
X157965301Y-102884648D01*
X157951426Y-102816170D01*
X157976776Y-102751061D01*
X157987282Y-102739110D01*
X158350719Y-102375672D01*
X158412040Y-102342189D01*
X158476716Y-102345424D01*
G37*
%TD.AperFunction*%
%TA.AperFunction,Conductor*%
G36*
X148998834Y-108220072D02*
G01*
X149054767Y-108261944D01*
X149079184Y-108327408D01*
X149079500Y-108336254D01*
X149079500Y-120777270D01*
X149079500Y-120882724D01*
X149084357Y-120900851D01*
X149106793Y-120984586D01*
X149133156Y-121030247D01*
X149159520Y-121075910D01*
X149159522Y-121075912D01*
X151434327Y-123350717D01*
X151467812Y-123412040D01*
X151464577Y-123476715D01*
X151417831Y-123620586D01*
X151392220Y-123782282D01*
X151362290Y-123845416D01*
X151302978Y-123882347D01*
X151233116Y-123881349D01*
X151174883Y-123842738D01*
X151147274Y-123782280D01*
X151121684Y-123620707D01*
X151065749Y-123448555D01*
X151065748Y-123448552D01*
X150983572Y-123287275D01*
X150983567Y-123287267D01*
X150972086Y-123271466D01*
X150482963Y-123760589D01*
X150465926Y-123697007D01*
X150400100Y-123582993D01*
X150307008Y-123489901D01*
X150192994Y-123424075D01*
X150129410Y-123407037D01*
X150618534Y-122917913D01*
X150602731Y-122906431D01*
X150441448Y-122824252D01*
X150441445Y-122824251D01*
X150269294Y-122768317D01*
X150090507Y-122740000D01*
X149909495Y-122740000D01*
X149730707Y-122768317D01*
X149558556Y-122824251D01*
X149558548Y-122824254D01*
X149397270Y-122906432D01*
X149381467Y-122917912D01*
X149381467Y-122917913D01*
X149870592Y-123407037D01*
X149807008Y-123424075D01*
X149692994Y-123489901D01*
X149599902Y-123582993D01*
X149534076Y-123697007D01*
X149517038Y-123760590D01*
X149027913Y-123271466D01*
X149016433Y-123287269D01*
X148934255Y-123448547D01*
X148934252Y-123448555D01*
X148878318Y-123620706D01*
X148856972Y-123755478D01*
X148827043Y-123818613D01*
X148767731Y-123855544D01*
X148697868Y-123854546D01*
X148639636Y-123815936D01*
X148611522Y-123751972D01*
X148610499Y-123736080D01*
X148610499Y-122995143D01*
X148610499Y-122995136D01*
X148609292Y-122984735D01*
X148608681Y-122979458D01*
X148608680Y-122979455D01*
X148607585Y-122970009D01*
X148562206Y-122867235D01*
X148482765Y-122787794D01*
X148438654Y-122768317D01*
X148379992Y-122742415D01*
X148354868Y-122739500D01*
X148354865Y-122739500D01*
X147984500Y-122739500D01*
X147917461Y-122719815D01*
X147871706Y-122667011D01*
X147860500Y-122615500D01*
X147860500Y-109307254D01*
X147880185Y-109240215D01*
X147896819Y-109219573D01*
X148867819Y-108248573D01*
X148929142Y-108215088D01*
X148998834Y-108220072D01*
G37*
%TD.AperFunction*%
%TA.AperFunction,Conductor*%
G36*
X159862084Y-119668532D02*
G01*
X159865772Y-119668242D01*
X159934149Y-119682606D01*
X159983905Y-119731658D01*
X159999500Y-119791860D01*
X159999500Y-120778113D01*
X159979815Y-120845152D01*
X159927011Y-120890907D01*
X159857853Y-120900851D01*
X159794297Y-120871826D01*
X159775182Y-120850998D01*
X159767558Y-120840505D01*
X159767554Y-120840500D01*
X159639499Y-120712445D01*
X159639494Y-120712441D01*
X159492997Y-120606006D01*
X159492996Y-120606005D01*
X159492994Y-120606004D01*
X159441300Y-120579664D01*
X159331639Y-120523788D01*
X159331636Y-120523787D01*
X159159410Y-120467828D01*
X158997720Y-120442219D01*
X158934585Y-120412289D01*
X158897654Y-120352978D01*
X158898652Y-120283115D01*
X158937262Y-120224883D01*
X158997721Y-120197273D01*
X159159292Y-120171683D01*
X159331444Y-120115748D01*
X159331452Y-120115745D01*
X159492730Y-120033568D01*
X159508532Y-120022085D01*
X159508533Y-120022085D01*
X159019410Y-119532962D01*
X159082993Y-119515925D01*
X159197007Y-119450099D01*
X159290099Y-119357007D01*
X159355925Y-119242993D01*
X159372962Y-119179410D01*
X159862084Y-119668532D01*
G37*
%TD.AperFunction*%
%TA.AperFunction,Conductor*%
G36*
X140644075Y-119242993D02*
G01*
X140709901Y-119357007D01*
X140802993Y-119450099D01*
X140917007Y-119515925D01*
X140980590Y-119532962D01*
X140491466Y-120022085D01*
X140491466Y-120022086D01*
X140507267Y-120033566D01*
X140507275Y-120033571D01*
X140668552Y-120115747D01*
X140668555Y-120115748D01*
X140840706Y-120171682D01*
X141002279Y-120197273D01*
X141065413Y-120227202D01*
X141102345Y-120286513D01*
X141101347Y-120356376D01*
X141062738Y-120414609D01*
X141002280Y-120442219D01*
X140840589Y-120467829D01*
X140668363Y-120523787D01*
X140668360Y-120523788D01*
X140507002Y-120606006D01*
X140360505Y-120712441D01*
X140360500Y-120712445D01*
X140232445Y-120840500D01*
X140232441Y-120840505D01*
X140224818Y-120850998D01*
X140169488Y-120893664D01*
X140099875Y-120899643D01*
X140038080Y-120867037D01*
X140003723Y-120806199D01*
X140000500Y-120778113D01*
X140000500Y-119791861D01*
X140020185Y-119724822D01*
X140072989Y-119679067D01*
X140134229Y-119668243D01*
X140137913Y-119668533D01*
X140627037Y-119179409D01*
X140644075Y-119242993D01*
G37*
%TD.AperFunction*%
%TA.AperFunction,Conductor*%
G36*
X140205703Y-117228173D02*
G01*
X140224821Y-117249004D01*
X140232446Y-117259500D01*
X140360500Y-117387554D01*
X140360505Y-117387558D01*
X140488287Y-117480396D01*
X140507006Y-117493996D01*
X140612484Y-117547740D01*
X140668360Y-117576211D01*
X140668363Y-117576212D01*
X140754476Y-117604191D01*
X140840591Y-117632171D01*
X140960038Y-117651089D01*
X141002279Y-117657780D01*
X141065414Y-117687709D01*
X141102345Y-117747021D01*
X141101347Y-117816883D01*
X141062737Y-117875116D01*
X141002279Y-117902726D01*
X140840706Y-117928317D01*
X140668555Y-117984251D01*
X140668547Y-117984254D01*
X140507269Y-118066432D01*
X140491466Y-118077912D01*
X140491466Y-118077913D01*
X140980591Y-118567037D01*
X140917007Y-118584075D01*
X140802993Y-118649901D01*
X140709901Y-118742993D01*
X140644075Y-118857007D01*
X140627037Y-118920590D01*
X140137913Y-118431466D01*
X140134229Y-118431756D01*
X140065852Y-118417392D01*
X140016095Y-118368340D01*
X140000500Y-118308138D01*
X140000500Y-117321886D01*
X140020185Y-117254847D01*
X140072989Y-117209092D01*
X140142147Y-117199148D01*
X140205703Y-117228173D01*
G37*
%TD.AperFunction*%
%TA.AperFunction,Conductor*%
G36*
X159961917Y-117232959D02*
G01*
X159996277Y-117293796D01*
X159999500Y-117321886D01*
X159999500Y-118308138D01*
X159979815Y-118375177D01*
X159927011Y-118420932D01*
X159865773Y-118431756D01*
X159862086Y-118431465D01*
X159372962Y-118920589D01*
X159355925Y-118857007D01*
X159290099Y-118742993D01*
X159197007Y-118649901D01*
X159082993Y-118584075D01*
X159019409Y-118567037D01*
X159508533Y-118077913D01*
X159492730Y-118066431D01*
X159331447Y-117984252D01*
X159331444Y-117984251D01*
X159159293Y-117928317D01*
X158997720Y-117902726D01*
X158934585Y-117872797D01*
X158897654Y-117813485D01*
X158898652Y-117743623D01*
X158937262Y-117685390D01*
X158997720Y-117657780D01*
X159012270Y-117655475D01*
X159159409Y-117632171D01*
X159331639Y-117576211D01*
X159492994Y-117493996D01*
X159639501Y-117387553D01*
X159767553Y-117259501D01*
X159775180Y-117249003D01*
X159830508Y-117206336D01*
X159900121Y-117200355D01*
X159961917Y-117232959D01*
G37*
%TD.AperFunction*%
%TA.AperFunction,Conductor*%
G36*
X159862084Y-106968532D02*
G01*
X159865772Y-106968242D01*
X159934149Y-106982606D01*
X159983905Y-107031658D01*
X159999500Y-107091860D01*
X159999500Y-108078113D01*
X159979815Y-108145152D01*
X159927011Y-108190907D01*
X159857853Y-108200851D01*
X159794297Y-108171826D01*
X159775182Y-108150998D01*
X159767558Y-108140505D01*
X159767554Y-108140500D01*
X159639499Y-108012445D01*
X159639494Y-108012441D01*
X159492997Y-107906006D01*
X159492996Y-107906005D01*
X159492994Y-107906004D01*
X159416981Y-107867273D01*
X159331639Y-107823788D01*
X159331636Y-107823787D01*
X159159410Y-107767828D01*
X158997720Y-107742219D01*
X158934585Y-107712289D01*
X158897654Y-107652978D01*
X158898652Y-107583115D01*
X158937262Y-107524883D01*
X158997721Y-107497273D01*
X159159292Y-107471683D01*
X159331444Y-107415748D01*
X159331452Y-107415745D01*
X159492730Y-107333568D01*
X159508532Y-107322085D01*
X159508533Y-107322085D01*
X159019410Y-106832962D01*
X159082993Y-106815925D01*
X159197007Y-106750099D01*
X159290099Y-106657007D01*
X159355925Y-106542993D01*
X159372962Y-106479410D01*
X159862084Y-106968532D01*
G37*
%TD.AperFunction*%
%TA.AperFunction,Conductor*%
G36*
X140644075Y-106542993D02*
G01*
X140709901Y-106657007D01*
X140802993Y-106750099D01*
X140917007Y-106815925D01*
X140980590Y-106832962D01*
X140491466Y-107322085D01*
X140491466Y-107322086D01*
X140507267Y-107333566D01*
X140507275Y-107333571D01*
X140668552Y-107415747D01*
X140668555Y-107415748D01*
X140840706Y-107471682D01*
X141002279Y-107497273D01*
X141065413Y-107527202D01*
X141102345Y-107586513D01*
X141101347Y-107656376D01*
X141062738Y-107714609D01*
X141002280Y-107742219D01*
X140840589Y-107767829D01*
X140668363Y-107823787D01*
X140668360Y-107823788D01*
X140507002Y-107906006D01*
X140360505Y-108012441D01*
X140360500Y-108012445D01*
X140232445Y-108140500D01*
X140232441Y-108140505D01*
X140224818Y-108150998D01*
X140169488Y-108193664D01*
X140099875Y-108199643D01*
X140038080Y-108167037D01*
X140003723Y-108106199D01*
X140000500Y-108078113D01*
X140000500Y-107091861D01*
X140020185Y-107024822D01*
X140072989Y-106979067D01*
X140134229Y-106968243D01*
X140137913Y-106968533D01*
X140627037Y-106479409D01*
X140644075Y-106542993D01*
G37*
%TD.AperFunction*%
%TA.AperFunction,Conductor*%
G36*
X140205703Y-104528173D02*
G01*
X140224821Y-104549004D01*
X140232446Y-104559500D01*
X140360500Y-104687554D01*
X140360505Y-104687558D01*
X140488287Y-104780396D01*
X140507006Y-104793996D01*
X140612484Y-104847740D01*
X140668360Y-104876211D01*
X140668363Y-104876212D01*
X140754476Y-104904191D01*
X140840591Y-104932171D01*
X140960038Y-104951089D01*
X141002279Y-104957780D01*
X141065414Y-104987709D01*
X141102345Y-105047021D01*
X141101347Y-105116883D01*
X141062737Y-105175116D01*
X141002279Y-105202726D01*
X140840706Y-105228317D01*
X140668555Y-105284251D01*
X140668547Y-105284254D01*
X140507269Y-105366432D01*
X140491466Y-105377912D01*
X140491466Y-105377913D01*
X140980591Y-105867037D01*
X140917007Y-105884075D01*
X140802993Y-105949901D01*
X140709901Y-106042993D01*
X140644075Y-106157007D01*
X140627037Y-106220590D01*
X140137913Y-105731466D01*
X140134229Y-105731756D01*
X140065852Y-105717392D01*
X140016095Y-105668340D01*
X140000500Y-105608138D01*
X140000500Y-104621886D01*
X140020185Y-104554847D01*
X140072989Y-104509092D01*
X140142147Y-104499148D01*
X140205703Y-104528173D01*
G37*
%TD.AperFunction*%
%TA.AperFunction,Conductor*%
G36*
X159961917Y-104532959D02*
G01*
X159996277Y-104593796D01*
X159999500Y-104621886D01*
X159999500Y-105608138D01*
X159979815Y-105675177D01*
X159927011Y-105720932D01*
X159865773Y-105731756D01*
X159862086Y-105731465D01*
X159372962Y-106220589D01*
X159355925Y-106157007D01*
X159290099Y-106042993D01*
X159197007Y-105949901D01*
X159082993Y-105884075D01*
X159019409Y-105867037D01*
X159508533Y-105377913D01*
X159492730Y-105366431D01*
X159331447Y-105284252D01*
X159331444Y-105284251D01*
X159159293Y-105228317D01*
X158997720Y-105202726D01*
X158934585Y-105172797D01*
X158897654Y-105113485D01*
X158898652Y-105043623D01*
X158937262Y-104985390D01*
X158997720Y-104957780D01*
X159029869Y-104952688D01*
X159159409Y-104932171D01*
X159331639Y-104876211D01*
X159492994Y-104793996D01*
X159639501Y-104687553D01*
X159767553Y-104559501D01*
X159775180Y-104549003D01*
X159830508Y-104506336D01*
X159900121Y-104500355D01*
X159961917Y-104532959D01*
G37*
%TD.AperFunction*%
%TA.AperFunction,Conductor*%
G36*
X159862084Y-94268532D02*
G01*
X159865772Y-94268242D01*
X159934149Y-94282606D01*
X159983905Y-94331658D01*
X159999500Y-94391860D01*
X159999500Y-95378113D01*
X159979815Y-95445152D01*
X159927011Y-95490907D01*
X159857853Y-95500851D01*
X159794297Y-95471826D01*
X159775182Y-95450998D01*
X159767558Y-95440505D01*
X159767554Y-95440500D01*
X159639499Y-95312445D01*
X159639494Y-95312441D01*
X159492997Y-95206006D01*
X159492996Y-95206005D01*
X159492994Y-95206004D01*
X159441300Y-95179664D01*
X159331639Y-95123788D01*
X159331636Y-95123787D01*
X159159410Y-95067828D01*
X158997720Y-95042219D01*
X158934585Y-95012289D01*
X158897654Y-94952978D01*
X158898652Y-94883115D01*
X158937262Y-94824883D01*
X158997721Y-94797273D01*
X159159292Y-94771683D01*
X159331444Y-94715748D01*
X159331452Y-94715745D01*
X159492730Y-94633568D01*
X159508532Y-94622085D01*
X159508533Y-94622085D01*
X159019410Y-94132962D01*
X159082993Y-94115925D01*
X159197007Y-94050099D01*
X159290099Y-93957007D01*
X159355925Y-93842993D01*
X159372962Y-93779410D01*
X159862084Y-94268532D01*
G37*
%TD.AperFunction*%
%TA.AperFunction,Conductor*%
G36*
X140644075Y-93842993D02*
G01*
X140709901Y-93957007D01*
X140802993Y-94050099D01*
X140917007Y-94115925D01*
X140980590Y-94132962D01*
X140491466Y-94622085D01*
X140491466Y-94622086D01*
X140507267Y-94633566D01*
X140507275Y-94633571D01*
X140668552Y-94715747D01*
X140668555Y-94715748D01*
X140840706Y-94771682D01*
X141002279Y-94797273D01*
X141065413Y-94827202D01*
X141102345Y-94886513D01*
X141101347Y-94956376D01*
X141062738Y-95014609D01*
X141002280Y-95042219D01*
X140840589Y-95067829D01*
X140668363Y-95123787D01*
X140668360Y-95123788D01*
X140507002Y-95206006D01*
X140360505Y-95312441D01*
X140360500Y-95312445D01*
X140232445Y-95440500D01*
X140232441Y-95440505D01*
X140224818Y-95450998D01*
X140169488Y-95493664D01*
X140099875Y-95499643D01*
X140038080Y-95467037D01*
X140003723Y-95406199D01*
X140000500Y-95378113D01*
X140000500Y-94391861D01*
X140020185Y-94324822D01*
X140072989Y-94279067D01*
X140134229Y-94268243D01*
X140137913Y-94268533D01*
X140627037Y-93779409D01*
X140644075Y-93842993D01*
G37*
%TD.AperFunction*%
%TA.AperFunction,Conductor*%
G36*
X140205703Y-91828173D02*
G01*
X140224821Y-91849004D01*
X140232446Y-91859500D01*
X140360500Y-91987554D01*
X140360505Y-91987558D01*
X140461990Y-92061290D01*
X140507006Y-92093996D01*
X140612484Y-92147740D01*
X140668360Y-92176211D01*
X140668363Y-92176212D01*
X140754476Y-92204191D01*
X140840591Y-92232171D01*
X140960038Y-92251089D01*
X141002279Y-92257780D01*
X141065414Y-92287709D01*
X141102345Y-92347021D01*
X141101347Y-92416883D01*
X141062737Y-92475116D01*
X141002279Y-92502726D01*
X140840706Y-92528317D01*
X140668555Y-92584251D01*
X140668547Y-92584254D01*
X140507269Y-92666432D01*
X140491466Y-92677912D01*
X140491466Y-92677913D01*
X140980591Y-93167037D01*
X140917007Y-93184075D01*
X140802993Y-93249901D01*
X140709901Y-93342993D01*
X140644075Y-93457007D01*
X140627037Y-93520590D01*
X140137913Y-93031466D01*
X140134229Y-93031756D01*
X140065852Y-93017392D01*
X140016095Y-92968340D01*
X140000500Y-92908138D01*
X140000500Y-91921886D01*
X140020185Y-91854847D01*
X140072989Y-91809092D01*
X140142147Y-91799148D01*
X140205703Y-91828173D01*
G37*
%TD.AperFunction*%
%TA.AperFunction,Conductor*%
G36*
X159961917Y-91832959D02*
G01*
X159996277Y-91893796D01*
X159999500Y-91921886D01*
X159999500Y-92908138D01*
X159979815Y-92975177D01*
X159927011Y-93020932D01*
X159865773Y-93031756D01*
X159862086Y-93031465D01*
X159372962Y-93520589D01*
X159355925Y-93457007D01*
X159290099Y-93342993D01*
X159197007Y-93249901D01*
X159082993Y-93184075D01*
X159019409Y-93167037D01*
X159508533Y-92677913D01*
X159492730Y-92666431D01*
X159331447Y-92584252D01*
X159331444Y-92584251D01*
X159159293Y-92528317D01*
X158997720Y-92502726D01*
X158934585Y-92472797D01*
X158897654Y-92413485D01*
X158898652Y-92343623D01*
X158937262Y-92285390D01*
X158997720Y-92257780D01*
X159012270Y-92255475D01*
X159159409Y-92232171D01*
X159331639Y-92176211D01*
X159492994Y-92093996D01*
X159639501Y-91987553D01*
X159767553Y-91859501D01*
X159775180Y-91849003D01*
X159830508Y-91806336D01*
X159900121Y-91800355D01*
X159961917Y-91832959D01*
G37*
%TD.AperFunction*%
%TA.AperFunction,Conductor*%
G36*
X141649281Y-79515674D02*
G01*
X143542181Y-81408573D01*
X143575666Y-81469896D01*
X143578500Y-81496254D01*
X143578500Y-85092745D01*
X143558815Y-85159784D01*
X143506011Y-85205539D01*
X143436853Y-85215483D01*
X143373297Y-85186458D01*
X143366819Y-85180426D01*
X142215674Y-84029281D01*
X142182189Y-83967958D01*
X142185423Y-83903284D01*
X142232171Y-83759409D01*
X142260500Y-83580551D01*
X142260500Y-83399448D01*
X142244019Y-83295397D01*
X142232171Y-83220591D01*
X142176211Y-83048361D01*
X142176211Y-83048360D01*
X142147740Y-82992484D01*
X142093996Y-82887006D01*
X142031401Y-82800851D01*
X141987558Y-82740505D01*
X141987554Y-82740500D01*
X141859499Y-82612445D01*
X141859494Y-82612441D01*
X141712997Y-82506006D01*
X141712996Y-82506005D01*
X141712994Y-82506004D01*
X141661300Y-82479664D01*
X141551639Y-82423788D01*
X141551636Y-82423787D01*
X141379410Y-82367828D01*
X141217720Y-82342219D01*
X141154585Y-82312289D01*
X141117654Y-82252978D01*
X141118652Y-82183115D01*
X141157262Y-82124883D01*
X141217721Y-82097273D01*
X141379292Y-82071683D01*
X141551444Y-82015748D01*
X141551452Y-82015745D01*
X141712730Y-81933568D01*
X141728532Y-81922085D01*
X141728533Y-81922085D01*
X141239410Y-81432962D01*
X141302993Y-81415925D01*
X141417007Y-81350099D01*
X141510099Y-81257007D01*
X141575925Y-81142993D01*
X141592962Y-81079410D01*
X142082085Y-81568533D01*
X142082085Y-81568532D01*
X142093568Y-81552730D01*
X142175745Y-81391452D01*
X142175748Y-81391444D01*
X142231682Y-81219293D01*
X142260000Y-81040506D01*
X142260000Y-80859493D01*
X142231682Y-80680706D01*
X142175748Y-80508555D01*
X142175747Y-80508552D01*
X142093571Y-80347275D01*
X142093566Y-80347267D01*
X142082085Y-80331466D01*
X141592962Y-80820589D01*
X141575925Y-80757007D01*
X141510099Y-80642993D01*
X141417007Y-80549901D01*
X141302993Y-80484075D01*
X141239409Y-80467037D01*
X141728533Y-79977913D01*
X141712730Y-79966431D01*
X141551447Y-79884252D01*
X141551444Y-79884251D01*
X141379293Y-79828317D01*
X141217720Y-79802726D01*
X141154585Y-79772797D01*
X141117654Y-79713485D01*
X141118652Y-79643623D01*
X141157262Y-79585390D01*
X141217720Y-79557780D01*
X141232270Y-79555475D01*
X141379409Y-79532171D01*
X141523284Y-79485423D01*
X141593123Y-79483429D01*
X141649281Y-79515674D01*
G37*
%TD.AperFunction*%
%TA.AperFunction,Conductor*%
G36*
X159862084Y-81568532D02*
G01*
X159865772Y-81568242D01*
X159934149Y-81582606D01*
X159983905Y-81631658D01*
X159999500Y-81691860D01*
X159999500Y-82678113D01*
X159979815Y-82745152D01*
X159927011Y-82790907D01*
X159857853Y-82800851D01*
X159794297Y-82771826D01*
X159775182Y-82750998D01*
X159767558Y-82740505D01*
X159767554Y-82740500D01*
X159639499Y-82612445D01*
X159639494Y-82612441D01*
X159492997Y-82506006D01*
X159492996Y-82506005D01*
X159492994Y-82506004D01*
X159441300Y-82479664D01*
X159331639Y-82423788D01*
X159331636Y-82423787D01*
X159159410Y-82367828D01*
X158997720Y-82342219D01*
X158934585Y-82312289D01*
X158897654Y-82252978D01*
X158898652Y-82183115D01*
X158937262Y-82124883D01*
X158997721Y-82097273D01*
X159159292Y-82071683D01*
X159331444Y-82015748D01*
X159331452Y-82015745D01*
X159492730Y-81933568D01*
X159508532Y-81922085D01*
X159508533Y-81922085D01*
X159019410Y-81432962D01*
X159082993Y-81415925D01*
X159197007Y-81350099D01*
X159290099Y-81257007D01*
X159355925Y-81142993D01*
X159372962Y-81079410D01*
X159862084Y-81568532D01*
G37*
%TD.AperFunction*%
%TA.AperFunction,Conductor*%
G36*
X140644075Y-81142993D02*
G01*
X140709901Y-81257007D01*
X140802993Y-81350099D01*
X140917007Y-81415925D01*
X140980590Y-81432962D01*
X140491466Y-81922085D01*
X140491466Y-81922086D01*
X140507267Y-81933566D01*
X140507275Y-81933571D01*
X140668552Y-82015747D01*
X140668555Y-82015748D01*
X140840706Y-82071682D01*
X141002279Y-82097273D01*
X141065413Y-82127202D01*
X141102345Y-82186513D01*
X141101347Y-82256376D01*
X141062738Y-82314609D01*
X141002280Y-82342219D01*
X140840589Y-82367829D01*
X140668363Y-82423787D01*
X140668360Y-82423788D01*
X140507002Y-82506006D01*
X140360505Y-82612441D01*
X140360500Y-82612445D01*
X140232445Y-82740500D01*
X140232441Y-82740505D01*
X140224818Y-82750998D01*
X140169488Y-82793664D01*
X140099875Y-82799643D01*
X140038080Y-82767037D01*
X140003723Y-82706199D01*
X140000500Y-82678113D01*
X140000500Y-81691861D01*
X140020185Y-81624822D01*
X140072989Y-81579067D01*
X140134229Y-81568243D01*
X140137913Y-81568533D01*
X140627037Y-81079409D01*
X140644075Y-81142993D01*
G37*
%TD.AperFunction*%
%TA.AperFunction,Conductor*%
G36*
X140205703Y-79128173D02*
G01*
X140224821Y-79149004D01*
X140232446Y-79159500D01*
X140360500Y-79287554D01*
X140360505Y-79287558D01*
X140432605Y-79339941D01*
X140507006Y-79393996D01*
X140612484Y-79447740D01*
X140668360Y-79476211D01*
X140668363Y-79476212D01*
X140745280Y-79501203D01*
X140840591Y-79532171D01*
X140960038Y-79551089D01*
X141002279Y-79557780D01*
X141065414Y-79587709D01*
X141102345Y-79647021D01*
X141101347Y-79716883D01*
X141062737Y-79775116D01*
X141002279Y-79802726D01*
X140840706Y-79828317D01*
X140668555Y-79884251D01*
X140668547Y-79884254D01*
X140507269Y-79966432D01*
X140491466Y-79977912D01*
X140491466Y-79977913D01*
X140980591Y-80467037D01*
X140917007Y-80484075D01*
X140802993Y-80549901D01*
X140709901Y-80642993D01*
X140644075Y-80757007D01*
X140627037Y-80820590D01*
X140137913Y-80331466D01*
X140134229Y-80331756D01*
X140065852Y-80317392D01*
X140016095Y-80268340D01*
X140000500Y-80208138D01*
X140000500Y-79221886D01*
X140020185Y-79154847D01*
X140072989Y-79109092D01*
X140142147Y-79099148D01*
X140205703Y-79128173D01*
G37*
%TD.AperFunction*%
%TA.AperFunction,Conductor*%
G36*
X159961917Y-79132959D02*
G01*
X159996277Y-79193796D01*
X159999500Y-79221886D01*
X159999500Y-80208138D01*
X159979815Y-80275177D01*
X159927011Y-80320932D01*
X159865773Y-80331756D01*
X159862086Y-80331465D01*
X159372962Y-80820589D01*
X159355925Y-80757007D01*
X159290099Y-80642993D01*
X159197007Y-80549901D01*
X159082993Y-80484075D01*
X159019409Y-80467037D01*
X159508533Y-79977913D01*
X159492730Y-79966431D01*
X159331447Y-79884252D01*
X159331444Y-79884251D01*
X159159293Y-79828317D01*
X158997720Y-79802726D01*
X158934585Y-79772797D01*
X158897654Y-79713485D01*
X158898652Y-79643623D01*
X158937262Y-79585390D01*
X158997720Y-79557780D01*
X159012270Y-79555475D01*
X159159409Y-79532171D01*
X159331639Y-79476211D01*
X159492994Y-79393996D01*
X159639501Y-79287553D01*
X159767553Y-79159501D01*
X159775180Y-79149003D01*
X159830508Y-79106336D01*
X159900121Y-79100355D01*
X159961917Y-79132959D01*
G37*
%TD.AperFunction*%
%TD*%
%TA.AperFunction,NonConductor*%
G36*
X141709783Y-77040184D02*
G01*
X141730425Y-77056818D01*
X141824181Y-77150574D01*
X141838884Y-77177501D01*
X141855477Y-77203320D01*
X141856368Y-77209520D01*
X141857666Y-77211897D01*
X141860500Y-77238255D01*
X141860500Y-77298812D01*
X141840815Y-77365851D01*
X141788011Y-77411606D01*
X141718853Y-77421550D01*
X141680205Y-77409297D01*
X141551639Y-77343788D01*
X141551636Y-77343787D01*
X141379410Y-77287829D01*
X141247728Y-77266972D01*
X141184593Y-77237042D01*
X141147662Y-77177731D01*
X141148660Y-77107868D01*
X141187270Y-77049636D01*
X141251234Y-77021522D01*
X141267121Y-77020499D01*
X141642744Y-77020499D01*
X141709783Y-77040184D01*
G37*
%TD.AperFunction*%
%TA.AperFunction,NonConductor*%
G36*
X140174584Y-77010774D02*
G01*
X140190009Y-77017585D01*
X140215135Y-77020500D01*
X140952873Y-77020499D01*
X141019911Y-77040183D01*
X141065666Y-77092987D01*
X141075610Y-77162146D01*
X141046585Y-77225702D01*
X140987807Y-77263476D01*
X140972271Y-77266972D01*
X140840589Y-77287829D01*
X140668363Y-77343787D01*
X140668360Y-77343788D01*
X140507002Y-77426006D01*
X140360505Y-77532441D01*
X140360500Y-77532445D01*
X140232445Y-77660500D01*
X140232441Y-77660505D01*
X140224818Y-77670998D01*
X140169488Y-77713664D01*
X140099875Y-77719643D01*
X140038080Y-77687037D01*
X140003723Y-77626199D01*
X140000500Y-77598113D01*
X140000500Y-77124209D01*
X140020185Y-77057170D01*
X140072989Y-77011415D01*
X140142147Y-77001471D01*
X140174584Y-77010774D01*
G37*
%TD.AperFunction*%
%TA.AperFunction,NonConductor*%
G36*
X159957876Y-77031525D02*
G01*
X159994907Y-77090774D01*
X159999500Y-77124209D01*
X159999500Y-77598113D01*
X159979815Y-77665152D01*
X159927011Y-77710907D01*
X159857853Y-77720851D01*
X159794297Y-77691826D01*
X159775182Y-77670998D01*
X159767558Y-77660505D01*
X159767554Y-77660500D01*
X159639499Y-77532445D01*
X159639494Y-77532441D01*
X159492997Y-77426006D01*
X159492996Y-77426005D01*
X159492994Y-77426004D01*
X159441300Y-77399664D01*
X159331639Y-77343788D01*
X159331636Y-77343787D01*
X159159410Y-77287829D01*
X159027728Y-77266972D01*
X158964594Y-77237042D01*
X158927663Y-77177731D01*
X158928661Y-77107868D01*
X158967271Y-77049636D01*
X159031235Y-77021522D01*
X159047120Y-77020499D01*
X159784864Y-77020499D01*
X159784879Y-77020497D01*
X159784882Y-77020497D01*
X159809986Y-77017586D01*
X159809987Y-77017585D01*
X159809991Y-77017585D01*
X159825415Y-77010774D01*
X159894690Y-77001703D01*
X159957876Y-77031525D01*
G37*
%TD.AperFunction*%
%TA.AperFunction,NonConductor*%
G36*
X140205703Y-84208173D02*
G01*
X140224821Y-84229004D01*
X140232446Y-84239500D01*
X140360500Y-84367554D01*
X140360505Y-84367558D01*
X140488287Y-84460396D01*
X140507006Y-84473996D01*
X140612484Y-84527740D01*
X140668360Y-84556211D01*
X140668363Y-84556212D01*
X140754476Y-84584191D01*
X140840591Y-84612171D01*
X140913639Y-84623740D01*
X141000678Y-84637527D01*
X141063813Y-84667456D01*
X141100744Y-84726768D01*
X141099746Y-84796631D01*
X141061136Y-84854863D01*
X141000678Y-84882473D01*
X140840589Y-84907829D01*
X140668363Y-84963787D01*
X140668360Y-84963788D01*
X140507002Y-85046006D01*
X140360505Y-85152441D01*
X140360500Y-85152445D01*
X140232445Y-85280500D01*
X140232441Y-85280505D01*
X140224818Y-85290998D01*
X140169488Y-85333664D01*
X140099875Y-85339643D01*
X140038080Y-85307037D01*
X140003723Y-85246199D01*
X140000500Y-85218113D01*
X140000500Y-84301886D01*
X140020185Y-84234847D01*
X140072989Y-84189092D01*
X140142147Y-84179148D01*
X140205703Y-84208173D01*
G37*
%TD.AperFunction*%
%TA.AperFunction,NonConductor*%
G36*
X159961917Y-84212959D02*
G01*
X159996277Y-84273796D01*
X159999500Y-84301886D01*
X159999500Y-85218113D01*
X159979815Y-85285152D01*
X159927011Y-85330907D01*
X159857853Y-85340851D01*
X159794297Y-85311826D01*
X159775182Y-85290998D01*
X159767558Y-85280505D01*
X159767554Y-85280500D01*
X159639499Y-85152445D01*
X159639494Y-85152441D01*
X159492997Y-85046006D01*
X159492996Y-85046005D01*
X159492994Y-85046004D01*
X159441300Y-85019664D01*
X159331639Y-84963788D01*
X159331636Y-84963787D01*
X159159410Y-84907829D01*
X158999321Y-84882473D01*
X158936186Y-84852544D01*
X158899255Y-84793232D01*
X158900253Y-84723370D01*
X158938863Y-84665137D01*
X158999321Y-84637527D01*
X159069425Y-84626422D01*
X159159409Y-84612171D01*
X159331639Y-84556211D01*
X159492994Y-84473996D01*
X159639501Y-84367553D01*
X159767553Y-84239501D01*
X159775180Y-84229003D01*
X159830508Y-84186336D01*
X159900121Y-84180355D01*
X159961917Y-84212959D01*
G37*
%TD.AperFunction*%
%TA.AperFunction,NonConductor*%
G36*
X140205703Y-86748173D02*
G01*
X140224821Y-86769004D01*
X140232446Y-86779500D01*
X140360500Y-86907554D01*
X140360505Y-86907558D01*
X140488287Y-87000396D01*
X140507006Y-87013996D01*
X140612484Y-87067740D01*
X140668360Y-87096211D01*
X140668363Y-87096212D01*
X140754476Y-87124191D01*
X140840591Y-87152171D01*
X140913639Y-87163740D01*
X141000678Y-87177527D01*
X141063813Y-87207456D01*
X141100744Y-87266768D01*
X141099746Y-87336631D01*
X141061136Y-87394863D01*
X141000678Y-87422473D01*
X140840589Y-87447829D01*
X140668363Y-87503787D01*
X140668360Y-87503788D01*
X140507002Y-87586006D01*
X140360505Y-87692441D01*
X140360500Y-87692445D01*
X140232445Y-87820500D01*
X140232441Y-87820505D01*
X140224818Y-87830998D01*
X140169488Y-87873664D01*
X140099875Y-87879643D01*
X140038080Y-87847037D01*
X140003723Y-87786199D01*
X140000500Y-87758113D01*
X140000500Y-86841886D01*
X140020185Y-86774847D01*
X140072989Y-86729092D01*
X140142147Y-86719148D01*
X140205703Y-86748173D01*
G37*
%TD.AperFunction*%
%TA.AperFunction,NonConductor*%
G36*
X159961917Y-86752959D02*
G01*
X159996277Y-86813796D01*
X159999500Y-86841886D01*
X159999500Y-87758113D01*
X159979815Y-87825152D01*
X159927011Y-87870907D01*
X159857853Y-87880851D01*
X159794297Y-87851826D01*
X159775182Y-87830998D01*
X159767558Y-87820505D01*
X159767554Y-87820500D01*
X159639499Y-87692445D01*
X159639494Y-87692441D01*
X159492997Y-87586006D01*
X159492996Y-87586005D01*
X159492994Y-87586004D01*
X159439857Y-87558929D01*
X159331639Y-87503788D01*
X159331636Y-87503787D01*
X159159410Y-87447829D01*
X158999321Y-87422473D01*
X158936186Y-87392544D01*
X158899255Y-87333232D01*
X158900253Y-87263370D01*
X158938863Y-87205137D01*
X158999321Y-87177527D01*
X159069425Y-87166422D01*
X159159409Y-87152171D01*
X159331639Y-87096211D01*
X159492994Y-87013996D01*
X159639501Y-86907553D01*
X159767553Y-86779501D01*
X159775180Y-86769003D01*
X159830508Y-86726336D01*
X159900121Y-86720355D01*
X159961917Y-86752959D01*
G37*
%TD.AperFunction*%
%TA.AperFunction,NonConductor*%
G36*
X140205703Y-89288173D02*
G01*
X140224821Y-89309004D01*
X140232446Y-89319500D01*
X140360500Y-89447554D01*
X140360505Y-89447558D01*
X140438799Y-89504441D01*
X140507006Y-89553996D01*
X140564907Y-89583498D01*
X140668360Y-89636211D01*
X140668363Y-89636212D01*
X140743682Y-89660684D01*
X140840591Y-89692171D01*
X140913639Y-89703740D01*
X141000678Y-89717527D01*
X141063813Y-89747456D01*
X141100744Y-89806768D01*
X141099746Y-89876631D01*
X141061136Y-89934863D01*
X141000678Y-89962473D01*
X140840589Y-89987829D01*
X140668363Y-90043787D01*
X140668360Y-90043788D01*
X140507002Y-90126006D01*
X140360505Y-90232441D01*
X140360500Y-90232445D01*
X140232445Y-90360500D01*
X140232441Y-90360505D01*
X140224818Y-90370998D01*
X140169488Y-90413664D01*
X140099875Y-90419643D01*
X140038080Y-90387037D01*
X140003723Y-90326199D01*
X140000500Y-90298113D01*
X140000500Y-89381886D01*
X140020185Y-89314847D01*
X140072989Y-89269092D01*
X140142147Y-89259148D01*
X140205703Y-89288173D01*
G37*
%TD.AperFunction*%
%TA.AperFunction,NonConductor*%
G36*
X159961917Y-89292959D02*
G01*
X159996277Y-89353796D01*
X159999500Y-89381886D01*
X159999500Y-90298113D01*
X159979815Y-90365152D01*
X159927011Y-90410907D01*
X159857853Y-90420851D01*
X159794297Y-90391826D01*
X159775182Y-90370998D01*
X159767558Y-90360505D01*
X159767554Y-90360500D01*
X159639499Y-90232445D01*
X159639494Y-90232441D01*
X159492997Y-90126006D01*
X159492996Y-90126005D01*
X159492994Y-90126004D01*
X159441300Y-90099664D01*
X159331639Y-90043788D01*
X159331636Y-90043787D01*
X159159410Y-89987829D01*
X158999321Y-89962473D01*
X158936186Y-89932544D01*
X158899255Y-89873232D01*
X158900253Y-89803370D01*
X158938863Y-89745137D01*
X158999321Y-89717527D01*
X159069425Y-89706422D01*
X159159409Y-89692171D01*
X159331639Y-89636211D01*
X159492994Y-89553996D01*
X159639501Y-89447553D01*
X159767553Y-89319501D01*
X159775180Y-89309003D01*
X159830508Y-89266336D01*
X159900121Y-89260355D01*
X159961917Y-89292959D01*
G37*
%TD.AperFunction*%
%TA.AperFunction,NonConductor*%
G36*
X140205703Y-96908173D02*
G01*
X140224821Y-96929004D01*
X140232446Y-96939500D01*
X140360500Y-97067554D01*
X140360505Y-97067558D01*
X140406934Y-97101290D01*
X140507006Y-97173996D01*
X140612484Y-97227740D01*
X140668360Y-97256211D01*
X140668363Y-97256212D01*
X140754476Y-97284191D01*
X140840591Y-97312171D01*
X140913639Y-97323740D01*
X141000678Y-97337527D01*
X141063813Y-97367456D01*
X141100744Y-97426768D01*
X141099746Y-97496631D01*
X141061136Y-97554863D01*
X141000678Y-97582473D01*
X140840589Y-97607829D01*
X140668363Y-97663787D01*
X140668360Y-97663788D01*
X140507002Y-97746006D01*
X140360505Y-97852441D01*
X140360500Y-97852445D01*
X140232445Y-97980500D01*
X140232441Y-97980505D01*
X140224818Y-97990998D01*
X140169488Y-98033664D01*
X140099875Y-98039643D01*
X140038080Y-98007037D01*
X140003723Y-97946199D01*
X140000500Y-97918113D01*
X140000500Y-97001886D01*
X140020185Y-96934847D01*
X140072989Y-96889092D01*
X140142147Y-96879148D01*
X140205703Y-96908173D01*
G37*
%TD.AperFunction*%
%TA.AperFunction,NonConductor*%
G36*
X159961917Y-96912959D02*
G01*
X159996277Y-96973796D01*
X159999500Y-97001886D01*
X159999500Y-97918113D01*
X159979815Y-97985152D01*
X159927011Y-98030907D01*
X159857853Y-98040851D01*
X159794297Y-98011826D01*
X159775182Y-97990998D01*
X159767558Y-97980505D01*
X159767554Y-97980500D01*
X159639499Y-97852445D01*
X159639494Y-97852441D01*
X159492997Y-97746006D01*
X159492996Y-97746005D01*
X159492994Y-97746004D01*
X159441300Y-97719664D01*
X159331639Y-97663788D01*
X159331636Y-97663787D01*
X159159410Y-97607829D01*
X158999321Y-97582473D01*
X158936186Y-97552544D01*
X158899255Y-97493232D01*
X158900253Y-97423370D01*
X158938863Y-97365137D01*
X158999321Y-97337527D01*
X159069425Y-97326422D01*
X159159409Y-97312171D01*
X159331639Y-97256211D01*
X159492994Y-97173996D01*
X159639501Y-97067553D01*
X159767553Y-96939501D01*
X159775180Y-96929003D01*
X159830508Y-96886336D01*
X159900121Y-96880355D01*
X159961917Y-96912959D01*
G37*
%TD.AperFunction*%
%TA.AperFunction,NonConductor*%
G36*
X150773162Y-98010168D02*
G01*
X150816353Y-98065090D01*
X150825235Y-98111176D01*
X150825235Y-99005538D01*
X150805550Y-99072577D01*
X150788916Y-99093219D01*
X150470427Y-99411708D01*
X150443499Y-99426411D01*
X150417681Y-99443004D01*
X150411480Y-99443895D01*
X150409104Y-99445193D01*
X150382746Y-99448027D01*
X150323500Y-99448027D01*
X150256461Y-99428342D01*
X150210706Y-99375538D01*
X150199500Y-99324027D01*
X150199500Y-98251040D01*
X150219185Y-98184001D01*
X150235819Y-98163359D01*
X150292359Y-98106819D01*
X150353682Y-98073334D01*
X150380040Y-98070500D01*
X150441840Y-98070500D01*
X150441842Y-98070500D01*
X150594569Y-98029577D01*
X150639235Y-98003788D01*
X150707135Y-97987316D01*
X150773162Y-98010168D01*
G37*
%TD.AperFunction*%
%TA.AperFunction,NonConductor*%
G36*
X140205703Y-99448173D02*
G01*
X140224821Y-99469004D01*
X140232446Y-99479500D01*
X140360500Y-99607554D01*
X140360505Y-99607558D01*
X140488287Y-99700396D01*
X140507006Y-99713996D01*
X140612484Y-99767740D01*
X140668360Y-99796211D01*
X140668363Y-99796212D01*
X140754476Y-99824191D01*
X140840591Y-99852171D01*
X140913639Y-99863740D01*
X141000678Y-99877527D01*
X141063813Y-99907456D01*
X141100744Y-99966768D01*
X141099746Y-100036631D01*
X141061136Y-100094863D01*
X141000678Y-100122473D01*
X140840589Y-100147829D01*
X140668363Y-100203787D01*
X140668360Y-100203788D01*
X140507002Y-100286006D01*
X140360505Y-100392441D01*
X140360500Y-100392445D01*
X140232445Y-100520500D01*
X140232441Y-100520505D01*
X140224818Y-100530998D01*
X140169488Y-100573664D01*
X140099875Y-100579643D01*
X140038080Y-100547037D01*
X140003723Y-100486199D01*
X140000500Y-100458113D01*
X140000500Y-99541886D01*
X140020185Y-99474847D01*
X140072989Y-99429092D01*
X140142147Y-99419148D01*
X140205703Y-99448173D01*
G37*
%TD.AperFunction*%
%TA.AperFunction,NonConductor*%
G36*
X159961917Y-99452959D02*
G01*
X159996277Y-99513796D01*
X159999500Y-99541886D01*
X159999500Y-100458113D01*
X159979815Y-100525152D01*
X159927011Y-100570907D01*
X159857853Y-100580851D01*
X159794297Y-100551826D01*
X159775182Y-100530998D01*
X159767558Y-100520505D01*
X159767554Y-100520500D01*
X159639499Y-100392445D01*
X159639494Y-100392441D01*
X159492997Y-100286006D01*
X159492996Y-100286005D01*
X159492994Y-100286004D01*
X159441300Y-100259664D01*
X159331639Y-100203788D01*
X159331636Y-100203787D01*
X159159410Y-100147829D01*
X158999321Y-100122473D01*
X158936186Y-100092544D01*
X158899255Y-100033232D01*
X158900253Y-99963370D01*
X158938863Y-99905137D01*
X158999321Y-99877527D01*
X159069425Y-99866422D01*
X159159409Y-99852171D01*
X159331639Y-99796211D01*
X159492994Y-99713996D01*
X159639501Y-99607553D01*
X159767553Y-99479501D01*
X159775180Y-99469003D01*
X159830508Y-99426336D01*
X159900121Y-99420355D01*
X159961917Y-99452959D01*
G37*
%TD.AperFunction*%
%TA.AperFunction,NonConductor*%
G36*
X140205703Y-101988173D02*
G01*
X140224821Y-102009004D01*
X140232446Y-102019500D01*
X140360500Y-102147554D01*
X140360505Y-102147558D01*
X140441893Y-102206689D01*
X140507006Y-102253996D01*
X140612484Y-102307740D01*
X140668360Y-102336211D01*
X140668363Y-102336212D01*
X140840584Y-102392169D01*
X140840585Y-102392169D01*
X140840591Y-102392171D01*
X140878252Y-102398135D01*
X140897483Y-102407251D01*
X140918280Y-102411776D01*
X140937710Y-102426321D01*
X140941384Y-102428063D01*
X140946534Y-102432927D01*
X140980014Y-102466407D01*
X141013499Y-102527730D01*
X141008515Y-102597422D01*
X140966643Y-102653355D01*
X140911731Y-102676561D01*
X140840589Y-102687828D01*
X140668363Y-102743787D01*
X140668360Y-102743788D01*
X140507002Y-102826006D01*
X140360505Y-102932441D01*
X140360500Y-102932445D01*
X140232445Y-103060500D01*
X140232441Y-103060505D01*
X140224818Y-103070998D01*
X140169488Y-103113664D01*
X140099875Y-103119643D01*
X140038080Y-103087037D01*
X140003723Y-103026199D01*
X140000500Y-102998113D01*
X140000500Y-102081886D01*
X140020185Y-102014847D01*
X140072989Y-101969092D01*
X140142147Y-101959148D01*
X140205703Y-101988173D01*
G37*
%TD.AperFunction*%
%TA.AperFunction,NonConductor*%
G36*
X159961917Y-101992959D02*
G01*
X159996277Y-102053796D01*
X159999500Y-102081886D01*
X159999500Y-102998113D01*
X159979815Y-103065152D01*
X159927011Y-103110907D01*
X159857853Y-103120851D01*
X159794297Y-103091826D01*
X159775182Y-103070998D01*
X159767558Y-103060505D01*
X159767554Y-103060500D01*
X159639499Y-102932445D01*
X159639494Y-102932441D01*
X159492997Y-102826006D01*
X159492996Y-102826005D01*
X159492994Y-102826004D01*
X159441300Y-102799664D01*
X159331639Y-102743788D01*
X159331636Y-102743787D01*
X159159410Y-102687829D01*
X158999321Y-102662473D01*
X158936186Y-102632544D01*
X158899255Y-102573232D01*
X158900253Y-102503370D01*
X158938863Y-102445137D01*
X158999321Y-102417527D01*
X159069425Y-102406422D01*
X159159409Y-102392171D01*
X159331639Y-102336211D01*
X159492994Y-102253996D01*
X159639501Y-102147553D01*
X159767553Y-102019501D01*
X159775180Y-102009003D01*
X159830508Y-101966336D01*
X159900121Y-101960355D01*
X159961917Y-101992959D01*
G37*
%TD.AperFunction*%
%TA.AperFunction,NonConductor*%
G36*
X140205703Y-109608173D02*
G01*
X140224821Y-109629004D01*
X140232446Y-109639500D01*
X140360500Y-109767554D01*
X140360505Y-109767558D01*
X140467093Y-109844998D01*
X140507006Y-109873996D01*
X140612484Y-109927740D01*
X140668360Y-109956211D01*
X140668363Y-109956212D01*
X140754476Y-109984191D01*
X140840591Y-110012171D01*
X140913639Y-110023740D01*
X141000678Y-110037527D01*
X141063813Y-110067456D01*
X141100744Y-110126768D01*
X141099746Y-110196631D01*
X141061136Y-110254863D01*
X141000678Y-110282473D01*
X140840589Y-110307829D01*
X140668363Y-110363787D01*
X140668360Y-110363788D01*
X140507002Y-110446006D01*
X140360505Y-110552441D01*
X140360500Y-110552445D01*
X140232445Y-110680500D01*
X140232441Y-110680505D01*
X140224818Y-110690998D01*
X140169488Y-110733664D01*
X140099875Y-110739643D01*
X140038080Y-110707037D01*
X140003723Y-110646199D01*
X140000500Y-110618113D01*
X140000500Y-109701886D01*
X140020185Y-109634847D01*
X140072989Y-109589092D01*
X140142147Y-109579148D01*
X140205703Y-109608173D01*
G37*
%TD.AperFunction*%
%TA.AperFunction,NonConductor*%
G36*
X159961917Y-109612959D02*
G01*
X159996277Y-109673796D01*
X159999500Y-109701886D01*
X159999500Y-110618113D01*
X159979815Y-110685152D01*
X159927011Y-110730907D01*
X159857853Y-110740851D01*
X159794297Y-110711826D01*
X159775182Y-110690998D01*
X159767558Y-110680505D01*
X159767554Y-110680500D01*
X159639499Y-110552445D01*
X159639494Y-110552441D01*
X159492997Y-110446006D01*
X159492996Y-110446005D01*
X159492994Y-110446004D01*
X159441300Y-110419664D01*
X159331639Y-110363788D01*
X159331636Y-110363787D01*
X159159410Y-110307829D01*
X158999321Y-110282473D01*
X158936186Y-110252544D01*
X158899255Y-110193232D01*
X158900253Y-110123370D01*
X158938863Y-110065137D01*
X158999321Y-110037527D01*
X159069425Y-110026422D01*
X159159409Y-110012171D01*
X159331639Y-109956211D01*
X159492994Y-109873996D01*
X159639501Y-109767553D01*
X159767553Y-109639501D01*
X159775180Y-109629003D01*
X159830508Y-109586336D01*
X159900121Y-109580355D01*
X159961917Y-109612959D01*
G37*
%TD.AperFunction*%
%TA.AperFunction,NonConductor*%
G36*
X140205703Y-112148173D02*
G01*
X140224821Y-112169004D01*
X140232446Y-112179500D01*
X140360500Y-112307554D01*
X140360505Y-112307558D01*
X140488287Y-112400396D01*
X140507006Y-112413996D01*
X140612484Y-112467740D01*
X140668360Y-112496211D01*
X140668363Y-112496212D01*
X140754476Y-112524191D01*
X140840591Y-112552171D01*
X140913639Y-112563740D01*
X141000678Y-112577527D01*
X141063813Y-112607456D01*
X141100744Y-112666768D01*
X141099746Y-112736631D01*
X141061136Y-112794863D01*
X141000678Y-112822473D01*
X140840589Y-112847829D01*
X140668363Y-112903787D01*
X140668360Y-112903788D01*
X140507002Y-112986006D01*
X140360505Y-113092441D01*
X140360500Y-113092445D01*
X140232445Y-113220500D01*
X140232441Y-113220505D01*
X140224818Y-113230998D01*
X140169488Y-113273664D01*
X140099875Y-113279643D01*
X140038080Y-113247037D01*
X140003723Y-113186199D01*
X140000500Y-113158113D01*
X140000500Y-112241886D01*
X140020185Y-112174847D01*
X140072989Y-112129092D01*
X140142147Y-112119148D01*
X140205703Y-112148173D01*
G37*
%TD.AperFunction*%
%TA.AperFunction,NonConductor*%
G36*
X159961917Y-112152959D02*
G01*
X159996277Y-112213796D01*
X159999500Y-112241886D01*
X159999500Y-113158113D01*
X159979815Y-113225152D01*
X159927011Y-113270907D01*
X159857853Y-113280851D01*
X159794297Y-113251826D01*
X159775182Y-113230998D01*
X159767558Y-113220505D01*
X159767554Y-113220500D01*
X159639499Y-113092445D01*
X159639494Y-113092441D01*
X159492997Y-112986006D01*
X159492996Y-112986005D01*
X159492994Y-112986004D01*
X159441300Y-112959664D01*
X159331639Y-112903788D01*
X159331636Y-112903787D01*
X159159410Y-112847829D01*
X158999321Y-112822473D01*
X158936186Y-112792544D01*
X158899255Y-112733232D01*
X158900253Y-112663370D01*
X158938863Y-112605137D01*
X158999321Y-112577527D01*
X159069425Y-112566422D01*
X159159409Y-112552171D01*
X159331639Y-112496211D01*
X159492994Y-112413996D01*
X159639501Y-112307553D01*
X159767553Y-112179501D01*
X159775180Y-112169003D01*
X159830508Y-112126336D01*
X159900121Y-112120355D01*
X159961917Y-112152959D01*
G37*
%TD.AperFunction*%
%TA.AperFunction,NonConductor*%
G36*
X140205703Y-114688173D02*
G01*
X140224821Y-114709004D01*
X140232446Y-114719500D01*
X140360500Y-114847554D01*
X140360505Y-114847558D01*
X140488287Y-114940396D01*
X140507006Y-114953996D01*
X140612484Y-115007740D01*
X140668360Y-115036211D01*
X140668363Y-115036212D01*
X140754476Y-115064191D01*
X140840591Y-115092171D01*
X140913639Y-115103740D01*
X141000678Y-115117527D01*
X141063813Y-115147456D01*
X141100744Y-115206768D01*
X141099746Y-115276631D01*
X141061136Y-115334863D01*
X141000678Y-115362473D01*
X140840589Y-115387829D01*
X140668363Y-115443787D01*
X140668360Y-115443788D01*
X140507002Y-115526006D01*
X140360505Y-115632441D01*
X140360500Y-115632445D01*
X140232445Y-115760500D01*
X140232441Y-115760505D01*
X140224818Y-115770998D01*
X140169488Y-115813664D01*
X140099875Y-115819643D01*
X140038080Y-115787037D01*
X140003723Y-115726199D01*
X140000500Y-115698113D01*
X140000500Y-114781886D01*
X140020185Y-114714847D01*
X140072989Y-114669092D01*
X140142147Y-114659148D01*
X140205703Y-114688173D01*
G37*
%TD.AperFunction*%
%TA.AperFunction,NonConductor*%
G36*
X159961917Y-114692959D02*
G01*
X159996277Y-114753796D01*
X159999500Y-114781886D01*
X159999500Y-115698113D01*
X159979815Y-115765152D01*
X159927011Y-115810907D01*
X159857853Y-115820851D01*
X159794297Y-115791826D01*
X159775182Y-115770998D01*
X159767558Y-115760505D01*
X159767554Y-115760500D01*
X159639499Y-115632445D01*
X159639494Y-115632441D01*
X159492997Y-115526006D01*
X159492996Y-115526005D01*
X159492994Y-115526004D01*
X159441300Y-115499664D01*
X159331639Y-115443788D01*
X159331636Y-115443787D01*
X159159410Y-115387829D01*
X158999321Y-115362473D01*
X158936186Y-115332544D01*
X158899255Y-115273232D01*
X158900253Y-115203370D01*
X158938863Y-115145137D01*
X158999321Y-115117527D01*
X159069425Y-115106422D01*
X159159409Y-115092171D01*
X159331639Y-115036211D01*
X159492994Y-114953996D01*
X159639501Y-114847553D01*
X159767553Y-114719501D01*
X159775180Y-114709003D01*
X159830508Y-114666336D01*
X159900121Y-114660355D01*
X159961917Y-114692959D01*
G37*
%TD.AperFunction*%
%TA.AperFunction,NonConductor*%
G36*
X140205703Y-122308173D02*
G01*
X140224821Y-122329004D01*
X140232446Y-122339500D01*
X140360500Y-122467554D01*
X140360505Y-122467558D01*
X140488287Y-122560396D01*
X140507006Y-122573996D01*
X140588462Y-122615500D01*
X140668360Y-122656211D01*
X140668363Y-122656212D01*
X140749392Y-122682539D01*
X140840591Y-122712171D01*
X140913639Y-122723740D01*
X141000678Y-122737527D01*
X141063813Y-122767456D01*
X141100744Y-122826768D01*
X141099746Y-122896631D01*
X141061136Y-122954863D01*
X141000678Y-122982473D01*
X140840589Y-123007829D01*
X140668363Y-123063787D01*
X140668360Y-123063788D01*
X140507002Y-123146006D01*
X140360505Y-123252441D01*
X140360500Y-123252445D01*
X140232445Y-123380500D01*
X140232441Y-123380505D01*
X140224818Y-123390998D01*
X140169488Y-123433664D01*
X140099875Y-123439643D01*
X140038080Y-123407037D01*
X140003723Y-123346199D01*
X140000500Y-123318113D01*
X140000500Y-122401886D01*
X140020185Y-122334847D01*
X140072989Y-122289092D01*
X140142147Y-122279148D01*
X140205703Y-122308173D01*
G37*
%TD.AperFunction*%
%TA.AperFunction,NonConductor*%
G36*
X159961917Y-122312959D02*
G01*
X159996277Y-122373796D01*
X159999500Y-122401886D01*
X159999500Y-123318113D01*
X159979815Y-123385152D01*
X159927011Y-123430907D01*
X159857853Y-123440851D01*
X159794297Y-123411826D01*
X159775182Y-123390998D01*
X159767558Y-123380505D01*
X159767554Y-123380500D01*
X159639499Y-123252445D01*
X159639494Y-123252441D01*
X159492997Y-123146006D01*
X159492996Y-123146005D01*
X159492994Y-123146004D01*
X159441300Y-123119664D01*
X159331639Y-123063788D01*
X159331636Y-123063787D01*
X159159410Y-123007829D01*
X158999321Y-122982473D01*
X158936186Y-122952544D01*
X158899255Y-122893232D01*
X158900253Y-122823370D01*
X158938863Y-122765137D01*
X158999321Y-122737527D01*
X159069425Y-122726422D01*
X159159409Y-122712171D01*
X159331639Y-122656211D01*
X159492994Y-122573996D01*
X159639501Y-122467553D01*
X159767553Y-122339501D01*
X159775180Y-122329003D01*
X159830508Y-122286336D01*
X159900121Y-122280355D01*
X159961917Y-122312959D01*
G37*
%TD.AperFunction*%
M02*
