%TF.GenerationSoftware,KiCad,Pcbnew,9.0.6*%
%TF.CreationDate,2026-01-31T02:41:39+05:30*%
%TF.ProjectId,BYH_devboard,4259485f-6465-4766-926f-6172642e6b69,rev?*%
%TF.SameCoordinates,Original*%
%TF.FileFunction,Legend,Bot*%
%TF.FilePolarity,Positive*%
%FSLAX46Y46*%
G04 Gerber Fmt 4.6, Leading zero omitted, Abs format (unit mm)*
G04 Created by KiCad (PCBNEW 9.0.6) date 2026-01-31 02:41:39*
%MOMM*%
%LPD*%
G01*
G04 APERTURE LIST*
%ADD10C,0.150000*%
%ADD11C,0.010000*%
%ADD12C,0.000000*%
G04 APERTURE END LIST*
D10*
G36*
X152740944Y-107820823D02*
G01*
X153239705Y-107979368D01*
X153471778Y-108112524D01*
X153694298Y-108285604D01*
X153907208Y-108502912D01*
X154107050Y-108765777D01*
X154297180Y-109086311D01*
X154469861Y-109460435D01*
X154628653Y-109908308D01*
X154764615Y-110419907D01*
X154879549Y-111022605D01*
X154965280Y-111700917D01*
X155020890Y-112488283D01*
X155040000Y-113364581D01*
X155040000Y-120980073D01*
X144801339Y-120980073D01*
X144801339Y-114120512D01*
X147993593Y-114120512D01*
X147993593Y-116066517D01*
X148910115Y-116066517D01*
X148910115Y-114106468D01*
X148882454Y-113910464D01*
X150897641Y-113910464D01*
X150897641Y-116066517D01*
X151848356Y-116066517D01*
X151848356Y-113938551D01*
X151791308Y-113423979D01*
X151655401Y-113179175D01*
X151532679Y-113105940D01*
X151387348Y-113084312D01*
X151357754Y-113085029D01*
X151133813Y-113157571D01*
X151041889Y-113250681D01*
X150970401Y-113388604D01*
X150916506Y-113611695D01*
X150897641Y-113910464D01*
X148882454Y-113910464D01*
X148850254Y-113682295D01*
X148783581Y-113545968D01*
X148697070Y-113450195D01*
X148575906Y-113385052D01*
X148438115Y-113364581D01*
X148229375Y-113419737D01*
X148137699Y-113503574D01*
X148066404Y-113630944D01*
X148012464Y-113839831D01*
X147993593Y-114120512D01*
X144801339Y-114120512D01*
X144801339Y-113364581D01*
X144824541Y-112470214D01*
X144966066Y-111153290D01*
X145210928Y-110132630D01*
X145535071Y-109361087D01*
X145721082Y-109055796D01*
X145922305Y-108796492D01*
X146138437Y-108579802D01*
X146366425Y-108405428D01*
X146614544Y-108266500D01*
X146871573Y-108168722D01*
X147156890Y-108106541D01*
X147447711Y-108086493D01*
X147939104Y-108142598D01*
X148208634Y-108228221D01*
X148457137Y-108349635D01*
X148702667Y-108518240D01*
X148924473Y-108722377D01*
X149143842Y-108987121D01*
X149335059Y-109287207D01*
X149516703Y-109659976D01*
X149664646Y-110065075D01*
X149789714Y-110541355D01*
X149876095Y-111040610D01*
X149904183Y-111040610D01*
X149985453Y-110550468D01*
X150232909Y-109672763D01*
X150563497Y-108970932D01*
X150950971Y-108446967D01*
X151382664Y-108084302D01*
X151859643Y-107867038D01*
X152118468Y-107811307D01*
X152394239Y-107792180D01*
X152740944Y-107820823D01*
G37*
G36*
X144801339Y-100233475D02*
G01*
X147690732Y-101577421D01*
X144801339Y-102963499D01*
X144801339Y-108787470D01*
X152515750Y-104307445D01*
X155040000Y-104307445D01*
X155040000Y-98875484D01*
X152501706Y-98875484D01*
X144801339Y-94409504D01*
X144801339Y-100233475D01*
G37*
G36*
X147983213Y-86775083D02*
G01*
X147983213Y-89154619D01*
X144801339Y-89154619D01*
X144801339Y-94572536D01*
X155040000Y-94572536D01*
X155040000Y-89154619D01*
X151874612Y-89154619D01*
X151874612Y-86775083D01*
X155040000Y-86775083D01*
X155040000Y-81357166D01*
X144801339Y-81357166D01*
X144801339Y-86775083D01*
X147983213Y-86775083D01*
G37*
X143741428Y-122281009D02*
X143884285Y-122328628D01*
X143884285Y-122328628D02*
X143931904Y-122376247D01*
X143931904Y-122376247D02*
X143979523Y-122471485D01*
X143979523Y-122471485D02*
X143979523Y-122614342D01*
X143979523Y-122614342D02*
X143931904Y-122709580D01*
X143931904Y-122709580D02*
X143884285Y-122757200D01*
X143884285Y-122757200D02*
X143789047Y-122804819D01*
X143789047Y-122804819D02*
X143408095Y-122804819D01*
X143408095Y-122804819D02*
X143408095Y-121804819D01*
X143408095Y-121804819D02*
X143741428Y-121804819D01*
X143741428Y-121804819D02*
X143836666Y-121852438D01*
X143836666Y-121852438D02*
X143884285Y-121900057D01*
X143884285Y-121900057D02*
X143931904Y-121995295D01*
X143931904Y-121995295D02*
X143931904Y-122090533D01*
X143931904Y-122090533D02*
X143884285Y-122185771D01*
X143884285Y-122185771D02*
X143836666Y-122233390D01*
X143836666Y-122233390D02*
X143741428Y-122281009D01*
X143741428Y-122281009D02*
X143408095Y-122281009D01*
X144598571Y-122328628D02*
X144598571Y-122804819D01*
X144265238Y-121804819D02*
X144598571Y-122328628D01*
X144598571Y-122328628D02*
X144931904Y-121804819D01*
X145979524Y-122519104D02*
X146455714Y-122519104D01*
X145884286Y-122804819D02*
X146217619Y-121804819D01*
X146217619Y-121804819D02*
X146550952Y-122804819D01*
X146789048Y-121804819D02*
X147455714Y-121804819D01*
X147455714Y-121804819D02*
X146789048Y-122804819D01*
X146789048Y-122804819D02*
X147455714Y-122804819D01*
X147836667Y-122804819D02*
X147836667Y-121804819D01*
X147836667Y-121804819D02*
X148170000Y-122519104D01*
X148170000Y-122519104D02*
X148503333Y-121804819D01*
X148503333Y-121804819D02*
X148503333Y-122804819D01*
X148979524Y-122281009D02*
X149312857Y-122281009D01*
X149455714Y-122804819D02*
X148979524Y-122804819D01*
X148979524Y-122804819D02*
X148979524Y-121804819D01*
X148979524Y-121804819D02*
X149455714Y-121804819D01*
X149884286Y-122281009D02*
X150217619Y-122281009D01*
X150360476Y-122804819D02*
X149884286Y-122804819D01*
X149884286Y-122804819D02*
X149884286Y-121804819D01*
X149884286Y-121804819D02*
X150360476Y-121804819D01*
X151360476Y-122804819D02*
X151027143Y-122328628D01*
X150789048Y-122804819D02*
X150789048Y-121804819D01*
X150789048Y-121804819D02*
X151170000Y-121804819D01*
X151170000Y-121804819D02*
X151265238Y-121852438D01*
X151265238Y-121852438D02*
X151312857Y-121900057D01*
X151312857Y-121900057D02*
X151360476Y-121995295D01*
X151360476Y-121995295D02*
X151360476Y-122138152D01*
X151360476Y-122138152D02*
X151312857Y-122233390D01*
X151312857Y-122233390D02*
X151265238Y-122281009D01*
X151265238Y-122281009D02*
X151170000Y-122328628D01*
X151170000Y-122328628D02*
X150789048Y-122328628D01*
X152550953Y-122804819D02*
X152550953Y-121804819D01*
X152550953Y-121804819D02*
X152931905Y-121804819D01*
X152931905Y-121804819D02*
X153027143Y-121852438D01*
X153027143Y-121852438D02*
X153074762Y-121900057D01*
X153074762Y-121900057D02*
X153122381Y-121995295D01*
X153122381Y-121995295D02*
X153122381Y-122138152D01*
X153122381Y-122138152D02*
X153074762Y-122233390D01*
X153074762Y-122233390D02*
X153027143Y-122281009D01*
X153027143Y-122281009D02*
X152931905Y-122328628D01*
X152931905Y-122328628D02*
X152550953Y-122328628D01*
X153550953Y-122804819D02*
X153550953Y-121804819D01*
X154598571Y-122804819D02*
X154265238Y-122328628D01*
X154027143Y-122804819D02*
X154027143Y-121804819D01*
X154027143Y-121804819D02*
X154408095Y-121804819D01*
X154408095Y-121804819D02*
X154503333Y-121852438D01*
X154503333Y-121852438D02*
X154550952Y-121900057D01*
X154550952Y-121900057D02*
X154598571Y-121995295D01*
X154598571Y-121995295D02*
X154598571Y-122138152D01*
X154598571Y-122138152D02*
X154550952Y-122233390D01*
X154550952Y-122233390D02*
X154503333Y-122281009D01*
X154503333Y-122281009D02*
X154408095Y-122328628D01*
X154408095Y-122328628D02*
X154027143Y-122328628D01*
X154979524Y-122519104D02*
X155455714Y-122519104D01*
X154884286Y-122804819D02*
X155217619Y-121804819D01*
X155217619Y-121804819D02*
X155550952Y-122804819D01*
X155884286Y-122804819D02*
X155884286Y-121804819D01*
X155884286Y-121804819D02*
X156455714Y-122804819D01*
X156455714Y-122804819D02*
X156455714Y-121804819D01*
X156931905Y-122804819D02*
X156931905Y-121804819D01*
D11*
%TO.C,REF\u002A\u002A*%
X142884597Y-78336875D02*
X142898784Y-78350544D01*
X142940153Y-78392231D01*
X142994868Y-78448984D01*
X143060271Y-78517909D01*
X143133704Y-78596111D01*
X143212507Y-78680694D01*
X143294021Y-78768765D01*
X143375588Y-78857428D01*
X143454549Y-78943788D01*
X143528244Y-79024951D01*
X143594015Y-79098022D01*
X143649202Y-79160106D01*
X143691147Y-79208307D01*
X143717192Y-79239732D01*
X143724676Y-79251486D01*
X143722107Y-79252784D01*
X143697546Y-79266490D01*
X143648965Y-79294125D01*
X143578413Y-79334510D01*
X143487934Y-79386467D01*
X143379576Y-79448817D01*
X143255385Y-79520383D01*
X143117406Y-79599987D01*
X142967687Y-79686450D01*
X142808274Y-79778595D01*
X142641212Y-79875244D01*
X142578769Y-79911379D01*
X142414644Y-80006318D01*
X142259119Y-80096226D01*
X142114215Y-80179936D01*
X141981956Y-80256283D01*
X141864365Y-80324101D01*
X141763463Y-80382223D01*
X141681274Y-80429483D01*
X141619820Y-80464715D01*
X141581125Y-80486754D01*
X141567210Y-80494432D01*
X141567836Y-80490343D01*
X141579254Y-80466842D01*
X141600254Y-80429298D01*
X141613137Y-80407076D01*
X141640533Y-80359685D01*
X141680848Y-80289889D01*
X141732770Y-80199956D01*
X141794992Y-80092154D01*
X141866204Y-79968752D01*
X141945096Y-79832018D01*
X142030359Y-79684221D01*
X142120685Y-79527629D01*
X142214763Y-79364512D01*
X142306882Y-79204835D01*
X142396441Y-79049699D01*
X142480654Y-78903924D01*
X142558258Y-78769695D01*
X142627986Y-78649197D01*
X142688575Y-78544614D01*
X142738759Y-78458131D01*
X142777273Y-78391933D01*
X142802853Y-78348205D01*
X142814233Y-78329131D01*
X142837581Y-78292713D01*
X142884597Y-78336875D01*
G36*
X142884597Y-78336875D02*
G01*
X142898784Y-78350544D01*
X142940153Y-78392231D01*
X142994868Y-78448984D01*
X143060271Y-78517909D01*
X143133704Y-78596111D01*
X143212507Y-78680694D01*
X143294021Y-78768765D01*
X143375588Y-78857428D01*
X143454549Y-78943788D01*
X143528244Y-79024951D01*
X143594015Y-79098022D01*
X143649202Y-79160106D01*
X143691147Y-79208307D01*
X143717192Y-79239732D01*
X143724676Y-79251486D01*
X143722107Y-79252784D01*
X143697546Y-79266490D01*
X143648965Y-79294125D01*
X143578413Y-79334510D01*
X143487934Y-79386467D01*
X143379576Y-79448817D01*
X143255385Y-79520383D01*
X143117406Y-79599987D01*
X142967687Y-79686450D01*
X142808274Y-79778595D01*
X142641212Y-79875244D01*
X142578769Y-79911379D01*
X142414644Y-80006318D01*
X142259119Y-80096226D01*
X142114215Y-80179936D01*
X141981956Y-80256283D01*
X141864365Y-80324101D01*
X141763463Y-80382223D01*
X141681274Y-80429483D01*
X141619820Y-80464715D01*
X141581125Y-80486754D01*
X141567210Y-80494432D01*
X141567836Y-80490343D01*
X141579254Y-80466842D01*
X141600254Y-80429298D01*
X141613137Y-80407076D01*
X141640533Y-80359685D01*
X141680848Y-80289889D01*
X141732770Y-80199956D01*
X141794992Y-80092154D01*
X141866204Y-79968752D01*
X141945096Y-79832018D01*
X142030359Y-79684221D01*
X142120685Y-79527629D01*
X142214763Y-79364512D01*
X142306882Y-79204835D01*
X142396441Y-79049699D01*
X142480654Y-78903924D01*
X142558258Y-78769695D01*
X142627986Y-78649197D01*
X142688575Y-78544614D01*
X142738759Y-78458131D01*
X142777273Y-78391933D01*
X142802853Y-78348205D01*
X142814233Y-78329131D01*
X142837581Y-78292713D01*
X142884597Y-78336875D01*
G37*
X144647321Y-75167687D02*
X144658854Y-75185023D01*
X144684261Y-75226674D01*
X144722268Y-75290423D01*
X144771598Y-75374057D01*
X144830974Y-75475361D01*
X144899120Y-75592121D01*
X144974761Y-75722120D01*
X145056620Y-75863145D01*
X145143421Y-76012980D01*
X145233887Y-76169412D01*
X145326743Y-76330225D01*
X145420712Y-76493205D01*
X145514518Y-76656136D01*
X145606885Y-76816804D01*
X145696537Y-76972994D01*
X145782197Y-77122492D01*
X145862589Y-77263083D01*
X145936438Y-77392552D01*
X146002466Y-77508684D01*
X146059398Y-77609264D01*
X146105958Y-77692079D01*
X146140869Y-77754912D01*
X146162855Y-77795549D01*
X146170640Y-77811776D01*
X146170648Y-77811900D01*
X146158094Y-77828928D01*
X146122019Y-77857791D01*
X146066178Y-77895759D01*
X145994322Y-77940099D01*
X145946134Y-77968464D01*
X145876793Y-78007908D01*
X145828495Y-78032766D01*
X145798003Y-78044436D01*
X145782081Y-78044318D01*
X145777493Y-78033809D01*
X145777143Y-78032095D01*
X145764029Y-78011194D01*
X145735761Y-77975651D01*
X145697547Y-77932095D01*
X145679916Y-77913387D01*
X145625243Y-77863024D01*
X145564783Y-77819977D01*
X145494943Y-77782985D01*
X145412131Y-77750785D01*
X145312753Y-77722114D01*
X145193216Y-77695710D01*
X145049927Y-77670312D01*
X144879292Y-77644657D01*
X144682895Y-77615739D01*
X144493035Y-77584685D01*
X144327021Y-77553556D01*
X144181143Y-77521454D01*
X144051688Y-77487481D01*
X143934944Y-77450738D01*
X143827201Y-77410329D01*
X143724746Y-77365355D01*
X143649449Y-77328266D01*
X143577526Y-77289237D01*
X143520647Y-77254394D01*
X143483260Y-77226477D01*
X143469810Y-77208226D01*
X143470207Y-77206882D01*
X143481041Y-77185374D01*
X143505606Y-77140334D01*
X143542446Y-77074284D01*
X143590108Y-76989745D01*
X143647137Y-76889239D01*
X143712079Y-76775288D01*
X143783480Y-76650413D01*
X143859885Y-76517136D01*
X143939840Y-76377979D01*
X144021891Y-76235463D01*
X144104583Y-76092110D01*
X144186462Y-75950442D01*
X144266074Y-75812980D01*
X144341965Y-75682246D01*
X144412680Y-75560762D01*
X144476765Y-75451050D01*
X144532765Y-75355630D01*
X144579227Y-75277026D01*
X144614696Y-75217757D01*
X144637718Y-75180347D01*
X144646838Y-75167317D01*
X144647321Y-75167687D01*
G36*
X144647321Y-75167687D02*
G01*
X144658854Y-75185023D01*
X144684261Y-75226674D01*
X144722268Y-75290423D01*
X144771598Y-75374057D01*
X144830974Y-75475361D01*
X144899120Y-75592121D01*
X144974761Y-75722120D01*
X145056620Y-75863145D01*
X145143421Y-76012980D01*
X145233887Y-76169412D01*
X145326743Y-76330225D01*
X145420712Y-76493205D01*
X145514518Y-76656136D01*
X145606885Y-76816804D01*
X145696537Y-76972994D01*
X145782197Y-77122492D01*
X145862589Y-77263083D01*
X145936438Y-77392552D01*
X146002466Y-77508684D01*
X146059398Y-77609264D01*
X146105958Y-77692079D01*
X146140869Y-77754912D01*
X146162855Y-77795549D01*
X146170640Y-77811776D01*
X146170648Y-77811900D01*
X146158094Y-77828928D01*
X146122019Y-77857791D01*
X146066178Y-77895759D01*
X145994322Y-77940099D01*
X145946134Y-77968464D01*
X145876793Y-78007908D01*
X145828495Y-78032766D01*
X145798003Y-78044436D01*
X145782081Y-78044318D01*
X145777493Y-78033809D01*
X145777143Y-78032095D01*
X145764029Y-78011194D01*
X145735761Y-77975651D01*
X145697547Y-77932095D01*
X145679916Y-77913387D01*
X145625243Y-77863024D01*
X145564783Y-77819977D01*
X145494943Y-77782985D01*
X145412131Y-77750785D01*
X145312753Y-77722114D01*
X145193216Y-77695710D01*
X145049927Y-77670312D01*
X144879292Y-77644657D01*
X144682895Y-77615739D01*
X144493035Y-77584685D01*
X144327021Y-77553556D01*
X144181143Y-77521454D01*
X144051688Y-77487481D01*
X143934944Y-77450738D01*
X143827201Y-77410329D01*
X143724746Y-77365355D01*
X143649449Y-77328266D01*
X143577526Y-77289237D01*
X143520647Y-77254394D01*
X143483260Y-77226477D01*
X143469810Y-77208226D01*
X143470207Y-77206882D01*
X143481041Y-77185374D01*
X143505606Y-77140334D01*
X143542446Y-77074284D01*
X143590108Y-76989745D01*
X143647137Y-76889239D01*
X143712079Y-76775288D01*
X143783480Y-76650413D01*
X143859885Y-76517136D01*
X143939840Y-76377979D01*
X144021891Y-76235463D01*
X144104583Y-76092110D01*
X144186462Y-75950442D01*
X144266074Y-75812980D01*
X144341965Y-75682246D01*
X144412680Y-75560762D01*
X144476765Y-75451050D01*
X144532765Y-75355630D01*
X144579227Y-75277026D01*
X144614696Y-75217757D01*
X144637718Y-75180347D01*
X144646838Y-75167317D01*
X144647321Y-75167687D01*
G37*
X146511808Y-78390552D02*
X146517563Y-78399137D01*
X146538126Y-78432858D01*
X146571940Y-78489712D01*
X146617711Y-78567480D01*
X146674144Y-78663944D01*
X146739945Y-78776883D01*
X146813819Y-78904080D01*
X146894472Y-79043315D01*
X146980609Y-79192369D01*
X147070936Y-79349024D01*
X147095708Y-79392033D01*
X147193661Y-79562087D01*
X147292270Y-79733266D01*
X147389521Y-79902074D01*
X147483399Y-80065015D01*
X147571892Y-80218594D01*
X147652983Y-80359313D01*
X147724659Y-80483678D01*
X147784905Y-80588192D01*
X147831708Y-80669359D01*
X148052791Y-81052683D01*
X144952837Y-81052683D01*
X144824682Y-81052671D01*
X144519261Y-81052554D01*
X144223193Y-81052314D01*
X143937920Y-81051956D01*
X143664884Y-81051488D01*
X143405526Y-81050915D01*
X143161288Y-81050244D01*
X142933610Y-81049480D01*
X142723935Y-81048631D01*
X142533704Y-81047701D01*
X142364358Y-81046698D01*
X142217339Y-81045627D01*
X142094088Y-81044495D01*
X141996047Y-81043308D01*
X141924657Y-81042071D01*
X141881359Y-81040792D01*
X141867596Y-81039475D01*
X141877815Y-81032816D01*
X141913072Y-81011595D01*
X141970982Y-80977432D01*
X142049191Y-80931683D01*
X142145344Y-80875702D01*
X142257084Y-80810845D01*
X142382057Y-80738466D01*
X142517907Y-80659921D01*
X142662279Y-80576566D01*
X142812817Y-80489755D01*
X142967166Y-80400844D01*
X143122971Y-80311188D01*
X143277877Y-80222141D01*
X143429527Y-80135060D01*
X143575567Y-80051300D01*
X143713642Y-79972215D01*
X143841395Y-79899161D01*
X143956472Y-79833493D01*
X144056517Y-79776566D01*
X144139175Y-79729736D01*
X144202090Y-79694358D01*
X144242908Y-79671786D01*
X144259272Y-79663376D01*
X144269950Y-79665461D01*
X144302119Y-79684420D01*
X144347982Y-79719544D01*
X144402501Y-79767181D01*
X144451606Y-79814868D01*
X144514150Y-79879828D01*
X144584129Y-79955667D01*
X144657957Y-80038210D01*
X144732046Y-80123280D01*
X144802809Y-80206702D01*
X144866659Y-80284301D01*
X144920008Y-80351901D01*
X144959270Y-80405326D01*
X144980856Y-80440401D01*
X144995267Y-80466017D01*
X145034404Y-80519028D01*
X145084719Y-80575424D01*
X145139037Y-80627974D01*
X145190185Y-80669442D01*
X145230988Y-80692598D01*
X145276053Y-80697950D01*
X145336187Y-80683157D01*
X145393340Y-80649238D01*
X145437694Y-80600565D01*
X145445374Y-80587937D01*
X145455153Y-80567255D01*
X145461526Y-80542366D01*
X145464903Y-80507921D01*
X145465692Y-80458574D01*
X145464302Y-80388976D01*
X145461142Y-80293780D01*
X145458877Y-80238714D01*
X145454065Y-80151629D01*
X145448386Y-80075411D01*
X145442369Y-80016761D01*
X145436544Y-79982378D01*
X145422440Y-79943100D01*
X145380627Y-79865752D01*
X145315656Y-79774103D01*
X145226731Y-79667079D01*
X145113061Y-79543602D01*
X145063733Y-79491578D01*
X145006699Y-79430208D01*
X144959625Y-79378177D01*
X144926385Y-79339778D01*
X144910850Y-79319308D01*
X144909253Y-79316058D01*
X144907338Y-79302065D01*
X144916906Y-79286551D01*
X144941876Y-79266171D01*
X144986167Y-79237583D01*
X145053699Y-79197444D01*
X145111108Y-79163934D01*
X145216753Y-79102635D01*
X145299932Y-79055021D01*
X145363439Y-79019545D01*
X145410067Y-78994661D01*
X145442611Y-78978825D01*
X145463865Y-78970489D01*
X145485858Y-78961240D01*
X145498712Y-78948819D01*
X145499915Y-78945890D01*
X145518722Y-78929596D01*
X145553096Y-78908610D01*
X145607480Y-78879322D01*
X145647635Y-78916704D01*
X145661818Y-78931848D01*
X145694816Y-78973005D01*
X145735107Y-79027957D01*
X145776943Y-79089043D01*
X145866097Y-79224001D01*
X145862598Y-79573874D01*
X145859100Y-79923747D01*
X145808154Y-79973245D01*
X145791035Y-79990891D01*
X145736137Y-80070172D01*
X145704091Y-80164447D01*
X145693173Y-80278292D01*
X145695884Y-80339291D01*
X145715022Y-80446890D01*
X145749902Y-80545095D01*
X145797503Y-80623894D01*
X145830556Y-80652626D01*
X145889310Y-80674449D01*
X145955822Y-80676966D01*
X146021577Y-80661340D01*
X146078062Y-80628732D01*
X146116764Y-80580305D01*
X146118031Y-80577680D01*
X146141424Y-80529737D01*
X146166200Y-80479634D01*
X146187233Y-80432599D01*
X146217405Y-80353322D01*
X146250693Y-80255584D01*
X146285940Y-80143740D01*
X146321990Y-80022146D01*
X146357686Y-79895157D01*
X146391871Y-79767128D01*
X146423388Y-79642414D01*
X146451081Y-79525371D01*
X146473793Y-79420355D01*
X146490367Y-79331721D01*
X146499646Y-79263824D01*
X146500475Y-79221019D01*
X146498608Y-79211294D01*
X146480419Y-79162068D01*
X146446668Y-79096211D01*
X146400316Y-79019677D01*
X146382525Y-78992097D01*
X146311043Y-78879634D01*
X146250281Y-78781284D01*
X146201578Y-78699344D01*
X146166275Y-78636117D01*
X146145713Y-78593902D01*
X146141230Y-78574999D01*
X146141749Y-78574332D01*
X146160306Y-78560717D01*
X146199963Y-78535831D01*
X146255287Y-78502988D01*
X146320845Y-78465500D01*
X146326387Y-78462388D01*
X146397568Y-78423224D01*
X146447142Y-78398248D01*
X146479667Y-78385670D01*
X146499703Y-78383701D01*
X146511808Y-78390552D01*
G36*
X146511808Y-78390552D02*
G01*
X146517563Y-78399137D01*
X146538126Y-78432858D01*
X146571940Y-78489712D01*
X146617711Y-78567480D01*
X146674144Y-78663944D01*
X146739945Y-78776883D01*
X146813819Y-78904080D01*
X146894472Y-79043315D01*
X146980609Y-79192369D01*
X147070936Y-79349024D01*
X147095708Y-79392033D01*
X147193661Y-79562087D01*
X147292270Y-79733266D01*
X147389521Y-79902074D01*
X147483399Y-80065015D01*
X147571892Y-80218594D01*
X147652983Y-80359313D01*
X147724659Y-80483678D01*
X147784905Y-80588192D01*
X147831708Y-80669359D01*
X148052791Y-81052683D01*
X144952837Y-81052683D01*
X144824682Y-81052671D01*
X144519261Y-81052554D01*
X144223193Y-81052314D01*
X143937920Y-81051956D01*
X143664884Y-81051488D01*
X143405526Y-81050915D01*
X143161288Y-81050244D01*
X142933610Y-81049480D01*
X142723935Y-81048631D01*
X142533704Y-81047701D01*
X142364358Y-81046698D01*
X142217339Y-81045627D01*
X142094088Y-81044495D01*
X141996047Y-81043308D01*
X141924657Y-81042071D01*
X141881359Y-81040792D01*
X141867596Y-81039475D01*
X141877815Y-81032816D01*
X141913072Y-81011595D01*
X141970982Y-80977432D01*
X142049191Y-80931683D01*
X142145344Y-80875702D01*
X142257084Y-80810845D01*
X142382057Y-80738466D01*
X142517907Y-80659921D01*
X142662279Y-80576566D01*
X142812817Y-80489755D01*
X142967166Y-80400844D01*
X143122971Y-80311188D01*
X143277877Y-80222141D01*
X143429527Y-80135060D01*
X143575567Y-80051300D01*
X143713642Y-79972215D01*
X143841395Y-79899161D01*
X143956472Y-79833493D01*
X144056517Y-79776566D01*
X144139175Y-79729736D01*
X144202090Y-79694358D01*
X144242908Y-79671786D01*
X144259272Y-79663376D01*
X144269950Y-79665461D01*
X144302119Y-79684420D01*
X144347982Y-79719544D01*
X144402501Y-79767181D01*
X144451606Y-79814868D01*
X144514150Y-79879828D01*
X144584129Y-79955667D01*
X144657957Y-80038210D01*
X144732046Y-80123280D01*
X144802809Y-80206702D01*
X144866659Y-80284301D01*
X144920008Y-80351901D01*
X144959270Y-80405326D01*
X144980856Y-80440401D01*
X144995267Y-80466017D01*
X145034404Y-80519028D01*
X145084719Y-80575424D01*
X145139037Y-80627974D01*
X145190185Y-80669442D01*
X145230988Y-80692598D01*
X145276053Y-80697950D01*
X145336187Y-80683157D01*
X145393340Y-80649238D01*
X145437694Y-80600565D01*
X145445374Y-80587937D01*
X145455153Y-80567255D01*
X145461526Y-80542366D01*
X145464903Y-80507921D01*
X145465692Y-80458574D01*
X145464302Y-80388976D01*
X145461142Y-80293780D01*
X145458877Y-80238714D01*
X145454065Y-80151629D01*
X145448386Y-80075411D01*
X145442369Y-80016761D01*
X145436544Y-79982378D01*
X145422440Y-79943100D01*
X145380627Y-79865752D01*
X145315656Y-79774103D01*
X145226731Y-79667079D01*
X145113061Y-79543602D01*
X145063733Y-79491578D01*
X145006699Y-79430208D01*
X144959625Y-79378177D01*
X144926385Y-79339778D01*
X144910850Y-79319308D01*
X144909253Y-79316058D01*
X144907338Y-79302065D01*
X144916906Y-79286551D01*
X144941876Y-79266171D01*
X144986167Y-79237583D01*
X145053699Y-79197444D01*
X145111108Y-79163934D01*
X145216753Y-79102635D01*
X145299932Y-79055021D01*
X145363439Y-79019545D01*
X145410067Y-78994661D01*
X145442611Y-78978825D01*
X145463865Y-78970489D01*
X145485858Y-78961240D01*
X145498712Y-78948819D01*
X145499915Y-78945890D01*
X145518722Y-78929596D01*
X145553096Y-78908610D01*
X145607480Y-78879322D01*
X145647635Y-78916704D01*
X145661818Y-78931848D01*
X145694816Y-78973005D01*
X145735107Y-79027957D01*
X145776943Y-79089043D01*
X145866097Y-79224001D01*
X145862598Y-79573874D01*
X145859100Y-79923747D01*
X145808154Y-79973245D01*
X145791035Y-79990891D01*
X145736137Y-80070172D01*
X145704091Y-80164447D01*
X145693173Y-80278292D01*
X145695884Y-80339291D01*
X145715022Y-80446890D01*
X145749902Y-80545095D01*
X145797503Y-80623894D01*
X145830556Y-80652626D01*
X145889310Y-80674449D01*
X145955822Y-80676966D01*
X146021577Y-80661340D01*
X146078062Y-80628732D01*
X146116764Y-80580305D01*
X146118031Y-80577680D01*
X146141424Y-80529737D01*
X146166200Y-80479634D01*
X146187233Y-80432599D01*
X146217405Y-80353322D01*
X146250693Y-80255584D01*
X146285940Y-80143740D01*
X146321990Y-80022146D01*
X146357686Y-79895157D01*
X146391871Y-79767128D01*
X146423388Y-79642414D01*
X146451081Y-79525371D01*
X146473793Y-79420355D01*
X146490367Y-79331721D01*
X146499646Y-79263824D01*
X146500475Y-79221019D01*
X146498608Y-79211294D01*
X146480419Y-79162068D01*
X146446668Y-79096211D01*
X146400316Y-79019677D01*
X146382525Y-78992097D01*
X146311043Y-78879634D01*
X146250281Y-78781284D01*
X146201578Y-78699344D01*
X146166275Y-78636117D01*
X146145713Y-78593902D01*
X146141230Y-78574999D01*
X146141749Y-78574332D01*
X146160306Y-78560717D01*
X146199963Y-78535831D01*
X146255287Y-78502988D01*
X146320845Y-78465500D01*
X146326387Y-78462388D01*
X146397568Y-78423224D01*
X146447142Y-78398248D01*
X146479667Y-78385670D01*
X146499703Y-78383701D01*
X146511808Y-78390552D01*
G37*
D12*
G36*
X158736223Y-81172414D02*
G01*
X155240661Y-81172414D01*
X155240661Y-80321218D01*
X158736223Y-80321218D01*
X158736223Y-81172414D01*
G37*
G36*
X156272185Y-78590495D02*
G01*
X156278145Y-78590949D01*
X156284019Y-78591695D01*
X156289799Y-78592727D01*
X156295477Y-78594038D01*
X156301047Y-78595620D01*
X156306500Y-78597465D01*
X156311830Y-78599567D01*
X156317030Y-78601917D01*
X156322090Y-78604510D01*
X156327006Y-78607336D01*
X156331768Y-78610389D01*
X156336370Y-78613661D01*
X156340804Y-78617146D01*
X156345063Y-78620835D01*
X156349139Y-78624722D01*
X156353025Y-78628798D01*
X156356715Y-78633057D01*
X156360199Y-78637491D01*
X156363472Y-78642093D01*
X156366525Y-78646855D01*
X156369351Y-78651770D01*
X156371943Y-78656831D01*
X156374294Y-78662030D01*
X156376395Y-78667360D01*
X156378241Y-78672814D01*
X156379822Y-78678383D01*
X156381133Y-78684062D01*
X156382165Y-78689841D01*
X156382912Y-78695715D01*
X156383365Y-78701676D01*
X156383518Y-78707715D01*
X156383365Y-78713755D01*
X156382912Y-78719715D01*
X156382165Y-78725589D01*
X156381133Y-78731368D01*
X156379822Y-78737046D01*
X156378241Y-78742616D01*
X156376395Y-78748069D01*
X156374294Y-78753399D01*
X156371943Y-78758597D01*
X156369351Y-78763658D01*
X156366525Y-78768572D01*
X156363472Y-78773334D01*
X156360199Y-78777936D01*
X156356715Y-78782369D01*
X156353025Y-78786628D01*
X156349139Y-78790703D01*
X156345063Y-78794589D01*
X156340804Y-78798278D01*
X156336370Y-78801762D01*
X156331768Y-78805034D01*
X156327006Y-78808087D01*
X156322090Y-78810913D01*
X156317030Y-78813504D01*
X156311830Y-78815855D01*
X156306500Y-78817956D01*
X156301047Y-78819801D01*
X156295477Y-78821383D01*
X156289799Y-78822693D01*
X156284019Y-78823725D01*
X156278145Y-78824471D01*
X156272185Y-78824925D01*
X156266145Y-78825077D01*
X156260106Y-78824925D01*
X156254145Y-78824471D01*
X156248271Y-78823725D01*
X156242492Y-78822693D01*
X156236813Y-78821383D01*
X156231244Y-78819801D01*
X156225790Y-78817956D01*
X156220460Y-78815855D01*
X156215261Y-78813504D01*
X156210200Y-78810913D01*
X156205285Y-78808087D01*
X156200523Y-78805034D01*
X156195921Y-78801762D01*
X156191487Y-78798278D01*
X156187228Y-78794589D01*
X156183152Y-78790703D01*
X156179265Y-78786628D01*
X156175576Y-78782369D01*
X156172092Y-78777936D01*
X156168819Y-78773334D01*
X156165766Y-78768573D01*
X156162940Y-78763658D01*
X156160348Y-78758597D01*
X156157997Y-78753399D01*
X156155895Y-78748069D01*
X156154050Y-78742616D01*
X156152468Y-78737046D01*
X156151158Y-78731368D01*
X156150125Y-78725589D01*
X156149379Y-78719715D01*
X156148926Y-78713755D01*
X156148773Y-78707715D01*
X156148926Y-78701675D01*
X156149379Y-78695715D01*
X156150125Y-78689841D01*
X156151158Y-78684061D01*
X156152468Y-78678383D01*
X156154050Y-78672813D01*
X156155895Y-78667360D01*
X156157997Y-78662030D01*
X156160348Y-78656831D01*
X156162940Y-78651770D01*
X156165766Y-78646855D01*
X156168819Y-78642093D01*
X156172092Y-78637491D01*
X156175576Y-78633057D01*
X156179265Y-78628798D01*
X156183152Y-78624721D01*
X156187228Y-78620835D01*
X156191487Y-78617146D01*
X156195921Y-78613661D01*
X156200523Y-78610389D01*
X156205285Y-78607336D01*
X156210200Y-78604509D01*
X156215261Y-78601917D01*
X156220460Y-78599567D01*
X156225790Y-78597465D01*
X156231244Y-78595620D01*
X156236813Y-78594038D01*
X156242492Y-78592727D01*
X156248271Y-78591695D01*
X156254145Y-78590949D01*
X156260106Y-78590495D01*
X156266145Y-78590343D01*
X156272185Y-78590495D01*
G37*
G36*
X157818726Y-75762436D02*
G01*
X157835245Y-75775137D01*
X157851009Y-75788392D01*
X157865984Y-75802214D01*
X157880136Y-75816612D01*
X157893431Y-75831599D01*
X157905835Y-75847187D01*
X157917313Y-75863386D01*
X157927832Y-75880207D01*
X157937357Y-75897663D01*
X157945855Y-75915763D01*
X157947249Y-75919038D01*
X157948559Y-75922222D01*
X157949789Y-75925315D01*
X157950940Y-75928314D01*
X157952014Y-75931215D01*
X157953015Y-75934017D01*
X157953944Y-75936716D01*
X157954800Y-75939300D01*
X157954803Y-75939310D01*
X158082682Y-75939310D01*
X158082682Y-76059960D01*
X157937339Y-76059960D01*
X157936909Y-76064957D01*
X157906503Y-76418432D01*
X159076838Y-75185871D01*
X159076838Y-75323362D01*
X157893302Y-76571838D01*
X157881217Y-76712325D01*
X157759189Y-78130928D01*
X157774652Y-78146662D01*
X159003272Y-79396928D01*
X158932470Y-79466503D01*
X157748079Y-78260073D01*
X157700342Y-78814933D01*
X157700066Y-78817377D01*
X157699659Y-78819809D01*
X157699126Y-78822228D01*
X157698472Y-78824628D01*
X157697699Y-78827007D01*
X157696812Y-78829360D01*
X157695816Y-78831684D01*
X157694713Y-78833975D01*
X157693508Y-78836230D01*
X157692205Y-78838445D01*
X157689320Y-78842739D01*
X157686091Y-78846830D01*
X157682550Y-78850687D01*
X157678728Y-78854280D01*
X157674658Y-78857582D01*
X157670371Y-78860563D01*
X157665899Y-78863192D01*
X157663604Y-78864366D01*
X157661274Y-78865442D01*
X157658915Y-78866415D01*
X157656529Y-78867282D01*
X157654121Y-78868039D01*
X157651695Y-78868684D01*
X157649254Y-78869211D01*
X157646804Y-78869617D01*
X157646804Y-79051608D01*
X157423229Y-79051608D01*
X157423229Y-78870080D01*
X156573451Y-78870080D01*
X156561857Y-78890305D01*
X156548976Y-78909649D01*
X156534864Y-78928054D01*
X156519581Y-78945460D01*
X156503186Y-78961810D01*
X156485736Y-78977045D01*
X156467291Y-78991106D01*
X156447909Y-79003936D01*
X156427648Y-79015475D01*
X156406567Y-79025666D01*
X156384724Y-79034449D01*
X156362179Y-79041766D01*
X156338988Y-79047559D01*
X156315212Y-79051769D01*
X156290908Y-79054338D01*
X156266136Y-79055207D01*
X156248254Y-79054755D01*
X156230607Y-79053413D01*
X156213216Y-79051204D01*
X156196104Y-79048148D01*
X156179292Y-79044268D01*
X156162802Y-79039586D01*
X156146656Y-79034123D01*
X156130876Y-79027901D01*
X156115484Y-79020942D01*
X156100500Y-79013269D01*
X156085948Y-79004902D01*
X156071850Y-78995864D01*
X156058226Y-78986176D01*
X156045098Y-78975860D01*
X156032490Y-78964938D01*
X156020422Y-78953433D01*
X156008916Y-78941365D01*
X155997994Y-78928756D01*
X155987678Y-78915629D01*
X155977990Y-78902005D01*
X155968951Y-78887907D01*
X155960584Y-78873355D01*
X155952910Y-78858371D01*
X155945951Y-78842979D01*
X155939729Y-78827198D01*
X155934266Y-78811052D01*
X155929583Y-78794562D01*
X155925703Y-78777750D01*
X155922647Y-78760637D01*
X155920437Y-78743246D01*
X155919095Y-78725598D01*
X155918643Y-78707715D01*
X156085422Y-78707715D01*
X156085657Y-78717015D01*
X156086355Y-78726193D01*
X156087504Y-78735237D01*
X156089094Y-78744136D01*
X156091112Y-78752880D01*
X156093547Y-78761456D01*
X156096389Y-78769853D01*
X156099625Y-78778060D01*
X156103244Y-78786065D01*
X156107235Y-78793857D01*
X156111587Y-78801425D01*
X156116288Y-78808758D01*
X156121326Y-78815844D01*
X156126691Y-78822671D01*
X156132372Y-78829228D01*
X156138356Y-78835505D01*
X156144632Y-78841489D01*
X156151190Y-78847169D01*
X156158017Y-78852534D01*
X156165103Y-78857573D01*
X156172435Y-78862274D01*
X156180003Y-78866626D01*
X156187796Y-78870617D01*
X156195801Y-78874236D01*
X156204008Y-78877472D01*
X156212405Y-78880313D01*
X156220981Y-78882749D01*
X156229724Y-78884767D01*
X156238624Y-78886356D01*
X156247668Y-78887506D01*
X156256846Y-78888204D01*
X156266146Y-78888439D01*
X156275446Y-78888204D01*
X156284625Y-78887506D01*
X156293670Y-78886356D01*
X156302570Y-78884767D01*
X156311314Y-78882749D01*
X156319890Y-78880313D01*
X156328287Y-78877472D01*
X156336494Y-78874236D01*
X156344500Y-78870617D01*
X156352292Y-78866626D01*
X156359860Y-78862274D01*
X156367193Y-78857573D01*
X156374278Y-78852534D01*
X156381105Y-78847169D01*
X156387663Y-78841489D01*
X156393939Y-78835505D01*
X156399923Y-78829228D01*
X156405603Y-78822671D01*
X156410968Y-78815844D01*
X156416006Y-78808758D01*
X156420707Y-78801425D01*
X156425058Y-78793857D01*
X156429049Y-78786065D01*
X156432668Y-78778060D01*
X156435904Y-78769853D01*
X156438745Y-78761456D01*
X156441180Y-78752880D01*
X156443198Y-78744136D01*
X156444787Y-78735237D01*
X156445936Y-78726193D01*
X156446634Y-78717015D01*
X156446869Y-78707715D01*
X156446634Y-78698415D01*
X156445936Y-78689236D01*
X156444787Y-78680191D01*
X156443198Y-78671291D01*
X156441180Y-78662547D01*
X156438745Y-78653971D01*
X156435904Y-78645574D01*
X156432668Y-78637366D01*
X156429049Y-78629361D01*
X156425058Y-78621568D01*
X156420707Y-78614000D01*
X156416006Y-78606668D01*
X156410968Y-78599582D01*
X156405603Y-78592755D01*
X156399923Y-78586198D01*
X156393939Y-78579922D01*
X156387663Y-78573938D01*
X156381105Y-78568258D01*
X156374278Y-78562893D01*
X156367193Y-78557854D01*
X156359860Y-78553154D01*
X156352292Y-78548802D01*
X156344500Y-78544812D01*
X156336494Y-78541193D01*
X156328287Y-78537957D01*
X156319890Y-78535116D01*
X156311313Y-78532681D01*
X156302570Y-78530663D01*
X156293669Y-78529074D01*
X156284625Y-78527924D01*
X156275446Y-78527226D01*
X156266146Y-78526991D01*
X156256846Y-78527226D01*
X156247668Y-78527924D01*
X156238624Y-78529074D01*
X156229724Y-78530663D01*
X156220981Y-78532681D01*
X156212405Y-78535116D01*
X156204008Y-78537957D01*
X156195801Y-78541193D01*
X156187796Y-78544812D01*
X156180003Y-78548802D01*
X156172435Y-78553154D01*
X156165103Y-78557854D01*
X156158017Y-78562893D01*
X156151190Y-78568258D01*
X156144632Y-78573938D01*
X156138356Y-78579922D01*
X156132372Y-78586198D01*
X156126691Y-78592755D01*
X156121326Y-78599582D01*
X156116288Y-78606668D01*
X156111587Y-78614000D01*
X156107235Y-78621568D01*
X156103244Y-78629361D01*
X156099625Y-78637366D01*
X156096389Y-78645574D01*
X156093547Y-78653971D01*
X156091112Y-78662547D01*
X156089094Y-78671291D01*
X156087504Y-78680191D01*
X156086355Y-78689236D01*
X156085657Y-78698415D01*
X156085422Y-78707715D01*
X155918643Y-78707715D01*
X155918720Y-78700329D01*
X155918950Y-78692981D01*
X155919331Y-78685672D01*
X155919862Y-78678405D01*
X155920541Y-78671180D01*
X155921366Y-78663998D01*
X155922336Y-78656862D01*
X155923449Y-78649773D01*
X155161132Y-79453925D01*
X155089125Y-79385587D01*
X156161882Y-78255790D01*
X156296941Y-78255790D01*
X156306895Y-78362576D01*
X156322971Y-78364835D01*
X156338804Y-78367818D01*
X156354374Y-78371509D01*
X156369666Y-78375890D01*
X156384661Y-78380943D01*
X156399342Y-78386651D01*
X156413691Y-78392996D01*
X156427692Y-78399961D01*
X156441326Y-78407529D01*
X156454576Y-78415682D01*
X156467426Y-78424402D01*
X156479856Y-78433673D01*
X156491850Y-78443476D01*
X156503391Y-78453794D01*
X156514461Y-78464610D01*
X156525042Y-78475906D01*
X156535117Y-78487665D01*
X156544668Y-78499870D01*
X156553679Y-78512502D01*
X156562131Y-78525545D01*
X156570007Y-78538980D01*
X156577290Y-78552792D01*
X156583962Y-78566961D01*
X156590006Y-78581471D01*
X156595405Y-78596304D01*
X156600140Y-78611442D01*
X156604194Y-78626869D01*
X156607551Y-78642567D01*
X156610192Y-78658517D01*
X156612100Y-78674704D01*
X156613258Y-78691109D01*
X156613648Y-78707715D01*
X156613608Y-78713000D01*
X156613490Y-78718265D01*
X156613294Y-78723512D01*
X156613022Y-78728740D01*
X156612673Y-78733946D01*
X156612248Y-78739133D01*
X156611748Y-78744297D01*
X156611174Y-78749440D01*
X157584900Y-78749440D01*
X157636750Y-78146662D01*
X157007761Y-77505971D01*
X156296941Y-78255790D01*
X156161882Y-78255790D01*
X156174522Y-78242478D01*
X156027791Y-76668117D01*
X156148984Y-76668117D01*
X156284876Y-78126273D01*
X156939694Y-77436637D01*
X156937947Y-77434857D01*
X157075174Y-77434857D01*
X157076923Y-77436637D01*
X157647839Y-78017617D01*
X157760124Y-76712325D01*
X157075174Y-77434857D01*
X156937947Y-77434857D01*
X156162387Y-76644852D01*
X156162387Y-76668117D01*
X156148984Y-76668117D01*
X156027791Y-76668117D01*
X155753001Y-76668117D01*
X155753001Y-76355935D01*
X155858589Y-76355935D01*
X155858589Y-76559632D01*
X156017697Y-76559632D01*
X156011293Y-76490962D01*
X155878728Y-76355935D01*
X155858589Y-76355935D01*
X155753001Y-76355935D01*
X155753001Y-76247430D01*
X155772215Y-76247430D01*
X154849192Y-75307235D01*
X154849192Y-75169674D01*
X155908298Y-76247440D01*
X155988590Y-76247440D01*
X155971575Y-76064957D01*
X156092782Y-76064957D01*
X156109783Y-76247451D01*
X156162387Y-76247451D01*
X156162387Y-76505993D01*
X156215098Y-76559632D01*
X156453897Y-76802632D01*
X156453897Y-76663130D01*
X157192888Y-76663130D01*
X157192888Y-76904430D01*
X156553926Y-76904430D01*
X157007138Y-77365615D01*
X157773346Y-76558667D01*
X157815814Y-76064957D01*
X156092782Y-76064957D01*
X155971575Y-76064957D01*
X155971247Y-76061438D01*
X155967628Y-76062911D01*
X155963966Y-76064298D01*
X155960261Y-76065598D01*
X155956516Y-76066809D01*
X155952732Y-76067930D01*
X155948909Y-76068961D01*
X155945050Y-76069899D01*
X155941155Y-76070743D01*
X155937225Y-76071493D01*
X155933262Y-76072147D01*
X155929268Y-76072704D01*
X155925242Y-76073162D01*
X155921188Y-76073521D01*
X155917105Y-76073778D01*
X155912996Y-76073934D01*
X155908861Y-76073986D01*
X155900582Y-76073777D01*
X155892412Y-76073155D01*
X155884361Y-76072132D01*
X155876439Y-76070717D01*
X155868656Y-76068921D01*
X155861022Y-76066753D01*
X155853548Y-76064224D01*
X155846242Y-76061343D01*
X155839116Y-76058122D01*
X155832180Y-76054569D01*
X155825443Y-76050695D01*
X155818917Y-76046511D01*
X155812610Y-76042026D01*
X155806533Y-76037250D01*
X155800696Y-76032194D01*
X155795109Y-76026867D01*
X155789783Y-76021280D01*
X155784727Y-76015443D01*
X155779951Y-76009366D01*
X155775466Y-76003059D01*
X155771282Y-75996532D01*
X155767409Y-75989795D01*
X155763856Y-75982859D01*
X155760635Y-75975733D01*
X155757755Y-75968428D01*
X155755226Y-75960954D01*
X155753058Y-75953320D01*
X155751262Y-75945538D01*
X155750150Y-75939310D01*
X156097517Y-75939310D01*
X157499510Y-75939310D01*
X157499510Y-75829519D01*
X157705681Y-75829519D01*
X157705681Y-75939300D01*
X157825808Y-75939300D01*
X157821207Y-75931129D01*
X157816171Y-75923141D01*
X157810711Y-75915336D01*
X157804837Y-75907711D01*
X157798559Y-75900265D01*
X157791886Y-75892994D01*
X157784829Y-75885897D01*
X157777399Y-75878973D01*
X157769604Y-75872218D01*
X157761454Y-75865631D01*
X157752961Y-75859210D01*
X157744133Y-75852953D01*
X157734981Y-75846857D01*
X157725515Y-75840921D01*
X157715745Y-75835142D01*
X157705681Y-75829519D01*
X157499510Y-75829519D01*
X157499510Y-75755802D01*
X157459436Y-75746870D01*
X157418644Y-75738900D01*
X157377385Y-75731842D01*
X157335905Y-75725644D01*
X157294455Y-75720258D01*
X157253281Y-75715631D01*
X157212633Y-75711714D01*
X157172760Y-75708457D01*
X157172760Y-75713102D01*
X157172760Y-75833752D01*
X156579574Y-75833752D01*
X156579574Y-75721146D01*
X156539652Y-75726710D01*
X156499936Y-75733107D01*
X156460668Y-75740387D01*
X156422084Y-75748604D01*
X156384417Y-75757809D01*
X156347902Y-75768055D01*
X156312771Y-75779394D01*
X156279259Y-75791880D01*
X156247600Y-75805564D01*
X156218027Y-75820498D01*
X156204097Y-75828451D01*
X156190776Y-75836736D01*
X156178094Y-75845360D01*
X156166079Y-75854330D01*
X156154762Y-75863652D01*
X156144171Y-75873332D01*
X156134335Y-75883377D01*
X156125285Y-75893794D01*
X156117049Y-75904589D01*
X156109656Y-75915769D01*
X156103136Y-75927341D01*
X156097517Y-75939310D01*
X155750150Y-75939310D01*
X155749847Y-75937616D01*
X155748824Y-75929566D01*
X155748203Y-75921397D01*
X155747994Y-75913119D01*
X155748203Y-75904841D01*
X155748824Y-75896671D01*
X155749847Y-75888620D01*
X155751262Y-75880698D01*
X155753058Y-75872915D01*
X155755226Y-75865281D01*
X155757755Y-75857806D01*
X155760635Y-75850501D01*
X155763856Y-75843375D01*
X155767409Y-75836439D01*
X155771282Y-75829702D01*
X155775466Y-75823175D01*
X155779951Y-75816868D01*
X155784727Y-75810791D01*
X155789783Y-75804954D01*
X155795109Y-75799368D01*
X155800696Y-75794041D01*
X155806533Y-75788985D01*
X155812610Y-75784210D01*
X155818917Y-75779725D01*
X155825443Y-75775541D01*
X155832180Y-75771667D01*
X155839116Y-75768115D01*
X155846242Y-75764894D01*
X155853548Y-75762013D01*
X155861022Y-75759484D01*
X155868656Y-75757317D01*
X155876439Y-75755521D01*
X155884361Y-75754106D01*
X155892412Y-75753083D01*
X155900582Y-75752462D01*
X155908861Y-75752253D01*
X155918425Y-75752532D01*
X155927843Y-75753361D01*
X155937097Y-75754723D01*
X155946172Y-75756602D01*
X155955054Y-75758984D01*
X155963725Y-75761852D01*
X155972170Y-75765190D01*
X155980375Y-75768984D01*
X155988322Y-75773217D01*
X155995997Y-75777874D01*
X156003383Y-75782938D01*
X156010465Y-75788395D01*
X156017228Y-75794229D01*
X156023656Y-75800424D01*
X156029733Y-75806964D01*
X156035443Y-75813834D01*
X156057393Y-75790411D01*
X156081740Y-75768561D01*
X156108315Y-75748232D01*
X156136949Y-75729371D01*
X156167473Y-75711926D01*
X156199717Y-75695842D01*
X156233512Y-75681068D01*
X156268690Y-75667550D01*
X156297552Y-75657784D01*
X156700244Y-75657784D01*
X156700244Y-75713102D01*
X157052130Y-75713102D01*
X157052130Y-75657784D01*
X156700244Y-75657784D01*
X156297552Y-75657784D01*
X156305082Y-75655236D01*
X156342517Y-75644072D01*
X156380827Y-75634006D01*
X156419843Y-75624986D01*
X156459396Y-75616957D01*
X156499317Y-75609867D01*
X156579574Y-75598295D01*
X156579574Y-75537144D01*
X157172760Y-75537144D01*
X157172760Y-75584921D01*
X157212765Y-75587796D01*
X157253336Y-75591345D01*
X157294310Y-75595622D01*
X157335524Y-75600682D01*
X157376815Y-75606580D01*
X157418018Y-75613370D01*
X157458971Y-75621106D01*
X157499510Y-75629843D01*
X157499510Y-75617507D01*
X157705671Y-75617507D01*
X157705671Y-75697246D01*
X157726003Y-75706857D01*
X157745784Y-75716954D01*
X157764981Y-75727549D01*
X157783560Y-75738654D01*
X157801486Y-75750279D01*
X157809317Y-75755802D01*
X157818726Y-75762436D01*
G37*
%TD*%
M02*
