%TF.GenerationSoftware,KiCad,Pcbnew,9.0.6*%
%TF.CreationDate,2026-01-31T02:41:39+05:30*%
%TF.ProjectId,BYH_devboard,4259485f-6465-4766-926f-6172642e6b69,rev?*%
%TF.SameCoordinates,Original*%
%TF.FileFunction,Legend,Top*%
%TF.FilePolarity,Positive*%
%FSLAX46Y46*%
G04 Gerber Fmt 4.6, Leading zero omitted, Abs format (unit mm)*
G04 Created by KiCad (PCBNEW 9.0.6) date 2026-01-31 02:41:39*
%MOMM*%
%LPD*%
G01*
G04 APERTURE LIST*
%ADD10C,0.150000*%
%ADD11C,0.120000*%
G04 APERTURE END LIST*
D10*
X149238095Y-98624819D02*
X149238095Y-99434342D01*
X149238095Y-99434342D02*
X149285714Y-99529580D01*
X149285714Y-99529580D02*
X149333333Y-99577200D01*
X149333333Y-99577200D02*
X149428571Y-99624819D01*
X149428571Y-99624819D02*
X149619047Y-99624819D01*
X149619047Y-99624819D02*
X149714285Y-99577200D01*
X149714285Y-99577200D02*
X149761904Y-99529580D01*
X149761904Y-99529580D02*
X149809523Y-99434342D01*
X149809523Y-99434342D02*
X149809523Y-98624819D01*
X150809523Y-99624819D02*
X150238095Y-99624819D01*
X150523809Y-99624819D02*
X150523809Y-98624819D01*
X150523809Y-98624819D02*
X150428571Y-98767676D01*
X150428571Y-98767676D02*
X150333333Y-98862914D01*
X150333333Y-98862914D02*
X150238095Y-98910533D01*
X145963095Y-93184819D02*
X145963095Y-93994342D01*
X145963095Y-93994342D02*
X146010714Y-94089580D01*
X146010714Y-94089580D02*
X146058333Y-94137200D01*
X146058333Y-94137200D02*
X146153571Y-94184819D01*
X146153571Y-94184819D02*
X146344047Y-94184819D01*
X146344047Y-94184819D02*
X146439285Y-94137200D01*
X146439285Y-94137200D02*
X146486904Y-94089580D01*
X146486904Y-94089580D02*
X146534523Y-93994342D01*
X146534523Y-93994342D02*
X146534523Y-93184819D01*
X146915476Y-93184819D02*
X147534523Y-93184819D01*
X147534523Y-93184819D02*
X147201190Y-93565771D01*
X147201190Y-93565771D02*
X147344047Y-93565771D01*
X147344047Y-93565771D02*
X147439285Y-93613390D01*
X147439285Y-93613390D02*
X147486904Y-93661009D01*
X147486904Y-93661009D02*
X147534523Y-93756247D01*
X147534523Y-93756247D02*
X147534523Y-93994342D01*
X147534523Y-93994342D02*
X147486904Y-94089580D01*
X147486904Y-94089580D02*
X147439285Y-94137200D01*
X147439285Y-94137200D02*
X147344047Y-94184819D01*
X147344047Y-94184819D02*
X147058333Y-94184819D01*
X147058333Y-94184819D02*
X146963095Y-94137200D01*
X146963095Y-94137200D02*
X146915476Y-94089580D01*
X156707199Y-87373331D02*
X156754818Y-87230474D01*
X156754818Y-87230474D02*
X156754818Y-86992379D01*
X156754818Y-86992379D02*
X156707199Y-86897141D01*
X156707199Y-86897141D02*
X156659579Y-86849522D01*
X156659579Y-86849522D02*
X156564341Y-86801903D01*
X156564341Y-86801903D02*
X156469103Y-86801903D01*
X156469103Y-86801903D02*
X156373865Y-86849522D01*
X156373865Y-86849522D02*
X156326246Y-86897141D01*
X156326246Y-86897141D02*
X156278627Y-86992379D01*
X156278627Y-86992379D02*
X156231008Y-87182855D01*
X156231008Y-87182855D02*
X156183389Y-87278093D01*
X156183389Y-87278093D02*
X156135770Y-87325712D01*
X156135770Y-87325712D02*
X156040532Y-87373331D01*
X156040532Y-87373331D02*
X155945294Y-87373331D01*
X155945294Y-87373331D02*
X155850056Y-87325712D01*
X155850056Y-87325712D02*
X155802437Y-87278093D01*
X155802437Y-87278093D02*
X155754818Y-87182855D01*
X155754818Y-87182855D02*
X155754818Y-86944760D01*
X155754818Y-86944760D02*
X155802437Y-86801903D01*
X155754818Y-86468569D02*
X156754818Y-86230474D01*
X156754818Y-86230474D02*
X156040532Y-86039998D01*
X156040532Y-86039998D02*
X156754818Y-85849522D01*
X156754818Y-85849522D02*
X155754818Y-85611427D01*
X156754818Y-84706665D02*
X156754818Y-85278093D01*
X156754818Y-84992379D02*
X155754818Y-84992379D01*
X155754818Y-84992379D02*
X155897675Y-85087617D01*
X155897675Y-85087617D02*
X155992913Y-85182855D01*
X155992913Y-85182855D02*
X156040532Y-85278093D01*
X146553809Y-108868628D02*
X146553809Y-109344819D01*
X146220476Y-108344819D02*
X146553809Y-108868628D01*
X146553809Y-108868628D02*
X146887142Y-108344819D01*
X147744285Y-109344819D02*
X147172857Y-109344819D01*
X147458571Y-109344819D02*
X147458571Y-108344819D01*
X147458571Y-108344819D02*
X147363333Y-108487676D01*
X147363333Y-108487676D02*
X147268095Y-108582914D01*
X147268095Y-108582914D02*
X147172857Y-108630533D01*
X144534810Y-124223332D02*
X145249095Y-124223332D01*
X145249095Y-124223332D02*
X145391952Y-124270951D01*
X145391952Y-124270951D02*
X145487191Y-124366189D01*
X145487191Y-124366189D02*
X145534810Y-124509046D01*
X145534810Y-124509046D02*
X145534810Y-124604284D01*
X144868143Y-123318570D02*
X145534810Y-123318570D01*
X144487191Y-123556665D02*
X145201476Y-123794760D01*
X145201476Y-123794760D02*
X145201476Y-123175713D01*
X149666662Y-82099821D02*
X149666662Y-82814106D01*
X149666662Y-82814106D02*
X149619043Y-82956963D01*
X149619043Y-82956963D02*
X149523805Y-83052202D01*
X149523805Y-83052202D02*
X149380948Y-83099821D01*
X149380948Y-83099821D02*
X149285710Y-83099821D01*
X150666662Y-83099821D02*
X150095234Y-83099821D01*
X150380948Y-83099821D02*
X150380948Y-82099821D01*
X150380948Y-82099821D02*
X150285710Y-82242678D01*
X150285710Y-82242678D02*
X150190472Y-82337916D01*
X150190472Y-82337916D02*
X150095234Y-82385535D01*
X144264816Y-86629402D02*
X145074339Y-86629402D01*
X145074339Y-86629402D02*
X145169577Y-86581783D01*
X145169577Y-86581783D02*
X145217197Y-86534164D01*
X145217197Y-86534164D02*
X145264816Y-86438926D01*
X145264816Y-86438926D02*
X145264816Y-86248450D01*
X145264816Y-86248450D02*
X145217197Y-86153212D01*
X145217197Y-86153212D02*
X145169577Y-86105593D01*
X145169577Y-86105593D02*
X145074339Y-86057974D01*
X145074339Y-86057974D02*
X144264816Y-86057974D01*
X144360054Y-85629402D02*
X144312435Y-85581783D01*
X144312435Y-85581783D02*
X144264816Y-85486545D01*
X144264816Y-85486545D02*
X144264816Y-85248450D01*
X144264816Y-85248450D02*
X144312435Y-85153212D01*
X144312435Y-85153212D02*
X144360054Y-85105593D01*
X144360054Y-85105593D02*
X144455292Y-85057974D01*
X144455292Y-85057974D02*
X144550530Y-85057974D01*
X144550530Y-85057974D02*
X144693387Y-85105593D01*
X144693387Y-85105593D02*
X145264816Y-85677021D01*
X145264816Y-85677021D02*
X145264816Y-85057974D01*
%TO.C,REF\u002A\u002A*%
X153391001Y-113520200D02*
X152489299Y-113819920D01*
X153540859Y-113571001D02*
X153888840Y-114868941D01*
X154089501Y-113619260D02*
X153391001Y-113520200D01*
X153088741Y-113670061D02*
X153540859Y-113571001D01*
X154140300Y-113720860D02*
X154539079Y-114970541D01*
X152489299Y-113819920D02*
X151988920Y-114371099D01*
X152441040Y-114020579D02*
X153738979Y-114719080D01*
X154889600Y-114068839D02*
X154089501Y-113619260D01*
X151988920Y-114371099D02*
X151740002Y-115018800D01*
X155039459Y-114470160D02*
X154790541Y-115519179D01*
X152090521Y-114520958D02*
X153241139Y-114970539D01*
X155290920Y-114670819D02*
X154889600Y-114068839D01*
X153738979Y-114719080D02*
X153088741Y-113670061D01*
X150640181Y-114769878D02*
X151188821Y-116169419D01*
X153690720Y-114820680D02*
X154340960Y-114919739D01*
X153888840Y-114868941D02*
X154140300Y-113720860D01*
X154340960Y-114919739D02*
X154589880Y-115219462D01*
X154539079Y-114970541D02*
X155039459Y-114470160D01*
X153241139Y-114970539D02*
X152441040Y-114020579D01*
X155440782Y-115018801D02*
X155290920Y-114670819D01*
X153190339Y-115018801D02*
X153690720Y-114820680D01*
X151740002Y-115018800D02*
X152938880Y-115770639D01*
X154589880Y-115219462D02*
X154739738Y-115669040D01*
X151988917Y-115270262D02*
X151389479Y-115270260D01*
X151389479Y-115270260D02*
X150640181Y-114769878D01*
X155489040Y-115420120D02*
X155440782Y-115018801D01*
X155440779Y-115470921D02*
X154940399Y-116570740D01*
X153040479Y-115470922D02*
X153190339Y-115018801D01*
X154790541Y-115519179D02*
X155440779Y-115470921D01*
X152890620Y-115519178D02*
X152090521Y-114520958D01*
X150391260Y-115519181D02*
X150889100Y-115519180D01*
X149890880Y-115519180D02*
X150391260Y-115519181D01*
X149489560Y-115569981D02*
X149890880Y-115519180D01*
X149090780Y-115620780D02*
X149489560Y-115569981D01*
X154739738Y-115669040D02*
X154889600Y-116319280D01*
X148689460Y-115719841D02*
X149090780Y-115620780D01*
X152938880Y-115770639D02*
X153589121Y-116469139D01*
X148389738Y-115770641D02*
X148689460Y-115719841D01*
X153439259Y-115818901D02*
X153040479Y-115470922D01*
X148140819Y-116019558D02*
X148389738Y-115770641D01*
X150889101Y-116070362D02*
X150439520Y-116370080D01*
X151188821Y-116169419D02*
X151539339Y-116669801D01*
X147940161Y-116169419D02*
X148140819Y-116019558D01*
X153289400Y-116220219D02*
X153589120Y-116720602D01*
X153888840Y-116271020D02*
X153439259Y-115818901D01*
X149989939Y-116271021D02*
X149690219Y-116720600D01*
X154889600Y-116319280D02*
X154838799Y-116669799D01*
X155339180Y-116370080D02*
X155489040Y-115420120D01*
X150439520Y-116370080D02*
X149989939Y-116271021D01*
X147739502Y-116420878D02*
X147940161Y-116169419D01*
X153589121Y-116469139D02*
X154041240Y-117071118D01*
X149039978Y-116519939D02*
X148641199Y-117071122D01*
X147739500Y-116519940D02*
X147790301Y-116720601D01*
X154838799Y-116669799D02*
X155090261Y-117220978D01*
X151539339Y-116669801D02*
X152489300Y-116819662D01*
X153589120Y-116720602D02*
X153939641Y-117469901D01*
X149690219Y-116720600D02*
X149039978Y-116519939D01*
X152489300Y-116819662D02*
X153040481Y-117419099D01*
X154290161Y-116870461D02*
X153888840Y-116271020D01*
X147940157Y-116870459D02*
X147490582Y-117419100D01*
X155290920Y-117020321D02*
X155339180Y-116370080D01*
X154041240Y-117071118D02*
X154089500Y-117619760D01*
X148641199Y-117071122D02*
X147940157Y-116870459D01*
X155090261Y-117220978D02*
X155440779Y-117419100D01*
X152189581Y-117269239D02*
X151940658Y-117469898D01*
X146588882Y-117269240D02*
X146240903Y-117619760D01*
X154340962Y-117370839D02*
X154290161Y-116870461D01*
X147388980Y-117370840D02*
X146990198Y-117568959D01*
X155440779Y-117419100D02*
X155290920Y-117020321D01*
X150640181Y-117419100D02*
X150690982Y-117119379D01*
X153939641Y-117469901D02*
X153939640Y-117820420D01*
X151940658Y-117469898D02*
X151940658Y-117871221D01*
X152441041Y-117520698D02*
X152189581Y-117269239D01*
X150391259Y-117568962D02*
X150640181Y-117419100D01*
X146990198Y-117568959D02*
X146690480Y-117670562D01*
X145941180Y-117568959D02*
X145788780Y-117619760D01*
X154089500Y-117619760D02*
X153888840Y-118069339D01*
X146240903Y-117619760D02*
X145941180Y-117568959D01*
X146690480Y-117670562D02*
X146588882Y-117269240D01*
X145740519Y-117670559D02*
X145638922Y-117619759D01*
X149890876Y-117718820D02*
X150391259Y-117568962D01*
X154239360Y-117871221D02*
X154340962Y-117370839D01*
X151940658Y-117871221D02*
X152138779Y-118269998D01*
X149540362Y-117919478D02*
X149890876Y-117718820D01*
X152339439Y-117970280D02*
X152441041Y-117520698D01*
X147640440Y-117970278D02*
X147439780Y-118069340D01*
X153888840Y-118069339D02*
X153789779Y-118470661D01*
X149339701Y-118069340D02*
X149540362Y-117919478D01*
X147439780Y-118069340D02*
X147239120Y-118320798D01*
X148039219Y-118120138D02*
X147640440Y-117970278D01*
X154089500Y-118170938D02*
X154239360Y-117871221D01*
X151341220Y-118170939D02*
X151290419Y-117970282D01*
X153289399Y-118270001D02*
X153439259Y-118668780D01*
X152189579Y-118320802D02*
X152339439Y-117970280D01*
X150790038Y-118320800D02*
X150391258Y-118369060D01*
X147239120Y-118320798D02*
X147041001Y-118470659D01*
X154041238Y-118369059D02*
X154089500Y-118170938D01*
X151440279Y-118369062D02*
X151341220Y-118170939D01*
X150391258Y-118369060D02*
X150238860Y-118620519D01*
X146540620Y-118369060D02*
X145989441Y-118419861D01*
X146738740Y-118419860D02*
X146540620Y-118369060D01*
X145989441Y-118419861D02*
X145788779Y-118620520D01*
X153789779Y-118470661D02*
X153939641Y-118920243D01*
X147041001Y-118470659D02*
X146738740Y-118419860D01*
X151440281Y-118518921D02*
X151440279Y-118369062D01*
X149189842Y-118518921D02*
X149339701Y-118069340D01*
X147990958Y-118518922D02*
X147691239Y-118821180D01*
X150238860Y-118620519D02*
X150238862Y-118920240D01*
X153439259Y-118668780D02*
X153789779Y-118920239D01*
X150939899Y-118719581D02*
X150790038Y-118320800D01*
X148440540Y-118719578D02*
X147990958Y-118518922D01*
X151440279Y-118821179D02*
X151440281Y-118518921D01*
X147691239Y-118821180D02*
X147490580Y-119219960D01*
X154290161Y-118869443D02*
X154041238Y-118369059D01*
X149090779Y-118869440D02*
X148839321Y-119270760D01*
X153939641Y-118920243D02*
X153840580Y-119369820D01*
X152291179Y-118920241D02*
X151839057Y-118971040D01*
X150238862Y-118920240D02*
X150340459Y-119019302D01*
X151839057Y-118971040D02*
X151440282Y-119120899D01*
X153738979Y-119019301D02*
X153540859Y-119669541D01*
X150340459Y-119019302D02*
X150589381Y-119169159D01*
X149139039Y-119019300D02*
X149189842Y-118518921D01*
X146639680Y-119019301D02*
X146390761Y-119169161D01*
X154041241Y-119120901D02*
X153990441Y-119369820D01*
X151440282Y-119120899D02*
X151290420Y-119219960D01*
X151290420Y-119120901D02*
X151440279Y-118821179D01*
X150589381Y-119169159D02*
X150939899Y-118719581D01*
X147041002Y-119169161D02*
X146639680Y-119019301D01*
X148389739Y-119219961D02*
X148189081Y-119270761D01*
X147490580Y-119219960D02*
X147041002Y-119169161D01*
X154290159Y-119270762D02*
X154290161Y-118869443D01*
X151239620Y-119270761D02*
X151089761Y-119369820D01*
X148839321Y-119270760D02*
X148839318Y-119519679D01*
X148539601Y-119270761D02*
X148389739Y-119219961D01*
X148189081Y-119270761D02*
X147990964Y-119468879D01*
X155240119Y-119369819D02*
X154640681Y-119819398D01*
X153840580Y-119369820D02*
X153540859Y-119969258D01*
X151089761Y-119369820D02*
X150939902Y-119519679D01*
X155339179Y-119420620D02*
X155090260Y-120020059D01*
X152339440Y-119468880D02*
X152689960Y-119618740D01*
X149090781Y-119468877D02*
X149139039Y-119019300D01*
X147990964Y-119468879D02*
X147790299Y-119720341D01*
X150939902Y-119519679D02*
X150939901Y-119669540D01*
X149789279Y-119519679D02*
X149438760Y-119669540D01*
X148791061Y-119519680D02*
X148689461Y-119771139D01*
X154140297Y-119570479D02*
X154290159Y-119270762D01*
X146840340Y-119570480D02*
X146840339Y-119618739D01*
X152689960Y-119618740D02*
X152590900Y-120020058D01*
X153540859Y-119669541D02*
X153340200Y-120070860D01*
X150939901Y-119669540D02*
X151038961Y-119870201D01*
X149438760Y-119669540D02*
X149240640Y-120020062D01*
X147790299Y-119720341D02*
X147439781Y-119819400D01*
X147140063Y-119720340D02*
X146840340Y-119570480D01*
X148689461Y-119771139D02*
X148689459Y-120020058D01*
X154640681Y-119819398D02*
X154539079Y-120169920D01*
X153939642Y-119819399D02*
X154140297Y-119570479D01*
X148641202Y-119819399D02*
X148539601Y-119270761D01*
X147439781Y-119819400D02*
X147140063Y-119720340D01*
X151038961Y-119870201D02*
X151038960Y-120070860D01*
X149890880Y-119920999D02*
X149789279Y-119519679D01*
X153540859Y-119969258D02*
X153289399Y-120169921D01*
X155090260Y-120020059D02*
X155189321Y-120469639D01*
X152590900Y-120020058D02*
X152390239Y-120119123D01*
X152138782Y-120020061D02*
X152240380Y-119570479D01*
X151739999Y-120020059D02*
X151089761Y-119969261D01*
X151038962Y-120020059D02*
X151038962Y-120418839D01*
X150490320Y-120020061D02*
X150340462Y-119920999D01*
X148689459Y-120020058D02*
X148641202Y-119819399D01*
X153340200Y-120070860D02*
X152489300Y-121368801D01*
X149890879Y-120070861D02*
X149890880Y-119920999D01*
X149189841Y-120070859D02*
X149090781Y-119468877D01*
X152390239Y-120119123D02*
X152138782Y-120020061D01*
X154539079Y-120169920D02*
X154539079Y-120619498D01*
X153289399Y-120169921D02*
X152189578Y-120870961D01*
X153639921Y-120268981D02*
X153939642Y-119819399D01*
X151038962Y-120418839D02*
X150889099Y-120571241D01*
X155189321Y-120469639D02*
X155440779Y-120970019D01*
X154688940Y-120571241D02*
X155389979Y-121069080D01*
X151440280Y-120571242D02*
X151839061Y-120119120D01*
X150889099Y-120571241D02*
X149890879Y-120070861D01*
X154539079Y-120619498D02*
X154490820Y-120970019D01*
X153490059Y-120619498D02*
X153639921Y-120268981D01*
X152189578Y-120870961D02*
X151539338Y-121170680D01*
X153540859Y-120919219D02*
X153490059Y-120619498D01*
X155440779Y-120970019D02*
X155489041Y-121419599D01*
X154490820Y-120970019D02*
X154089502Y-121170680D01*
X155389979Y-121069080D02*
X154688940Y-119921001D01*
X153589120Y-121119878D02*
X152890621Y-121869181D01*
X154440019Y-121170680D02*
X154889599Y-122318761D01*
X154089502Y-121170680D02*
X153789778Y-121218942D01*
X151539338Y-121170680D02*
X151440280Y-120571242D01*
X153789778Y-121218942D02*
X153540859Y-120919219D01*
X152489300Y-121368801D02*
X153589120Y-121119878D01*
X155489041Y-121419599D02*
X155240124Y-121869181D01*
X153990441Y-121419598D02*
X153738982Y-122420360D01*
X152590901Y-121719321D02*
X152189579Y-121170682D01*
X155240124Y-121869181D02*
X154940400Y-122318759D01*
X152890621Y-121869181D02*
X153990441Y-121419598D01*
X152989682Y-122168898D02*
X152590901Y-121719321D01*
X154940400Y-122318759D02*
X154389222Y-122519420D01*
X154889599Y-122318761D02*
X154688940Y-120571241D01*
X153738982Y-122420360D02*
X154440019Y-121170680D01*
X153540861Y-122420361D02*
X152989682Y-122168898D01*
X154389222Y-122519420D02*
X153939639Y-122519419D01*
X153939639Y-122519419D02*
X153540861Y-122420361D01*
D11*
%TO.C,C16*%
X153210003Y-111802159D02*
X153210003Y-112017832D01*
X153929997Y-111802168D02*
X153929997Y-112017841D01*
%TO.C,C9*%
X153230001Y-109962158D02*
X153230001Y-110177831D01*
X153949995Y-109962167D02*
X153949995Y-110177840D01*
%TO.C,U1*%
X146390000Y-100390000D02*
X147040000Y-100390000D01*
X146390000Y-101040000D02*
X146390000Y-100390000D01*
X146390000Y-107610000D02*
X146390000Y-106960000D01*
X147040000Y-107610000D02*
X146390000Y-107610000D01*
X152960000Y-100390000D02*
X153610000Y-100390000D01*
X153610000Y-100390000D02*
X153610000Y-101040000D01*
X153610000Y-106960000D02*
X153610000Y-107610000D01*
X153610000Y-107610000D02*
X152960000Y-107610000D01*
X145860000Y-101400000D02*
X145530000Y-101640000D01*
X145530000Y-101160000D01*
X145860000Y-101400000D01*
G36*
X145860000Y-101400000D02*
G01*
X145530000Y-101640000D01*
X145530000Y-101160000D01*
X145860000Y-101400000D01*
G37*
%TO.C,R5*%
X150923641Y-108869996D02*
X150616357Y-108870003D01*
X150923643Y-109629997D02*
X150616359Y-109630004D01*
%TO.C,C17*%
X154766379Y-98738905D02*
X154905011Y-98573690D01*
X155317915Y-99201708D02*
X155456547Y-99036493D01*
%TO.C,R6*%
X154173641Y-89650004D02*
X153866357Y-89649997D01*
X154173643Y-88890003D02*
X153866359Y-88889996D01*
%TO.C,R4*%
X151020002Y-98903642D02*
X151019998Y-98596360D01*
X151780002Y-98903640D02*
X151779998Y-98596358D01*
%TO.C,C12*%
X145437832Y-100949999D02*
X145222160Y-100949999D01*
X145437840Y-100230001D02*
X145222168Y-100230001D01*
%TO.C,R7*%
X145706359Y-93580000D02*
X146013641Y-93580000D01*
X145706359Y-94340000D02*
X146013641Y-94340000D01*
%TO.C,R1*%
X151160002Y-83116358D02*
X151159998Y-83423640D01*
X151920002Y-83116360D02*
X151919998Y-83423642D01*
%TO.C,C10*%
X149950001Y-96637835D02*
X149950000Y-96422162D01*
X150670000Y-96637838D02*
X150669999Y-96422165D01*
%TO.C,C14*%
X147907832Y-88629999D02*
X147692160Y-88629999D01*
X147907840Y-87910001D02*
X147692168Y-87910001D01*
%TO.C,U3*%
X145539432Y-94545000D02*
X148335000Y-94545000D01*
X148335000Y-96815000D02*
X145115000Y-96815000D01*
X145245000Y-94540000D02*
X145105000Y-94350000D01*
X145385000Y-94350000D01*
X145245000Y-94540000D01*
G36*
X145245000Y-94540000D02*
G01*
X145105000Y-94350000D01*
X145385000Y-94350000D01*
X145245000Y-94540000D01*
G37*
%TO.C,C3*%
X155279779Y-105828897D02*
X155432283Y-105981401D01*
X155788895Y-105319779D02*
X155941399Y-105472283D01*
%TO.C,C5*%
X148087832Y-93609999D02*
X147872160Y-93609999D01*
X148087840Y-94329997D02*
X147872168Y-94329997D01*
%TO.C,SW1*%
X152480000Y-83970001D02*
X152780001Y-83970002D01*
X152480001Y-88110001D02*
X152480000Y-83970001D01*
X152779998Y-88110001D02*
X152480001Y-88110001D01*
X155320002Y-83969999D02*
X155619999Y-83969999D01*
X155619999Y-83969999D02*
X155620000Y-88109999D01*
X155620000Y-88109999D02*
X155319999Y-88109998D01*
%TO.C,C15*%
X146700003Y-111362159D02*
X146700003Y-111577832D01*
X147419997Y-111362168D02*
X147419997Y-111577841D01*
%TO.C,J2*%
X139730000Y-74490000D02*
X141110000Y-74490000D01*
X139730000Y-75870000D02*
X139730000Y-74490000D01*
X139730000Y-77140000D02*
X139730000Y-125510000D01*
X139730000Y-77140000D02*
X142490000Y-77140000D01*
X139730000Y-125510000D02*
X142490000Y-125510000D01*
X142490000Y-77140000D02*
X142490000Y-125510000D01*
%TO.C,Y1*%
X152059998Y-113209997D02*
X152060004Y-109790002D01*
X152060004Y-109790002D02*
X147940002Y-109790003D01*
%TO.C,J3*%
X157510000Y-74490000D02*
X158890000Y-74490000D01*
X157510000Y-75870000D02*
X157510000Y-74490000D01*
X157510000Y-77140000D02*
X157510000Y-125510000D01*
X157510000Y-77140000D02*
X160270000Y-77140000D01*
X157510000Y-125510000D02*
X160270000Y-125510000D01*
X160270000Y-77140000D02*
X160270000Y-125510000D01*
%TO.C,J4*%
X146080000Y-125269998D02*
X146080004Y-123889996D01*
X147459996Y-125269996D02*
X146080000Y-125269998D01*
X148729994Y-122510003D02*
X153920000Y-122510000D01*
X148730002Y-125270004D02*
X148729994Y-122510003D01*
X148730002Y-125270004D02*
X153920000Y-125270000D01*
X153920000Y-125270000D02*
X153920000Y-122510000D01*
%TO.C,C13*%
X146987832Y-83549999D02*
X146772160Y-83549999D01*
X146987840Y-82830001D02*
X146772168Y-82830001D01*
%TO.C,J1*%
X145299999Y-78900001D02*
X145300001Y-76900001D01*
X145300001Y-75000002D02*
X145300003Y-73099997D01*
X154700000Y-78899998D02*
X154700000Y-76900000D01*
X154700001Y-73100002D02*
X145300003Y-73099997D01*
X154700002Y-74999999D02*
X154700001Y-73100002D01*
%TO.C,C11*%
X152060002Y-98937835D02*
X152060001Y-98722162D01*
X152780001Y-98937838D02*
X152780000Y-98722165D01*
%TO.C,R3*%
X150080002Y-98903642D02*
X150079998Y-98596360D01*
X150840002Y-98903640D02*
X150839998Y-98596358D01*
%TO.C,C1*%
X153170007Y-99237836D02*
X153170006Y-99022164D01*
X153889992Y-99237842D02*
X153889991Y-99022170D01*
%TO.C,C8*%
X150970003Y-95327835D02*
X150970002Y-95112160D01*
X151690002Y-95327840D02*
X151690001Y-95112165D01*
%TO.C,C4*%
X152250000Y-109982165D02*
X152249999Y-110197838D01*
X152969999Y-109982162D02*
X152969998Y-110197835D01*
%TO.C,C6*%
X144151692Y-105709188D02*
X143999194Y-105861691D01*
X144660806Y-106218309D02*
X144508308Y-106370812D01*
%TO.C,C7*%
X152010002Y-94307835D02*
X152010001Y-94092162D01*
X152730001Y-94307838D02*
X152730000Y-94092165D01*
%TO.C,U2*%
X145649998Y-85107492D02*
X146650002Y-85107493D01*
X145650008Y-86627493D02*
X145649998Y-85107492D01*
X145700004Y-86627494D02*
X145650008Y-86627493D01*
X147599995Y-86627494D02*
X146820003Y-86627501D01*
X147770002Y-85107500D02*
X148769994Y-85107499D01*
X148769994Y-85107499D02*
X148770004Y-86627500D01*
X148770004Y-86627500D02*
X148720000Y-86627490D01*
X147160007Y-87407490D02*
X146829995Y-87167497D01*
X147160001Y-86927496D01*
X147160007Y-87407490D01*
G36*
X147160007Y-87407490D02*
G01*
X146829995Y-87167497D01*
X147160001Y-86927496D01*
X147160007Y-87407490D01*
G37*
%TO.C,C2*%
X154882163Y-100850000D02*
X155097836Y-100850000D01*
X154882164Y-100130000D02*
X155097837Y-100130000D01*
%TO.C,R2*%
X147970002Y-83126358D02*
X147969998Y-83433640D01*
X148730002Y-83126360D02*
X148729998Y-83433642D01*
%TD*%
M02*
