%TF.GenerationSoftware,KiCad,Pcbnew,9.0.6*%
%TF.CreationDate,2026-01-31T02:41:39+05:30*%
%TF.ProjectId,BYH_devboard,4259485f-6465-4766-926f-6172642e6b69,rev?*%
%TF.SameCoordinates,Original*%
%TF.FileFunction,Soldermask,Bot*%
%TF.FilePolarity,Negative*%
%FSLAX46Y46*%
G04 Gerber Fmt 4.6, Leading zero omitted, Abs format (unit mm)*
G04 Created by KiCad (PCBNEW 9.0.6) date 2026-01-31 02:41:39*
%MOMM*%
%LPD*%
G01*
G04 APERTURE LIST*
%ADD10R,1.700000X1.700000*%
%ADD11C,1.700000*%
%ADD12C,0.650000*%
%ADD13O,1.000000X2.100000*%
%ADD14O,1.000000X1.600000*%
G04 APERTURE END LIST*
D10*
%TO.C,J2*%
X141110000Y-75870000D03*
D11*
X141110000Y-78410000D03*
X141110000Y-80950000D03*
X141110000Y-83490000D03*
X141110000Y-86030000D03*
X141110000Y-88570000D03*
X141110000Y-91110000D03*
X141110000Y-93650000D03*
X141110000Y-96190000D03*
X141110000Y-98730000D03*
X141110000Y-101270000D03*
X141110000Y-103810000D03*
X141110000Y-106350000D03*
X141110000Y-108890000D03*
X141110000Y-111430000D03*
X141110000Y-113970000D03*
X141110000Y-116510000D03*
X141110000Y-119050000D03*
X141110000Y-121590000D03*
X141110000Y-124130000D03*
%TD*%
D10*
%TO.C,J3*%
X158890000Y-75870000D03*
D11*
X158890000Y-78410000D03*
X158890000Y-80950000D03*
X158890000Y-83490000D03*
X158890000Y-86030000D03*
X158890000Y-88570000D03*
X158890000Y-91110000D03*
X158890000Y-93650000D03*
X158890000Y-96190000D03*
X158890000Y-98730000D03*
X158890000Y-101270000D03*
X158890000Y-103810000D03*
X158890000Y-106350000D03*
X158890000Y-108890000D03*
X158890000Y-111430000D03*
X158890000Y-113970000D03*
X158890000Y-116510000D03*
X158890000Y-119050000D03*
X158890000Y-121590000D03*
X158890000Y-124130000D03*
%TD*%
D10*
%TO.C,J4*%
X147460000Y-123890000D03*
D11*
X150000001Y-123890000D03*
X152540002Y-123889999D03*
%TD*%
D12*
%TO.C,J1*%
X152890001Y-79600001D03*
X147110003Y-79600002D03*
D13*
X154320002Y-80130001D03*
D14*
X154320000Y-75950000D03*
D13*
X145680002Y-80130001D03*
D14*
X145680000Y-75950000D03*
%TD*%
M02*
